<svg width="17" height="17" viewBox="0 0 17 17" fill="none" xmlns="http://www.w3.org/2000/svg">
<path d="M15.9112 15.6397C16.4461 15.1 16.442 14.2289 15.9022 13.6943L10.5429 8.38689L15.8482 3.03368C16.3829 2.49417 16.379 1.62337 15.8395 1.08865C15.2999 0.553745 14.4287 0.557798 13.894 1.0977L8.59016 6.45351L3.22833 1.14309C2.69208 0.611984 1.82744 0.614065 1.29376 1.14775C0.756567 1.68494 0.758497 2.55649 1.29806 3.0913L6.65816 8.40414L1.34288 13.7714C0.811784 14.3077 0.813888 15.1724 1.34759 15.7061C1.88478 16.2433 2.75633 16.2414 3.29118 15.7018L8.60879 10.3375L13.9662 15.6482C14.5057 16.183 15.3765 16.1792 15.9112 15.6397Z" fill="url(#paint0_linear)"/>
<defs>
<linearGradient id="paint0_linear" x1="-3.82018" y1="-6.78" x2="30.7438" y2="13.0966" gradientUnits="userSpaceOnUse">
<stop stop-color="#7AFBED" stop-opacity="0"/>
<stop offset="0.183501" stop-color="#78FFEF"/>
<stop offset="0.844133" stop-color="#D63CAE"/>
<stop offset="0.9999" stop-color="#9A64C7" stop-opacity="0"/>
<stop offset="1" stop-color="#5891E3"/>
</linearGradient>
</defs>
</svg>
