<svg width="23" height="23" viewBox="0 0 23 23" fill="none" xmlns="http://www.w3.org/2000/svg">
<path d="M1.60385 15.8816L0.577988 20.9624C0.436474 21.6633 1.05491 22.2819 1.75583 22.1406L6.83752 21.1162L20.9457 7.00878C21.7268 6.22774 21.7268 4.96138 20.9458 4.18031L18.5397 1.7742C17.7586 0.99315 16.4923 0.99315 15.7112 1.7742L1.60385 15.8816ZM5.59988 19.0921C5.74095 19.2331 5.66818 19.4744 5.47267 19.5139L3.00304 20.0131C2.82785 20.0485 2.67317 19.894 2.70842 19.7187L3.20552 17.2477C3.24487 17.0521 3.48624 16.9792 3.62736 17.1202L5.59988 19.0921ZM19.5806 5.41596C19.6783 5.51358 19.6783 5.67189 19.5807 5.76954L18.4545 6.89574L16.0307 4.40517C15.9353 4.30717 15.9364 4.15073 16.0331 4.05403L16.9487 3.13838C17.0463 3.04076 17.2046 3.04075 17.3022 3.13835L19.5806 5.41596ZM14.7346 5.71087L17.1538 8.19661L7.40715 17.9439C7.30951 18.0416 7.15119 18.0416 7.05356 17.9439L4.77596 15.6655C4.67836 15.5679 4.67837 15.4096 4.77598 15.312L14.3786 5.70846C14.4772 5.60988 14.6374 5.61096 14.7346 5.71087Z" fill="url(#paint0_linear)"/>
<path d="M1.60385 15.8816L0.577988 20.9624C0.436474 21.6633 1.05491 22.2819 1.75583 22.1406L6.83752 21.1162L20.9457 7.00878C21.7268 6.22774 21.7268 4.96138 20.9458 4.18031L18.5397 1.7742C17.7586 0.99315 16.4923 0.99315 15.7112 1.7742L1.60385 15.8816ZM5.59988 19.0921C5.74095 19.2331 5.66818 19.4744 5.47267 19.5139L3.00304 20.0131C2.82785 20.0485 2.67317 19.894 2.70842 19.7187L3.20552 17.2477C3.24487 17.0521 3.48624 16.9792 3.62736 17.1202L5.59988 19.0921ZM19.5806 5.41596C19.6783 5.51358 19.6783 5.67189 19.5807 5.76954L18.4545 6.89574L16.0307 4.40517C15.9353 4.30717 15.9364 4.15073 16.0331 4.05403L16.9487 3.13838C17.0463 3.04076 17.2046 3.04075 17.3022 3.13835L19.5806 5.41596ZM14.7346 5.71087L17.1538 8.19661L7.40715 17.9439C7.30951 18.0416 7.15119 18.0416 7.05356 17.9439L4.77596 15.6655C4.67836 15.5679 4.67837 15.4096 4.77598 15.312L14.3786 5.70846C14.4772 5.60988 14.6374 5.61096 14.7346 5.71087Z" stroke="url(#paint1_linear)"/>
<defs>
<linearGradient id="paint0_linear" x1="-5.23997" y1="-8.83925" x2="40.8435" y2="17.664" gradientUnits="userSpaceOnUse">
<stop stop-color="#7AFBED" stop-opacity="0"/>
<stop offset="0.183501" stop-color="#78FFEF"/>
<stop offset="0.844133" stop-color="#D63CAE"/>
<stop offset="0.9999" stop-color="#9A64C7" stop-opacity="0"/>
<stop offset="1" stop-color="#5891E3"/>
</linearGradient>
<linearGradient id="paint1_linear" x1="-5.23997" y1="-8.83925" x2="40.8435" y2="17.664" gradientUnits="userSpaceOnUse">
<stop stop-color="#7AFBED" stop-opacity="0"/>
<stop offset="0.183501" stop-color="#78FFEF"/>
<stop offset="0.844133" stop-color="#D63CAE"/>
<stop offset="0.9999" stop-color="#9A64C7" stop-opacity="0"/>
<stop offset="1" stop-color="#5891E3"/>
</linearGradient>
</defs>
</svg>
