<svg width="254" height="234" viewBox="0 0 254 234" fill="none" xmlns="http://www.w3.org/2000/svg">
<path d="M30.6548 61.0159C28.4921 65.5183 26.9955 70.107 26.3448 74.6245C22.0941 106.643 21.8764 139.064 25.6859 171.125C25.7117 171.344 25.7383 171.563 25.7649 171.781C25.9503 173.317 26.1414 174.853 26.3448 176.387C29.863 200.811 58.0428 227.321 83.1521 230.921C108.498 234.07 134.077 234.304 161.306 230.921C186.388 227.325 214.592 200.837 218.114 176.387C218.115 176.378 218.116 176.368 218.117 176.359C218.319 174.842 218.508 173.324 218.691 171.805C218.718 171.573 218.747 171.341 218.774 171.109C222.582 139.053 222.363 106.638 218.113 74.6241C217.462 70.1066 215.966 65.5179 213.803 61.0155C233.454 58.2569 244.457 45.1164 244.457 33.051C244.457 19.7194 231.047 9.98535 216.93 9.98535C203.81 9.98535 192.642 19.3167 188.389 31.7668C179.83 25.6741 170.368 21.3899 161.305 20.091C134.929 16.8134 109.526 16.813 83.1513 20.091C74.0884 21.3899 64.6265 25.6741 56.0678 31.7672C51.8147 19.3167 40.6467 9.98535 27.5267 9.98535C13.4097 9.98535 0 19.719 0 33.051C0.000818466 45.1164 11.0039 58.2573 30.6548 61.0159Z" fill="#D3D1D0"/>
<path d="M37.0704 0C22.9535 0 9.5437 9.73361 9.5437 23.0656C9.5437 36.6296 23.4396 51.5646 47.9089 51.5646C52.2623 51.5646 56.6137 51.0453 60.9659 49.8581L67.4293 33.9463C67.442 33.5682 67.4481 33.1913 67.4481 32.8148C67.449 15.2754 53.8567 0 37.0704 0Z" fill="#925224"/>
<path d="M22.418 26.2014C22.418 34.463 30.8817 43.5594 45.7852 43.5594C48.4366 43.5594 51.0868 43.2431 53.7378 42.52L57.6746 32.8285C57.6824 32.5981 57.6861 32.3685 57.6861 32.1394C57.6861 21.4563 49.4073 12.1528 39.1834 12.1528C30.5855 12.1528 22.418 18.081 22.418 26.2014Z" fill="#BA692C"/>
<path d="M196.095 32.8153C196.095 33.1913 196.101 33.5687 196.114 33.9468L202.578 49.8586C206.93 51.0458 211.282 51.5651 215.635 51.5651C240.104 51.5651 254 36.6301 254 23.0661C254 9.73451 240.59 0.000488289 226.473 0.000488289C209.687 7.90563e-05 196.095 15.2755 196.095 32.8153Z" fill="#925224"/>
<path d="M205.858 32.1394C205.858 32.3685 205.862 32.5981 205.87 32.8285L209.806 42.52C212.457 43.2431 215.108 43.5594 217.759 43.5594C232.663 43.5594 241.126 34.463 241.126 26.2014C241.126 18.0814 232.959 12.1528 224.361 12.1528C214.137 12.1528 205.858 21.4563 205.858 32.1394Z" fill="#BA692C"/>
<path d="M170.849 10.1057C144.473 6.82773 119.07 6.82773 92.6951 10.1057C67.5849 13.7049 39.4064 40.215 35.8878 64.6385C31.4043 98.41 31.4043 132.63 35.8878 166.402C39.406 190.825 67.5858 217.335 92.6951 220.934C119.071 224.212 144.474 224.212 170.849 220.934C195.958 217.336 224.139 190.825 227.656 166.402C232.14 132.63 232.14 98.4104 227.656 64.6385C224.138 40.215 195.96 13.7049 170.849 10.1057Z" fill="#925224"/>
<path d="M171.303 209.202C144.622 212.48 118.923 212.48 92.2406 209.202C66.8395 205.603 38.3319 179.093 34.7732 154.669C34.4057 151.933 34.0783 149.193 33.771 146.451C34.3059 153.114 35.0069 159.766 35.8879 166.401C39.4061 190.825 67.5859 217.335 92.6952 220.934C119.071 224.211 144.474 224.211 170.849 220.934C195.958 217.335 224.139 190.824 227.657 166.401C228.537 159.768 229.238 153.117 229.773 146.455C229.465 149.195 229.138 151.934 228.771 154.669C225.212 179.093 196.704 205.604 171.303 209.202Z" fill="#78441E"/>
<path d="M81.1646 168.224C81.1646 196.174 103.823 201.83 131.772 201.83C159.722 201.83 182.38 196.174 182.38 168.224C182.38 140.274 159.722 100.615 131.772 100.615C103.822 100.615 81.1646 140.274 81.1646 168.224Z" fill="#DD7D34"/>
<path d="M92.868 95.5906C103.638 95.5906 112.368 86.86 112.368 76.0902C112.368 65.3205 103.638 56.5898 92.868 56.5898C82.0983 56.5898 73.3677 65.3205 73.3677 76.0902C73.3677 86.86 82.0983 95.5906 92.868 95.5906Z" fill="white"/>
<path d="M92.868 89.223C100.121 89.223 106.001 83.3431 106.001 76.0899C106.001 68.8367 100.121 62.9568 92.868 62.9568C85.6148 62.9568 79.7349 68.8367 79.7349 76.0899C79.7349 83.3431 85.6148 89.223 92.868 89.223Z" fill="#31343B"/>
<path d="M87.9781 77.0117C90.3888 77.0117 92.343 75.0575 92.343 72.6469C92.343 70.2362 90.3888 68.282 87.9781 68.282C85.5675 68.282 83.6133 70.2362 83.6133 72.6469C83.6133 75.0575 85.5675 77.0117 87.9781 77.0117Z" fill="white"/>
<path d="M170.676 95.5903C181.446 95.5903 190.177 86.8597 190.177 76.09C190.177 65.3202 181.446 56.5896 170.676 56.5896C159.906 56.5896 151.176 65.3202 151.176 76.09C151.176 86.8597 159.906 95.5903 170.676 95.5903Z" fill="white"/>
<path d="M170.676 89.223C177.929 89.223 183.809 83.3431 183.809 76.0899C183.809 68.8367 177.929 62.9568 170.676 62.9568C163.423 62.9568 157.543 68.8367 157.543 76.0899C157.543 83.3431 163.423 89.223 170.676 89.223Z" fill="#31343B"/>
<path d="M165.786 77.0117C168.197 77.0117 170.151 75.0575 170.151 72.6469C170.151 70.2362 168.197 68.282 165.786 68.282C163.376 68.282 161.421 70.2362 161.421 72.6469C161.421 75.0575 163.376 77.0117 165.786 77.0117Z" fill="white"/>
<path d="M130.225 116.426V168.348C130.225 169.203 130.917 169.896 131.772 169.896C132.627 169.896 133.32 169.203 133.32 168.348V116.426C133.32 115.571 132.627 114.878 131.772 114.878C130.917 114.878 130.225 115.571 130.225 116.426Z" fill="#31343B"/>
<path d="M143.888 162.545C135.735 168.231 127.81 168.231 119.657 162.545C118.956 162.056 117.991 162.227 117.502 162.929C117.013 163.63 117.185 164.595 117.886 165.084C122.493 168.297 127.133 169.904 131.772 169.904C136.412 169.904 141.051 168.297 145.658 165.084C146.359 164.595 146.531 163.63 146.042 162.929C145.554 162.229 144.589 162.057 143.888 162.545Z" fill="#31343B"/>
<path d="M118.078 112.477C118.078 117.471 124.209 125.469 131.772 125.469C139.335 125.469 145.466 117.471 145.466 112.477C145.466 107.483 139.335 107.382 131.772 107.382C124.209 107.382 118.078 107.483 118.078 112.477Z" fill="#31343B"/>
<path d="M81.9075 115.93C90.9603 115.93 98.299 112.501 98.299 108.272C98.299 104.043 90.9603 100.615 81.9075 100.615C72.8548 100.615 65.5161 104.043 65.5161 108.272C65.5161 112.501 72.8548 115.93 81.9075 115.93Z" fill="#E68075"/>
<path d="M182.38 115.93C191.432 115.93 198.771 112.501 198.771 108.272C198.771 104.043 191.432 100.615 182.38 100.615C173.327 100.615 165.988 104.043 165.988 108.272C165.988 112.501 173.327 115.93 182.38 115.93Z" fill="#E68075"/>
<path d="M80.0044 41.6832C79.5088 42.5815 79.8354 43.7109 80.7336 44.2069C81.018 44.3637 81.3258 44.4386 81.629 44.4386C82.2838 44.4386 82.9185 44.0915 83.2574 43.4777C85.2086 39.9403 88.9699 37.8286 93.318 37.8286C96.8677 37.8286 100.252 39.238 102.601 41.6942C103.31 42.4354 104.486 42.4616 105.227 41.7528C105.969 41.0436 105.995 39.8682 105.286 39.1271C102.238 35.9408 97.8764 34.114 93.3175 34.114C87.5965 34.1136 82.6194 36.943 80.0044 41.6832Z" fill="#31343B"/>
<path d="M170.146 34.1138C165.588 34.1138 161.225 35.9406 158.178 39.1269C157.469 39.868 157.495 41.0433 158.236 41.7525C158.977 42.4605 160.153 42.4355 160.862 41.694C163.212 39.2378 166.596 37.8284 170.146 37.8284C174.494 37.8284 178.255 39.94 180.206 43.4774C180.545 44.0913 181.179 44.4383 181.835 44.4383C182.138 44.4383 182.446 44.3634 182.73 44.2067C183.628 43.7111 183.954 42.5816 183.459 41.6829C180.844 36.9432 175.867 34.1138 170.146 34.1138Z" fill="#31343B"/>
</svg>
