<svg width="276" height="237" viewBox="0 0 276 237" fill="none" xmlns="http://www.w3.org/2000/svg">
<path d="M244.579 146.559C244.489 131.039 241.02 116.391 234.949 103.151C243.47 80.9107 248.617 56.7127 247.266 33.2989C246.85 26.0746 245.814 18.9245 244.07 11.9303C213.707 6.85884 182.364 19.4073 159.045 40.055C150.162 37.7496 140.978 36.519 131.692 36.519C122.406 36.519 113.222 37.7496 104.339 40.055C85.8008 23.6402 62.1934 12.3451 38.0375 10.9514C31.8067 10.5919 25.5395 10.8905 19.3144 11.9303C17.5692 18.9245 16.5342 26.0746 16.1175 33.2989C14.7669 56.7127 19.9134 80.9102 28.435 103.151C22.3644 116.391 18.8949 131.039 18.8051 146.559C11.8638 150.462 5.53147 155.482 0.185059 161.374C6.08751 162.567 12.0797 163.72 17.8442 165.434C13.3274 170.522 10.2392 176.813 7.37111 183.096C11.6187 182.839 15.8747 183.021 20.0963 183.557C17.3524 189.171 16.1732 195.633 14.9194 201.804C20.2578 200.443 25.8678 199.654 31.501 199.502C55.0442 238.123 120.308 240.344 164.977 234.67C220.006 227.687 229.147 201.83 231.685 199.828C231.685 199.828 231.685 199.828 231.685 199.828C231.752 199.72 231.817 199.611 231.883 199.502C237.517 199.654 243.126 200.443 248.465 201.804C247.211 195.633 246.032 189.171 243.288 183.557C247.509 183.021 251.765 182.839 256.013 183.096C253.145 176.813 250.056 170.522 245.54 165.434C251.304 163.72 257.296 162.567 263.199 161.374C257.852 155.482 251.52 150.463 244.579 146.559Z" fill="#D3D1D0"/>
<path d="M31.7553 1.57911C30.0106 8.5738 28.9751 15.7234 28.5584 22.9482C26.7873 53.6462 36.179 85.6968 49.7125 112.909L129.192 42.3383C109.548 19.2761 80.4318 2.32836 50.4788 0.600238C44.2475 0.240725 37.9804 0.539306 31.7553 1.57911Z" fill="#F6AB35"/>
<path d="M46.0954 23.9596C45.0466 42.1394 48.5921 62.7658 56.2104 83.6474L103.655 41.521C87.5595 27.7187 68.1783 19.2169 49.4675 18.137C48.5151 18.0817 47.5566 18.0463 46.606 18.0302C46.3812 19.9832 46.2107 21.9617 46.0954 23.9596Z" fill="#FBCAAD"/>
<path d="M45.9237 189.119C54.0603 189.119 62.1855 190.477 69.5543 193.425L44.8339 130.273C32.5669 134.188 21.3015 141.462 12.6255 151.024C18.5279 152.217 24.5197 153.37 30.2847 155.083C25.7683 160.172 22.6796 166.463 19.8115 172.745C21.088 172.668 22.3683 172.63 23.6504 172.63C26.6097 172.63 29.5798 172.831 32.5367 173.206C29.7928 178.82 28.6137 185.283 27.3599 191.453C33.3242 189.932 39.6273 189.119 45.9237 189.119Z" fill="#F6AB35"/>
<path d="M237.787 0.600238C207.834 2.32836 178.718 19.2761 159.073 42.3383L238.553 112.909C252.087 85.6968 261.478 53.6462 259.707 22.9482C259.291 15.7234 258.255 8.5738 256.51 1.57911C250.285 0.539306 244.018 0.240725 237.787 0.600238Z" fill="#F6AB35"/>
<path d="M238.798 18.137C220.086 19.217 200.706 27.7187 184.61 41.521L232.055 83.6474C239.673 62.7658 243.219 42.1394 242.17 23.9596C242.055 21.9618 241.884 19.9832 241.66 18.0307C240.709 18.0463 239.75 18.0817 238.798 18.137Z" fill="#FBCAAD"/>
<path d="M31.8469 148.269C36.6897 193.894 56.7644 226.22 144.132 226.22C231.5 226.22 251.575 193.895 256.418 148.269C263.601 80.5928 206.109 26.1678 144.132 26.1678C82.1561 26.1678 24.6637 80.5928 31.8469 148.269Z" fill="#F6AB35"/>
<path d="M44.1389 189.476C58.15 212.15 86.4963 226.221 144.132 226.221C201.768 226.221 230.115 212.15 244.126 189.476C226.31 205.225 195.963 214.585 144.132 214.585C92.3015 214.585 61.9549 205.225 44.1389 189.476Z" fill="#E6A030"/>
<path d="M243.431 130.273L218.71 193.424C226.079 190.477 234.205 189.118 242.341 189.118C248.638 189.118 254.941 189.932 260.905 191.452C259.652 185.282 258.472 178.819 255.728 173.206C258.685 172.83 261.655 172.63 264.614 172.63C265.897 172.63 267.177 172.667 268.453 172.745C265.585 166.462 262.497 160.171 257.98 155.083C263.745 153.37 269.737 152.216 275.639 151.023C266.964 141.462 255.698 134.188 243.431 130.273Z" fill="#F6AB35"/>
<path d="M103.035 112.908C114.329 112.908 123.485 103.753 123.485 92.4586C123.485 81.1645 114.329 72.0089 103.035 72.0089C91.7411 72.0089 82.5854 81.1645 82.5854 92.4586C82.5854 103.753 91.7411 112.908 103.035 112.908Z" fill="white"/>
<path d="M103.035 106.232C110.642 106.232 116.808 100.065 116.808 92.4588C116.808 84.8521 110.642 78.6858 103.035 78.6858C95.4289 78.6858 89.2625 84.8521 89.2625 92.4588C89.2625 100.065 95.4289 106.232 103.035 106.232Z" fill="#31343B"/>
<path d="M97.9069 93.4256C100.435 93.4256 102.484 91.3763 102.484 88.8483C102.484 86.3204 100.435 84.2711 97.9069 84.2711C95.379 84.2711 93.3296 86.3204 93.3296 88.8483C93.3296 91.3763 95.379 93.4256 97.9069 93.4256Z" fill="white"/>
<path d="M185.23 112.908C196.524 112.908 205.68 103.753 205.68 92.4587C205.68 81.1646 196.524 72.009 185.23 72.009C173.936 72.009 164.781 81.1646 164.781 92.4587C164.781 103.753 173.936 112.908 185.23 112.908Z" fill="white"/>
<path d="M185.23 106.232C192.837 106.232 199.003 100.065 199.003 92.4588C199.003 84.8521 192.837 78.6858 185.23 78.6858C177.624 78.6858 171.457 84.8521 171.457 92.4588C171.457 100.065 177.624 106.232 185.23 106.232Z" fill="#31343B"/>
<path d="M180.102 93.4256C182.63 93.4256 184.68 91.3763 184.68 88.8483C184.68 86.3204 182.63 84.2711 180.102 84.2711C177.574 84.2711 175.525 86.3204 175.525 88.8483C175.525 91.3763 177.574 93.4256 180.102 93.4256Z" fill="white"/>
<path d="M126.975 130.136C126.975 136.327 134.575 146.241 143.95 146.241C153.325 146.241 160.925 136.327 160.925 130.136C160.925 123.945 153.325 123.82 143.95 123.82C134.575 123.82 126.975 123.945 126.975 130.136Z" fill="#31343B"/>
<path d="M104.618 60.787C99.791 60.787 95.0058 62.2053 91.1438 64.78C90.3978 65.277 90.1961 66.2851 90.6935 67.0306C91.191 67.7756 92.1973 67.9778 92.9442 67.4808C96.279 65.2571 100.424 64.0331 104.618 64.0331C110.364 64.0331 115.253 66.3711 118.034 70.4481C118.348 70.9092 118.857 71.1568 119.376 71.1568C119.691 71.1568 120.009 71.0656 120.289 70.8747C121.03 70.3702 121.221 69.3602 120.716 68.6194C117.322 63.6419 111.454 60.787 104.618 60.787Z" fill="#31343B"/>
<path d="M188.454 60.7869C181.618 60.7869 175.751 63.6418 172.357 68.6197C171.852 69.3605 172.044 70.37 172.784 70.875C173.064 71.0659 173.382 71.1571 173.697 71.1571C174.215 71.1571 174.725 70.9091 175.039 70.4485C177.819 66.3719 182.709 64.0334 188.455 64.0334C192.648 64.0334 196.793 65.258 200.129 67.4812C200.874 67.9786 201.882 67.7764 202.379 67.031C202.877 66.2855 202.675 65.2773 201.929 64.7803C198.067 62.2051 193.281 60.7869 188.454 60.7869Z" fill="#31343B"/>
<path d="M55.5636 133.877C55.0293 133.937 54.6438 134.418 54.7033 134.953C54.7624 135.487 55.2419 135.867 55.7786 135.813C60.4669 135.292 64.6511 135.039 68.5704 135.039C83.5925 135.039 94.4761 138.799 101.843 146.534C102.034 146.735 102.291 146.836 102.548 146.836C102.789 146.836 103.031 146.747 103.22 146.568C103.609 146.197 103.624 145.58 103.253 145.191C95.499 137.049 84.1542 133.091 68.5704 133.091C64.5784 133.092 60.3238 133.349 55.5636 133.877Z" fill="#31343B"/>
<path d="M89.1739 153.285C79.5006 153.285 70.2727 157.073 62.3823 160.623C61.892 160.844 61.6733 161.421 61.8943 161.911C62.0569 162.272 62.4112 162.486 62.783 162.486C62.9162 162.486 63.0522 162.458 63.1822 162.4C70.8878 158.932 79.8866 155.232 89.1744 155.232C93.0223 155.232 96.6004 155.853 100.114 157.131C100.618 157.313 101.178 157.053 101.362 156.548C101.546 156.042 101.285 155.484 100.779 155.3C97.1007 153.963 93.1957 153.285 89.1739 153.285Z" fill="#31343B"/>
<path d="M71.6023 178.573C71.2073 178.939 71.1823 179.555 71.5475 179.95C71.7393 180.158 72.001 180.263 72.2632 180.263C72.4994 180.263 72.7361 180.178 72.9237 180.005C80.6104 172.91 91.2386 168.338 101.355 167.777C101.892 167.747 102.303 167.288 102.273 166.751C102.243 166.213 101.776 165.818 101.247 165.832C90.5356 166.426 79.7308 171.07 71.6023 178.573Z" fill="#31343B"/>
<path d="M219.695 133.091C204.111 133.091 192.766 137.049 185.012 145.191C184.641 145.58 184.656 146.197 185.045 146.568C185.234 146.747 185.476 146.837 185.717 146.837C185.974 146.837 186.231 146.735 186.422 146.534C193.789 138.799 204.673 135.039 219.695 135.039C223.614 135.039 227.798 135.293 232.486 135.814C233.015 135.874 233.503 135.488 233.562 134.953C233.621 134.418 233.236 133.937 232.701 133.878C227.941 133.349 223.687 133.091 219.695 133.091Z" fill="#31343B"/>
<path d="M199.091 153.285C195.069 153.285 191.165 153.963 187.486 155.3C186.981 155.483 186.719 156.042 186.904 156.548C187.087 157.054 187.647 157.313 188.151 157.13C191.665 155.853 195.243 155.232 199.091 155.232C208.379 155.232 217.378 158.932 225.083 162.4C225.213 162.458 225.349 162.485 225.483 162.485C225.854 162.485 226.209 162.272 226.371 161.911C226.592 161.421 226.374 160.843 225.883 160.623C217.992 157.073 208.764 153.285 199.091 153.285Z" fill="#31343B"/>
<path d="M185.992 166.75C185.962 167.287 186.373 167.747 186.91 167.777C197.026 168.338 207.654 172.91 215.341 180.005C215.529 180.177 215.765 180.263 216.001 180.263C216.264 180.263 216.525 180.158 216.717 179.95C217.082 179.555 217.057 178.938 216.662 178.573C208.534 171.07 197.729 166.426 187.018 165.831C186.493 165.819 186.022 166.213 185.992 166.75Z" fill="#31343B"/>
<path d="M100.4 126.304C107.343 126.304 112.971 123.675 112.971 120.431C112.971 117.188 107.343 114.558 100.4 114.558C93.4572 114.558 87.8289 117.188 87.8289 120.431C87.8289 123.675 93.4572 126.304 100.4 126.304Z" fill="#E68075"/>
<path d="M187.819 126.304C194.762 126.304 200.39 123.675 200.39 120.431C200.39 117.188 194.762 114.558 187.819 114.558C180.876 114.558 175.248 117.188 175.248 120.431C175.248 123.675 180.876 126.304 187.819 126.304Z" fill="#E68075"/>
<path d="M142.328 129.526V156.33C141.884 157.334 139.795 161.334 134.65 161.334C128.968 161.334 127.51 156.153 127.452 155.94C127.228 155.071 126.342 154.548 125.476 154.773C124.607 154.996 124.085 155.881 124.308 156.749C125.005 159.457 128.064 164.58 134.65 164.58C142.772 164.58 145.374 157.489 145.481 157.187C145.542 157.013 145.574 156.83 145.574 156.646V129.526C145.574 128.63 144.848 127.903 143.951 127.903C143.054 127.903 142.328 128.629 142.328 129.526Z" fill="#31343B"/>
<path d="M143.951 127.902C143.054 127.902 142.327 128.629 142.327 129.525V156.645C142.327 156.83 142.359 157.012 142.42 157.186C142.527 157.488 145.129 164.579 153.251 164.579C159.837 164.579 162.896 159.456 163.593 156.748C163.815 155.883 163.296 155.005 162.433 154.778C161.571 154.551 160.683 155.068 160.451 155.931C160.392 156.151 158.934 161.332 153.251 161.332C148.093 161.332 146.019 157.347 145.574 156.33V129.524C145.574 128.629 144.847 127.902 143.951 127.902Z" fill="#31343B"/>
</svg>
