<svg width="312" height="221" viewBox="0 0 312 221" fill="none" xmlns="http://www.w3.org/2000/svg">
<path d="M299.178 170.286C288.07 150.283 275.296 131.788 259.987 116.459C259.984 116.457 259.982 116.454 259.98 116.451C259.424 115.793 258.844 115.126 258.244 114.454C257.525 112.148 256.715 109.871 255.824 107.627C273.276 89.9144 282.392 65.4732 282.392 41.3106C282.392 30.7406 280.649 20.225 277.1 10.3518C252.167 21.0531 227.718 34.7695 208.127 52.5174C171.141 29.6706 129.357 28.2226 89.9839 52.644C70.3694 34.8342 45.863 21.0791 20.8704 10.3523C9.20578 42.7997 17.0253 82.3287 42.3841 107.866C41.2743 110.682 40.2964 113.548 39.4593 116.461C24.1542 131.789 11.3865 150.287 0.280762 170.287C10.5914 169.521 21.0636 169.918 31.4503 171.434L13.8317 197.143C43.1909 208.162 78.0893 214.068 105.093 217.207C119.767 219.872 135.453 220.718 150.307 220.666L150.304 220.673C154.126 220.525 171.571 220.874 191.103 217.578C218.514 214.541 255.07 208.611 285.626 197.143L268.008 171.434C278.395 169.917 288.867 169.52 299.178 170.286Z" fill="#D3D1D0"/>
<path d="M28.0198 30.9588C28.0198 60.3147 41.4626 90.091 66.9824 107.699L117.968 58.6069C96.8069 32.6024 65.4598 13.7981 33.3123 0C29.763 9.87364 28.0198 20.3888 28.0198 30.9588Z" fill="#F6AB35"/>
<path d="M45.1211 34.5492C45.1211 47.3339 48.077 60.1002 53.6696 71.4667C57.817 79.8966 63.3779 87.4199 70.0121 93.638L103.376 61.5137C89.0885 46.9871 69.886 33.833 46.048 22.2435C45.4315 26.2615 45.1211 30.3716 45.1211 34.5492Z" fill="#F5C67B"/>
<path d="M204.886 58.6074L255.871 107.7C281.39 90.0915 294.834 60.3152 294.834 30.9593C294.834 20.3893 293.091 9.87365 289.542 0.000488281C257.394 13.7981 226.047 32.6029 204.886 58.6074Z" fill="#F6AB35"/>
<path d="M252.842 93.6379C259.476 87.4199 265.037 79.8966 269.184 71.4667C274.776 60.1002 277.733 47.3339 277.733 34.5492C277.733 30.3711 277.422 26.2615 276.806 22.243C252.967 33.8325 233.765 46.9867 219.478 61.5132L252.842 93.6379Z" fill="#F5C67B"/>
<path d="M311.619 159.935C300.512 139.932 287.737 121.437 272.429 106.108C271.912 106.055 199.246 98.7411 162.171 144.417C124.965 98.5781 51.9017 106.109 51.9017 106.109C36.5966 121.437 23.8289 139.935 12.7231 159.935C23.0338 159.169 33.506 159.566 43.8927 161.082L26.2741 186.791C55.6333 197.81 90.5316 203.716 117.535 206.855C130.038 209.126 144.62 210.32 161.597 210.32C161.985 210.32 162.364 210.316 162.749 210.314L162.746 210.32C162.746 210.32 162.834 210.318 162.996 210.313C178.433 210.252 191.873 209.195 203.545 207.225C230.956 204.189 267.512 198.259 298.068 186.791L280.45 161.082C290.836 159.566 301.308 159.169 311.619 159.935Z" fill="#F5C67B"/>
<path d="M161.596 24.4426C114.983 24.4426 65.316 59.4265 51.9011 106.108C51.9011 106.108 124.965 98.5776 162.171 144.417C199.245 98.7406 271.912 106.055 272.429 106.108C271.89 105.568 271.355 105.022 270.81 104.49C256.725 58.6205 207.669 24.4426 161.596 24.4426Z" fill="#F6AB35"/>
<path d="M115.28 71.2214C90.3569 71.2214 64.8431 90.7542 51.9011 106.108L153.957 139.584C153.811 139.514 156.371 71.2214 115.28 71.2214Z" fill="#F5C67B"/>
<path d="M272.428 106.108C259.486 90.7542 233.972 71.2214 209.05 71.2214C167.959 71.2214 170.519 139.514 170.372 139.584L272.428 106.108Z" fill="#F5C67B"/>
<path d="M141.851 141.617C141.851 148.757 150.615 160.19 161.427 160.19C172.239 160.19 181.003 148.757 181.003 141.617C181.003 134.478 172.239 134.335 161.427 134.335C150.615 134.335 141.851 134.478 141.851 141.617Z" fill="#31343B"/>
<path d="M160.548 143.061V167.861C159.946 168.907 157.427 172.499 151.259 172.499C144.321 172.499 142.58 167.67 142.514 167.477C142.237 166.625 141.319 166.158 140.469 166.435C139.616 166.712 139.15 167.628 139.426 168.481C139.523 168.778 141.894 175.746 151.259 175.746C160.498 175.746 163.529 169.201 163.653 168.922C163.746 168.714 163.794 168.488 163.794 168.26V143.062C163.794 142.166 163.067 141.439 162.171 141.439C161.274 141.439 160.548 142.165 160.548 143.061Z" fill="#31343B"/>
<path d="M162.172 141.439C161.275 141.439 160.548 142.166 160.548 143.062V168.26C160.548 168.488 160.597 168.714 160.69 168.922C160.814 169.201 163.845 175.746 173.084 175.746C182.448 175.746 184.82 168.778 184.916 168.481C185.191 167.634 184.73 166.73 183.885 166.447C183.039 166.162 182.123 166.623 181.833 167.465C181.762 167.671 180.022 172.5 173.084 172.5C166.903 172.5 164.387 168.893 163.795 167.863V143.061C163.794 142.166 163.068 141.439 162.172 141.439Z" fill="#31343B"/>
<path d="M115.778 132.39C126.272 132.39 134.779 123.884 134.779 113.39C134.779 102.896 126.272 94.3888 115.778 94.3888C105.284 94.3888 96.7769 102.896 96.7769 113.39C96.7769 123.884 105.284 132.39 115.778 132.39Z" fill="white"/>
<path d="M115.777 126.187C122.845 126.187 128.574 120.457 128.574 113.39C128.574 106.322 122.845 100.593 115.777 100.593C108.71 100.593 102.98 106.322 102.98 113.39C102.98 120.457 108.71 126.187 115.777 126.187Z" fill="#31343B"/>
<path d="M111.013 114.288C113.362 114.288 115.266 112.383 115.266 110.034C115.266 107.685 113.362 105.781 111.013 105.781C108.664 105.781 106.76 107.685 106.76 110.034C106.76 112.383 108.664 114.288 111.013 114.288Z" fill="white"/>
<path d="M208.565 132.391C219.059 132.391 227.566 123.884 227.566 113.39C227.566 102.896 219.059 94.3889 208.565 94.3889C198.071 94.3889 189.564 102.896 189.564 113.39C189.564 123.884 198.071 132.391 208.565 132.391Z" fill="white"/>
<path d="M208.565 126.187C215.632 126.187 221.362 120.457 221.362 113.39C221.362 106.322 215.632 100.593 208.565 100.593C201.497 100.593 195.768 106.322 195.768 113.39C195.768 120.457 201.497 126.187 208.565 126.187Z" fill="#31343B"/>
<path d="M203.8 114.288C206.149 114.288 208.054 112.384 208.054 110.035C208.054 107.686 206.149 105.781 203.8 105.781C201.451 105.781 199.547 107.686 199.547 110.035C199.547 112.384 201.451 114.288 203.8 114.288Z" fill="white"/>
<path d="M91.2187 142.087C87.5201 142.087 83.5739 142.262 79.1544 142.621C78.6182 142.665 78.2195 143.135 78.2625 143.67C78.3064 144.207 78.7713 144.594 79.3122 144.562C83.6788 144.207 87.573 144.035 91.2187 144.035C105.214 144.035 115.347 146.592 122.195 151.853C122.373 151.988 122.581 152.054 122.788 152.054C123.08 152.054 123.369 151.923 123.561 151.674C123.889 151.248 123.808 150.636 123.382 150.308C116.181 144.777 105.659 142.087 91.2187 142.087Z" fill="#31343B"/>
<path d="M110.363 155.815C101.41 155.815 92.8539 158.386 85.5366 160.794C85.0259 160.962 84.7481 161.513 84.9163 162.023C85.0514 162.433 85.4322 162.693 85.8408 162.693C85.9419 162.693 86.0449 162.677 86.146 162.644C93.3198 160.282 101.699 157.763 110.364 157.763C113.962 157.763 117.306 158.187 120.587 159.06C121.106 159.202 121.641 158.889 121.779 158.37C121.917 157.85 121.608 157.317 121.088 157.178C117.689 156.273 114.08 155.815 110.363 155.815Z" fill="#31343B"/>
<path d="M94.1056 172.997C93.6596 173.298 93.5424 173.904 93.8434 174.35C94.0319 174.628 94.3385 174.778 94.6513 174.778C94.8383 174.778 95.0283 174.724 95.195 174.611C102.343 169.783 112.24 166.673 121.67 166.29C122.207 166.267 122.625 165.814 122.603 165.277C122.581 164.74 122.131 164.308 121.59 164.343C111.669 164.747 101.652 167.901 94.1056 172.997Z" fill="#31343B"/>
<path d="M231.635 142.087C217.195 142.087 206.674 144.777 199.472 150.309C199.045 150.637 198.965 151.247 199.293 151.675C199.485 151.924 199.773 152.055 200.066 152.055C200.273 152.055 200.482 151.989 200.658 151.853C207.507 146.593 217.64 144.035 231.635 144.035C235.28 144.035 239.175 144.207 243.542 144.563C244.082 144.594 244.547 144.207 244.591 143.671C244.635 143.135 244.236 142.665 243.699 142.621C239.28 142.262 235.334 142.087 231.635 142.087Z" fill="#31343B"/>
<path d="M212.492 155.815C208.774 155.815 205.166 156.273 201.768 157.178C201.248 157.316 200.939 157.849 201.077 158.369C201.216 158.889 201.747 159.199 202.269 159.06C205.549 158.186 208.893 157.762 212.492 157.762C221.157 157.762 229.535 160.282 236.709 162.643C236.81 162.676 236.913 162.692 237.014 162.692C237.424 162.692 237.804 162.433 237.939 162.023C238.107 161.512 237.829 160.961 237.319 160.793C230.001 158.385 221.444 155.815 212.492 155.815Z" fill="#31343B"/>
<path d="M201.264 164.343C200.723 164.312 200.273 164.74 200.251 165.277C200.23 165.814 200.647 166.267 201.185 166.29C210.614 166.673 220.511 169.783 227.659 174.611C227.827 174.724 228.016 174.778 228.203 174.778C228.516 174.778 228.823 174.628 229.011 174.35C229.312 173.904 229.194 173.298 228.749 172.997C221.203 167.9 211.185 164.747 201.264 164.343Z" fill="#31343B"/>
<path d="M209.271 141.851C215.51 141.851 220.567 140.004 220.567 137.726C220.567 135.448 215.51 133.601 209.271 133.601C203.033 133.601 197.976 135.448 197.976 137.726C197.976 140.004 203.033 141.851 209.271 141.851Z" fill="#E68075"/>
<path d="M117.279 141.851C123.517 141.851 128.575 140.004 128.575 137.726C128.575 135.448 123.517 133.601 117.279 133.601C111.041 133.601 105.983 135.448 105.983 137.726C105.983 140.004 111.041 141.851 117.279 141.851Z" fill="#E68075"/>
</svg>
