<svg width="198" height="267" viewBox="0 0 198 267" fill="none" xmlns="http://www.w3.org/2000/svg">
<path d="M181.972 51.5178C188.907 42.1861 163.868 40.657 159.583 40.6069C149.635 40.4906 139.42 42.9247 131.458 49.1157C124.417 41.5912 115.497 36.0803 104.227 33.7201L108.441 18.5271C116.381 20.4113 119.98 8.63893 112.389 5.71077C104.43 2.64012 99.5225 14.8645 107.38 18.187C104.927 23.0121 103.307 28.0998 102.454 33.3774C95.2142 32.1012 87.6608 32.1012 80.4213 33.3774C79.5675 28.0994 77.9483 23.0121 75.4949 18.187C83.3502 14.8657 78.4732 2.71059 70.4858 5.71077C62.8604 8.57501 66.506 20.4086 74.4336 18.5271L78.648 33.7201C67.3778 36.0803 58.4581 41.5912 51.4165 49.1157C44.4878 43.7276 35.7945 41.1637 27.1144 40.687C22.3344 40.4244 17.5212 40.7671 12.8117 41.6162C9.27241 42.2543 2.426 42.7814 0.532555 46.3681C-2.63513 52.3681 9.1923 60.5491 13.2576 63.3772C20.2692 68.2554 28.3055 71.5814 36.597 73.5503C28.9647 92.8706 26.5064 115.699 26.0312 134.349C1.63083 154.328 7.72974 194.164 36.9186 206.005C35.9674 226.337 35.0159 246.668 34.0647 267C64.4796 267 94.8942 267 125.309 267C133.104 267 140.899 267 148.694 267C147.744 246.684 146.793 226.369 145.843 206.053C162.216 199.466 174.048 181.932 172.258 164.031C171.434 152.11 165.594 141.513 156.845 134.349C156.37 115.699 153.911 92.871 146.279 73.5507C160.404 70.1966 173.477 62.9493 181.972 51.5178Z" fill="#D3D1D0"/>
<path d="M106.336 143.842L106.288 143.822V143.861L53.5369 165.235L49.0218 261.744H106.288H106.385H163.651L159.136 165.235L106.385 143.861V143.822L106.336 143.842Z" fill="#F3B953"/>
<path d="M50.1132 238.414C54.0345 234.451 57.1625 230.84 61.5937 230.84C65.029 230.84 68.7797 232.369 72.4183 232.369C76.5056 232.369 80.8605 230.028 80.8605 225.407C80.8605 222.475 66.2062 207.88 51.8923 200.385L50.1132 238.414Z" fill="#85652C"/>
<path d="M120.68 225.625C120.68 227.286 123.654 229.763 127.726 229.763C130.712 229.763 133.889 228.77 136.904 228.77C142.757 228.77 142.681 243.888 159.486 243.888C160.583 243.888 161.692 243.808 162.805 243.66L161.043 206.002C140.871 219.119 120.68 217.921 120.68 225.625Z" fill="#85652C"/>
<path d="M94.5757 37.517H97.6563C97.6563 26.6165 94.9068 16.7157 89.4848 8.08984L86.8767 9.72952C91.9852 17.8563 94.5757 27.2053 94.5757 37.517Z" fill="#B58C3E"/>
<path d="M87.8334 13.4602C91.5503 13.4602 94.5635 10.447 94.5635 6.73007C94.5635 3.01315 91.5503 0 87.8334 0C84.1165 0 81.1033 3.01315 81.1033 6.73007C81.1033 10.447 84.1165 13.4602 87.8334 13.4602Z" fill="#B58C3E"/>
<path d="M118.214 37.517C118.214 27.2057 120.805 17.8563 125.913 9.72952L123.305 8.08984C117.883 16.7157 115.134 26.6165 115.134 37.517H118.214Z" fill="#B58C3E"/>
<path d="M124.957 13.4602C128.674 13.4602 131.687 10.447 131.687 6.73007C131.687 3.01315 128.674 0 124.957 0C121.24 0 118.227 3.01315 118.227 6.73007C118.227 10.447 121.24 13.4602 124.957 13.4602Z" fill="#B58C3E"/>
<path d="M38.9472 35.3438C31.9753 35.3438 24.8671 36.5837 18.2352 38.7945C15.1203 39.8327 13.9014 43.6272 15.86 46.2627C28.0671 62.6896 49.7272 70.4863 70.3787 70.4863C74.7872 70.4863 79.1494 70.1313 83.3645 69.4285L76.9756 57.2988C69.6667 41.6368 54.6536 35.3438 38.9472 35.3438Z" fill="#F3B953"/>
<path d="M173.843 35.3435C158.137 35.3435 143.124 41.6365 135.815 57.2986L129.426 69.4283C133.641 70.131 138.003 70.4861 142.411 70.4861C163.063 70.4861 184.723 62.6893 196.93 46.2625C198.888 43.627 197.67 39.8328 194.555 38.7942C187.923 36.5835 180.815 35.3435 173.843 35.3435Z" fill="#F3B953"/>
<path d="M38.9473 45.126C37.5506 45.126 36.1328 45.1864 34.7037 45.3054C32.404 45.4972 31.5764 48.4743 33.461 49.8063C42.5971 56.2618 54.7291 60.1858 67.7337 60.6563C65.1875 55.5852 61.4153 51.6936 56.5124 49.0823C51.6527 46.4942 45.5784 45.126 38.9473 45.126Z" fill="#B58C3E"/>
<path d="M173.843 45.126C167.212 45.126 161.138 46.4942 156.278 49.0823C151.375 51.6932 147.603 55.5848 145.057 60.6563C158.061 60.1858 170.193 56.2614 179.329 49.8066C181.214 48.475 180.386 45.4976 178.087 45.3058C176.657 45.1864 175.24 45.126 173.843 45.126Z" fill="#B58C3E"/>
<path d="M42.3602 165.235L106.395 203.813L170.43 165.235C170.43 165.235 187.318 27.1902 106.395 27.1902C25.4721 27.1902 42.3602 165.235 42.3602 165.235Z" fill="#F3B953"/>
<path d="M73.6739 107.228C81.4091 107.228 87.6797 100.958 87.6797 93.2226C87.6797 85.4874 81.4091 79.2168 73.6739 79.2168C65.9387 79.2168 59.6681 85.4874 59.6681 93.2226C59.6681 100.958 65.9387 107.228 73.6739 107.228Z" fill="white"/>
<path d="M73.6741 102.655C78.8838 102.655 83.1071 98.4322 83.1071 93.2225C83.1071 88.0128 78.8838 83.7896 73.6741 83.7896C68.4644 83.7896 64.2411 88.0128 64.2411 93.2225C64.2411 98.4322 68.4644 102.655 73.6741 102.655Z" fill="#31343B"/>
<path d="M70.1617 93.8847C71.8931 93.8847 73.2967 92.4811 73.2967 90.7497C73.2967 89.0183 71.8931 87.6147 70.1617 87.6147C68.4304 87.6147 67.0268 89.0183 67.0268 90.7497C67.0268 92.4811 68.4304 93.8847 70.1617 93.8847Z" fill="white"/>
<path d="M138.941 107.228C146.677 107.228 152.947 100.958 152.947 93.2226C152.947 85.4874 146.677 79.2168 138.941 79.2168C131.206 79.2168 124.936 85.4874 124.936 93.2226C124.936 100.958 131.206 107.228 138.941 107.228Z" fill="white"/>
<path d="M138.942 102.655C144.151 102.655 148.374 98.4322 148.374 93.2225C148.374 88.0128 144.151 83.7896 138.942 83.7896C133.732 83.7896 129.509 88.0128 129.509 93.2225C129.509 98.4322 133.732 102.655 138.942 102.655Z" fill="#31343B"/>
<path d="M135.429 93.8847C137.16 93.8847 138.564 92.4811 138.564 90.7497C138.564 89.0183 137.16 87.6147 135.429 87.6147C133.698 87.6147 132.294 89.0183 132.294 90.7497C132.294 92.4811 133.698 93.8847 135.429 93.8847Z" fill="white"/>
<path d="M67.5984 119.561C44.4288 119.561 25.472 138.517 25.472 161.687C25.472 184.857 44.4288 203.814 67.5984 203.814H145.192C168.361 203.814 187.318 184.857 187.318 161.687C187.318 138.517 168.361 119.561 145.192 119.561H67.5984Z" fill="#FDDF8C"/>
<path d="M145.192 197.989H67.5984C45.4077 197.989 27.0839 180.599 25.5752 158.775C25.5085 159.738 25.472 160.709 25.472 161.687C25.472 184.857 44.4288 203.813 67.5984 203.813H145.192C168.361 203.813 187.318 184.857 187.318 161.687C187.318 160.708 187.281 159.738 187.215 158.775C185.706 180.599 167.382 197.989 145.192 197.989Z" fill="#F2D686"/>
<path d="M84.474 128.285C89.2925 128.285 93.1988 124.379 93.1988 119.561C93.1988 114.742 89.2925 110.836 84.474 110.836C79.6554 110.836 75.7492 114.742 75.7492 119.561C75.7492 124.379 79.6554 128.285 84.474 128.285Z" fill="#FDDF8C"/>
<path d="M84.474 123.619C86.7156 123.619 88.5328 121.802 88.5328 119.561C88.5328 117.319 86.7156 115.502 84.474 115.502C82.2324 115.502 80.4152 117.319 80.4152 119.561C80.4152 121.802 82.2324 123.619 84.474 123.619Z" fill="#BFA96A"/>
<path d="M128.316 128.285C133.135 128.285 137.041 124.379 137.041 119.561C137.041 114.742 133.135 110.836 128.316 110.836C123.498 110.836 119.591 114.742 119.591 119.561C119.591 124.379 123.498 128.285 128.316 128.285Z" fill="#FDDF8C"/>
<path d="M128.316 123.619C130.558 123.619 132.375 121.802 132.375 119.561C132.375 117.319 130.558 115.502 128.316 115.502C126.074 115.502 124.257 117.319 124.257 119.561C124.257 121.802 126.074 123.619 128.316 123.619Z" fill="#BFA96A"/>
<path d="M63.053 72.2548C62.6491 72.6002 62.6017 73.2083 62.9475 73.6118C63.1377 73.8344 63.4077 73.9488 63.6792 73.9488C63.9006 73.9488 64.1232 73.8729 64.3045 73.7177C67.0529 71.3672 70.8089 70.019 74.6105 70.019C77.8617 70.019 80.8565 71.0514 83.043 72.9252C83.4469 73.2706 84.0546 73.2244 84.4004 72.8209C84.7462 72.4173 84.6992 71.8097 84.296 71.4635C81.7607 69.2904 78.3207 68.094 74.6105 68.094C70.3569 68.0936 66.1445 69.6101 63.053 72.2548Z" fill="#31343B"/>
<path d="M128.32 71.4635C127.916 71.8093 127.869 72.4173 128.215 72.8205C128.562 73.2249 129.17 73.2711 129.573 72.9249C131.759 71.0511 134.754 70.0187 138.005 70.0187C141.806 70.0187 145.563 71.3668 148.311 73.7174C148.492 73.8722 148.715 73.9484 148.936 73.9484C149.208 73.9484 149.478 73.8341 149.668 73.6115C150.013 73.2075 149.966 72.5999 149.562 72.2545C146.471 69.6101 142.259 68.0933 138.005 68.0933C134.295 68.0936 130.855 69.2901 128.32 71.4635Z" fill="#31343B"/>
<path d="M148.002 117.801C153.212 117.801 157.435 115.828 157.435 113.395C157.435 110.961 153.212 108.988 148.002 108.988C142.792 108.988 138.569 110.961 138.569 113.395C138.569 115.828 142.792 117.801 148.002 117.801Z" fill="#E68075"/>
<path d="M64.7882 117.801C69.9979 117.801 74.2212 115.828 74.2212 113.395C74.2212 110.961 69.9979 108.988 64.7882 108.988C59.5785 108.988 55.3552 110.961 55.3552 113.395C55.3552 115.828 59.5785 117.801 64.7882 117.801Z" fill="#E68075"/>
<path d="M139.293 156.459C117.464 164.329 95.327 164.329 73.4967 156.459C72.9969 156.28 72.4451 156.539 72.2649 157.039C72.0843 157.539 72.3438 158.09 72.844 158.271C83.9752 162.284 95.1853 164.29 106.395 164.29C117.605 164.29 128.815 162.284 139.946 158.271C140.447 158.09 140.706 157.539 140.526 157.039C140.345 156.538 139.794 156.279 139.293 156.459Z" fill="#31343B"/>
</svg>
