<svg width="366" height="274" viewBox="0 0 366 274" fill="none" xmlns="http://www.w3.org/2000/svg">
<path d="M244.279 94.5963C244.676 93.9571 245.078 93.3217 245.488 92.691C245.514 92.6504 245.542 92.6107 245.568 92.5701C245.952 91.9795 246.342 91.3928 246.737 90.8098C246.88 90.5996 247.026 90.3917 247.17 90.1824C247.454 89.77 247.738 89.3581 248.027 88.9499C248.196 88.7113 248.368 88.4746 248.538 88.2374C248.81 87.8609 249.082 87.4858 249.358 87.1131C249.538 86.8688 249.72 86.6256 249.903 86.3828C250.177 86.0185 250.453 85.6566 250.732 85.2962C250.917 85.0557 251.104 84.8157 251.291 84.5771C251.578 84.2119 251.868 83.8501 252.16 83.4887C252.342 83.2638 252.523 83.0375 252.707 82.8136C253.029 82.422 253.355 82.0341 253.683 81.6476C253.84 81.461 253.996 81.2725 254.155 81.0874C254.644 80.5186 255.137 79.9545 255.637 79.397C279.304 106.491 310.179 147.426 334.198 147.426C339.81 147.426 352.982 135.736 352.982 107.523C352.982 59.8869 313.782 10.6165 272.518 10.6165C241.773 10.6165 222.926 42.6936 210.302 73.8621C199.803 69.8716 188.406 67.6786 176.491 67.6786C164.576 67.6786 153.179 69.8716 142.68 73.8621C130.055 42.6936 111.208 10.6165 80.4635 10.6165C39.1988 10.6165 0 59.8869 0 107.523C0 135.736 13.1716 147.426 18.784 147.426C42.8025 147.426 73.6776 106.49 97.3446 79.397C101.605 84.1439 105.612 89.523 109.271 95.5289C90.8214 114.043 80.644 139.5 82.1194 166.563C80.6686 168.545 79.3481 170.579 78.1543 172.659C70.0938 171.686 61.7112 173.107 54.0182 175.672C60.6326 179.967 67.0042 184.72 71.4128 191.02C71.2177 192.144 71.0699 193.277 70.9485 194.416C64.6123 199.096 59.8994 205.449 56.3752 212.19C61.7343 212.107 66.9688 212.846 71.6543 214.21C68.7621 219.594 67.008 225.564 67.008 231.639C67.008 232.841 67.0765 234.048 67.2192 235.256C71.3973 233.342 75.8357 231.854 80.3974 230.845C97.1911 256.071 133.9 273.572 176.491 273.572C219.081 273.572 255.79 256.071 272.584 230.845C277.145 231.854 281.584 233.343 285.762 235.256C286.618 227.993 284.815 220.704 281.327 214.21C286.013 212.846 291.247 212.107 296.606 212.19C293.082 205.449 288.369 199.096 282.033 194.416C281.912 193.277 281.764 192.144 281.568 191.02C285.977 184.72 292.349 179.967 298.963 175.672C292.862 173.638 286.382 172.348 280.033 172.348C278.284 172.348 276.546 172.452 274.827 172.659C273.634 170.58 272.314 168.545 270.862 166.564C270.955 164.861 271.006 163.147 271.006 161.42C271.006 135.732 260.585 112.461 243.711 95.5293C243.77 95.432 243.829 95.3337 243.888 95.2364C244.019 95.0234 244.147 94.8084 244.279 94.5963Z" fill="#D3D1D0"/>
<path d="M12.4413 97.1732C12.4413 125.386 25.6129 137.076 31.2253 137.076C55.2437 137.076 86.1189 96.1405 109.786 69.0466C126.76 87.9605 136.846 113.503 139.416 138.171L167.023 96.525C154.988 60.9932 135.207 0.266541 92.9048 0.266541C51.6406 0.266068 12.4413 49.5365 12.4413 97.1732Z" fill="#D7AF7B"/>
<path d="M138.113 128.958C142.622 127.923 146.716 124.054 149.631 115.586C161.367 81.4783 132.644 49.9687 132.644 49.9687L109.787 69.0456C124.654 85.612 134.236 107.263 138.113 128.958Z" fill="#F59299"/>
<path d="M210.841 96.524L238.448 138.17C241.018 113.501 251.104 87.9594 268.078 69.0455C291.745 96.1394 322.62 137.075 346.639 137.075C352.252 137.075 365.423 125.385 365.423 97.1722C365.423 49.5359 326.223 0.265015 284.959 0.265015C242.658 0.265487 222.876 60.9926 210.841 96.524Z" fill="#D7AF7B"/>
<path d="M228.234 115.586C231.148 124.054 235.243 127.923 239.752 128.958C243.629 107.263 253.211 85.6119 268.078 69.0454L245.221 49.9685C245.221 49.9685 216.498 81.4781 228.234 115.586Z" fill="#F59299"/>
<path d="M188.932 263.221C247.391 263.221 294.78 230.255 294.78 189.589C294.78 177.573 290.641 166.231 283.304 156.212C283.397 154.509 283.447 152.795 283.447 151.069C283.447 99.2971 241.132 57.3276 188.932 57.3276C136.734 57.3276 94.4181 99.2971 94.4181 151.069C94.4181 152.795 94.4687 154.509 94.5618 156.212C87.2246 166.231 83.0852 177.573 83.0852 189.589C83.0847 230.255 130.474 263.221 188.932 263.221Z" fill="#D7AF7B"/>
<path d="M127.058 211.02C127.058 231.829 153.329 239.787 185.737 239.787C218.143 239.787 244.414 231.829 244.414 211.02C244.414 190.212 218.143 164.432 185.737 164.432C153.329 164.432 127.058 190.212 127.058 211.02Z" fill="#F9CC91"/>
<path d="M79.6614 224.904C87.9708 221.099 97.3082 218.969 106.604 218.969C113.818 218.969 121.008 220.252 127.671 223.029L107.266 168.871C100.805 163.948 93.1967 161.997 85.3904 161.997C79.0411 161.997 72.5608 163.287 66.4604 165.321C73.7943 170.083 80.8382 175.402 85.2284 182.776C77.9507 187.539 72.6747 194.46 68.8169 201.839C69.09 201.835 69.3635 201.833 69.638 201.833C74.4274 201.833 79.3921 202.489 84.0965 203.859C81.2043 209.243 79.4502 215.213 79.4502 221.288C79.4502 222.49 79.5187 223.697 79.6614 224.904Z" fill="#D7AF7B"/>
<path d="M311.405 165.321C305.304 163.287 298.824 161.997 292.475 161.997C284.668 161.997 277.06 163.948 270.598 168.871L250.194 223.028C256.858 220.252 264.046 218.969 271.261 218.969C280.557 218.969 289.895 221.099 298.204 224.904C298.346 223.697 298.415 222.49 298.415 221.287C298.415 215.213 296.661 209.243 293.768 203.859C298.473 202.489 303.437 201.833 308.227 201.833C308.501 201.833 308.775 201.835 309.048 201.839C305.19 194.46 299.914 187.539 292.637 182.776C297.027 175.402 304.071 170.083 311.405 165.321Z" fill="#D7AF7B"/>
<path d="M168.761 170.093C168.761 176.284 176.362 186.198 185.736 186.198C195.111 186.198 202.711 176.285 202.711 170.093C202.711 163.902 195.112 163.778 185.736 163.778C176.361 163.778 168.761 163.902 168.761 170.093Z" fill="#31343B"/>
<path d="M148.364 158.62C159.658 158.62 168.813 149.465 168.813 138.171C168.813 126.877 159.658 117.721 148.364 117.721C137.069 117.721 127.914 126.877 127.914 138.171C127.914 149.465 137.069 158.62 148.364 158.62Z" fill="white"/>
<path d="M148.364 151.943C155.97 151.943 162.137 145.777 162.137 138.17C162.137 130.564 155.97 124.397 148.364 124.397C140.757 124.397 134.591 130.564 134.591 138.17C134.591 145.777 140.757 151.943 148.364 151.943Z" fill="#31343B"/>
<path d="M143.236 139.137C145.763 139.137 147.813 137.088 147.813 134.56C147.813 132.032 145.763 129.983 143.236 129.983C140.708 129.983 138.658 132.032 138.658 134.56C138.658 137.088 140.708 139.137 143.236 139.137Z" fill="white"/>
<path d="M223.109 158.62C234.404 158.62 243.559 149.464 243.559 138.17C243.559 126.876 234.404 117.721 223.109 117.721C211.815 117.721 202.66 126.876 202.66 138.17C202.66 149.464 211.815 158.62 223.109 158.62Z" fill="white"/>
<path d="M223.109 151.943C230.716 151.943 236.882 145.777 236.882 138.17C236.882 130.564 230.716 124.397 223.109 124.397C215.503 124.397 209.336 130.564 209.336 138.17C209.336 145.777 215.503 151.943 223.109 151.943Z" fill="#31343B"/>
<path d="M217.982 139.137C220.51 139.137 222.559 137.088 222.559 134.56C222.559 132.032 220.51 129.982 217.982 129.982C215.454 129.982 213.404 132.032 213.404 134.56C213.404 137.088 215.454 139.137 217.982 139.137Z" fill="white"/>
<path d="M150.342 102.794C145.778 102.794 141.09 104.002 137.141 106.196C136.358 106.631 136.075 107.619 136.51 108.403C136.945 109.185 137.933 109.468 138.717 109.033C142.142 107.13 146.379 106.04 150.341 106.04C155.327 106.04 159.542 107.719 162.211 110.769C162.531 111.135 162.981 111.323 163.433 111.323C163.812 111.323 164.193 111.19 164.501 110.922C165.176 110.331 165.244 109.305 164.653 108.631C161.361 104.867 156.278 102.794 150.342 102.794Z" fill="#31343B"/>
<path d="M221.13 102.794C215.195 102.794 210.112 104.867 206.819 108.631C206.229 109.306 206.297 110.331 206.972 110.922C207.279 111.191 207.66 111.323 208.04 111.323C208.492 111.323 208.941 111.135 209.262 110.769C211.93 107.719 216.145 106.04 221.131 106.04C225.093 106.04 229.331 107.131 232.755 109.033C233.539 109.47 234.527 109.186 234.962 108.403C235.397 107.619 235.115 106.631 234.332 106.196C230.382 104.002 225.694 102.794 221.13 102.794Z" fill="#31343B"/>
<path d="M178.993 213.029C179.208 213.881 179.975 214.478 180.853 214.478H182.951C183.971 214.478 185.736 213.681 185.736 212.663V196.603C185.736 196.603 183.112 201.737 176.436 202.914L178.993 213.029Z" fill="white"/>
<path d="M185.737 212.662C185.737 213.68 187.502 214.477 188.522 214.477H190.62C191.498 214.477 192.265 213.88 192.48 213.028L195.037 202.913C188.361 201.735 185.737 196.602 185.737 196.602V212.662Z" fill="white"/>
<path d="M184.113 169.482V196.286C183.661 197.316 181.586 201.289 176.436 201.289C170.753 201.289 169.295 196.108 169.238 195.896C169.014 195.027 168.128 194.504 167.262 194.728C166.394 194.951 165.871 195.837 166.094 196.705C166.791 199.413 169.849 204.535 176.436 204.535C184.558 204.535 187.16 197.444 187.266 197.143C187.328 196.969 187.359 196.786 187.359 196.602V169.482C187.359 168.586 186.633 167.859 185.736 167.859C184.84 167.859 184.113 168.586 184.113 169.482Z" fill="#31343B"/>
<path d="M185.736 167.86C184.84 167.86 184.113 168.586 184.113 169.483V196.602C184.113 196.787 184.144 196.97 184.206 197.144C184.313 197.446 186.915 204.536 195.037 204.536C201.623 204.536 204.681 199.414 205.378 196.705C205.602 195.837 205.079 194.952 204.211 194.729C203.343 194.503 202.458 195.028 202.235 195.897C202.178 196.117 200.781 201.29 195.037 201.29C189.879 201.29 187.804 197.305 187.359 196.289V169.483C187.359 168.586 186.632 167.86 185.736 167.86Z" fill="#31343B"/>
<path d="M119.967 174.631C119.428 174.59 118.96 174.985 118.916 175.52C118.871 176.056 119.269 176.527 119.805 176.572C133.749 177.734 145.126 180.142 155.608 184.15C155.722 184.193 155.84 184.213 155.955 184.213C156.347 184.213 156.717 183.975 156.865 183.587C157.057 183.085 156.806 182.522 156.303 182.329C145.645 178.255 134.099 175.808 119.967 174.631Z" fill="#31343B"/>
<path d="M119.696 190.052C119.165 190.135 118.801 190.634 118.884 191.165C118.959 191.645 119.373 191.988 119.845 191.988C119.895 191.988 119.946 191.984 119.997 191.977C131.355 190.201 143.095 190.053 153.207 190.053C153.746 190.053 154.181 189.617 154.181 189.079C154.181 188.542 153.745 188.106 153.207 188.106C143.022 188.105 131.192 188.256 119.696 190.052Z" fill="#31343B"/>
<path d="M151.589 195.35C142.766 197.638 134.174 201.793 126.052 207.7C125.617 208.016 125.521 208.625 125.837 209.06C126.028 209.323 126.324 209.462 126.626 209.462C126.824 209.462 127.024 209.402 127.198 209.275C135.121 203.512 143.492 199.462 152.078 197.236C152.599 197.101 152.911 196.57 152.777 196.05C152.641 195.528 152.111 195.218 151.589 195.35Z" fill="#31343B"/>
<path d="M215.17 182.329C214.668 182.522 214.416 183.084 214.608 183.588C214.757 183.975 215.126 184.213 215.518 184.213C215.633 184.213 215.751 184.193 215.865 184.15C226.347 180.142 237.724 177.734 251.668 176.573C252.205 176.528 252.602 176.057 252.558 175.52C252.514 174.985 252.046 174.591 251.507 174.631C237.375 175.808 225.828 178.255 215.17 182.329Z" fill="#31343B"/>
<path d="M218.266 188.105C217.728 188.105 217.292 188.541 217.292 189.079C217.292 189.617 217.728 190.053 218.266 190.053C228.378 190.053 240.118 190.201 251.476 191.976C251.527 191.984 251.578 191.988 251.628 191.988C252.099 191.988 252.513 191.645 252.589 191.164C252.672 190.633 252.308 190.134 251.776 190.052C240.281 188.256 228.451 188.105 218.266 188.105Z" fill="#31343B"/>
<path d="M219.884 195.35C219.362 195.218 218.832 195.529 218.697 196.049C218.562 196.57 218.875 197.101 219.395 197.236C227.982 199.461 236.352 203.512 244.276 209.275C244.449 209.401 244.649 209.461 244.848 209.461C245.149 209.461 245.446 209.322 245.636 209.06C245.953 208.625 245.857 208.016 245.422 207.7C237.3 201.793 228.708 197.638 219.884 195.35Z" fill="#31343B"/>
<path d="M147.813 171.195C153.781 171.195 158.619 168.935 158.619 166.147C158.619 163.359 153.781 161.099 147.813 161.099C141.845 161.099 137.007 163.359 137.007 166.147C137.007 168.935 141.845 171.195 147.813 171.195Z" fill="#E68075"/>
<path d="M222.558 171.195C228.527 171.195 233.365 168.935 233.365 166.147C233.365 163.359 228.527 161.099 222.558 161.099C216.59 161.099 211.752 163.359 211.752 166.147C211.752 168.935 216.59 171.195 222.558 171.195Z" fill="#E68075"/>
</svg>
