<svg width="252" height="239" viewBox="0 0 252 239" fill="none" xmlns="http://www.w3.org/2000/svg">
<path d="M0.274022 156.999C0.26624 157.072 0.259686 157.145 0.252313 157.217C0.205619 157.686 0.16302 158.156 0.129842 158.628C0.114687 158.839 0.104449 159.05 0.0921615 159.262C0.0716817 159.619 0.0487442 159.975 0.0356371 160.333C0.0135189 160.923 0.000822091 161.514 0.000412495 162.107C0.000412495 162.115 0 162.123 0 162.131C0 204.585 54.0707 239 120.77 239C187.47 239 241.541 204.585 241.541 162.131C241.541 162.119 241.54 162.108 241.54 162.095C241.54 161.506 241.527 160.919 241.505 160.334C241.492 159.976 241.469 159.618 241.449 159.261C241.436 159.05 241.426 158.838 241.411 158.628C241.378 158.157 241.335 157.689 241.289 157.221C241.282 157.146 241.275 157.071 241.266 156.997C241.212 156.471 241.149 155.946 241.078 155.423C241.078 155.422 241.078 155.421 241.078 155.42C239.218 141.743 231.735 129.092 220.103 118.407C220.123 101.246 219.002 84.0841 216.739 67.036C216.071 62.3944 214.511 57.6771 212.252 53.056C224.68 49.8309 231.56 40.8071 231.56 32.4567C231.56 22.2422 221.286 14.7851 210.471 14.7851C202.098 14.7851 194.767 19.7469 190.666 26.9157C181.187 19.3554 170.272 13.9442 159.882 12.4549C133.483 9.17405 108.057 9.17405 81.6586 12.4549C71.268 13.9442 60.3539 19.3554 50.8746 26.9157C46.7742 19.7465 39.4424 14.7851 31.0703 14.7851C20.2545 14.7851 9.98061 22.2426 9.98061 32.4567C9.98061 40.8075 16.8602 49.8313 29.2885 53.0565C27.03 57.6775 25.4695 62.3944 24.801 67.036C22.538 84.0837 21.4177 101.246 21.4378 118.407C9.35926 129.503 1.75348 142.717 0.274022 156.999Z" fill="#D3D1D0"/>
<path d="M19.532 22.463C19.532 32.8552 30.1786 44.2977 48.9258 44.2977C52.2611 44.2977 55.5948 43.9 58.9297 42.9902L63.8817 30.7995C63.8916 30.5099 63.8961 30.2207 63.8961 29.9328C63.8961 16.4943 53.4825 4.79138 40.6216 4.79138C29.8063 4.79138 19.532 12.2489 19.532 22.463Z" fill="#D5E5E5"/>
<path d="M29.3955 24.865C29.3955 31.1945 35.8798 38.1642 47.2985 38.1642C49.3301 38.1642 51.3605 37.9217 53.3917 37.3679L56.4079 29.9428C56.4137 29.7663 56.4165 29.5905 56.4165 29.4148C56.4165 21.2299 50.0739 14.1017 42.2408 14.1017C35.6529 14.1017 29.3955 18.6437 29.3955 24.865Z" fill="#B5C5C5"/>
<path d="M196.748 29.9322C196.748 30.2205 196.753 30.5093 196.762 30.7989L201.714 42.9897C205.049 43.899 208.383 44.2971 211.718 44.2971C230.465 44.2971 241.112 32.8547 241.112 22.4624C241.112 12.2479 230.838 4.79041 220.022 4.79041C207.161 4.79081 196.748 16.4938 196.748 29.9322Z" fill="#D5E5E5"/>
<path d="M204.228 29.4144C204.228 29.5898 204.231 29.7659 204.236 29.9424L207.253 37.3676C209.284 37.9213 211.314 38.1638 213.346 38.1638C224.764 38.1638 231.249 31.1945 231.249 24.8647C231.249 18.6437 224.991 14.1013 218.404 14.1013C210.57 14.1017 204.228 21.2299 204.228 29.4144Z" fill="#B5C5C5"/>
<path d="M169.434 2.46064C143.035 -0.820215 117.608 -0.820215 91.21 2.46064C66.0777 6.06304 37.8742 32.5962 34.3525 57.0417C29.8657 90.8431 29.8657 125.094 34.3525 158.895C37.8746 183.34 66.0801 209.874 91.21 213.476C117.608 216.756 143.036 216.756 169.434 213.476C194.564 209.874 222.77 183.34 226.291 158.895C230.778 125.093 230.778 90.8436 226.291 57.0417C222.771 32.5962 194.565 6.06263 169.434 2.46064Z" fill="#D5E5E5"/>
<path d="M164.29 91.2888C175.069 91.2888 183.807 82.5505 183.807 71.7712C183.807 60.9919 175.069 52.2535 164.29 52.2535C153.51 52.2535 144.772 60.9919 144.772 71.7712C144.772 82.5505 153.51 91.2888 164.29 91.2888Z" fill="white"/>
<path d="M164.29 84.9158C171.549 84.9158 177.434 79.0307 177.434 71.7711C177.434 64.5114 171.549 58.6263 164.29 58.6263C157.03 58.6263 151.145 64.5114 151.145 71.7711C151.145 79.0307 157.03 84.9158 164.29 84.9158Z" fill="#31343B"/>
<path d="M159.395 72.6935C161.808 72.6935 163.764 70.7376 163.764 68.3248C163.764 65.912 161.808 63.9561 159.395 63.9561C156.983 63.9561 155.027 65.912 155.027 68.3248C155.027 70.7376 156.983 72.6935 159.395 72.6935Z" fill="white"/>
<path d="M96.3544 91.2888C107.134 91.2888 115.872 82.5505 115.872 71.7712C115.872 60.9919 107.134 52.2535 96.3544 52.2535C85.5751 52.2535 76.8368 60.9919 76.8368 71.7712C76.8368 82.5505 85.5751 91.2888 96.3544 91.2888Z" fill="white"/>
<path d="M96.3544 84.9158C103.614 84.9158 109.499 79.0307 109.499 71.7711C109.499 64.5114 103.614 58.6263 96.3544 58.6263C89.0948 58.6263 83.2097 64.5114 83.2097 71.7711C83.2097 79.0307 89.0948 84.9158 96.3544 84.9158Z" fill="#31343B"/>
<path d="M91.4598 72.6935C93.8726 72.6935 95.8286 70.7376 95.8286 68.3248C95.8286 65.912 93.8726 63.9561 91.4598 63.9561C89.047 63.9561 87.0911 65.912 87.0911 68.3248C87.0911 70.7376 89.047 72.6935 91.4598 72.6935Z" fill="white"/>
<path d="M130.322 229.006C197.022 229.006 251.092 194.59 251.092 152.137C251.092 109.683 197.022 75.2675 130.322 75.2675C63.6222 75.2675 9.55139 109.683 9.55139 152.137C9.55139 194.59 63.6222 229.006 130.322 229.006Z" fill="#EDEDED"/>
<path d="M130.322 215.583C67.1757 215.583 15.3578 184.735 10.0146 145.425C9.714 147.638 9.55139 149.875 9.55139 152.137C9.55139 194.59 63.6221 229.006 130.322 229.006C197.022 229.006 251.092 194.59 251.092 152.137C251.092 149.875 250.93 147.638 250.629 145.425C245.286 184.735 193.468 215.583 130.322 215.583Z" fill="#D7D7D6"/>
<path d="M88.6451 107.968C93.6408 107.968 97.6906 103.919 97.6906 98.9228C97.6906 93.9271 93.6408 89.8773 88.6451 89.8773C83.6494 89.8773 79.5996 93.9271 79.5996 98.9228C79.5996 103.919 83.6494 107.968 88.6451 107.968Z" fill="#B5C5C5"/>
<path d="M171.999 107.968C176.994 107.968 181.044 103.919 181.044 98.9228C181.044 93.9271 176.994 89.8773 171.999 89.8773C167.003 89.8773 162.953 93.9271 162.953 98.9228C162.953 103.919 167.003 107.968 171.999 107.968Z" fill="#B5C5C5"/>
<path d="M142.448 175.362C134.288 181.054 126.356 181.054 118.196 175.362C117.494 174.873 116.528 175.044 116.039 175.746C115.55 176.448 115.722 177.414 116.423 177.903C121.035 181.119 125.678 182.727 130.322 182.727C134.965 182.727 139.609 181.119 144.22 177.903C144.922 177.414 145.094 176.448 144.604 175.746C144.115 175.045 143.15 174.874 142.448 175.362Z" fill="#31343B"/>
<path d="M99.9142 32.4868C92.3003 32.4868 84.2394 37.225 80.3118 44.0087C79.7974 44.8972 80.1005 46.0346 80.9893 46.549C81.2826 46.7186 81.6025 46.7997 81.9187 46.7997C82.5605 46.7997 83.1847 46.4671 83.5292 45.8716C86.772 40.2708 93.663 36.2047 99.9142 36.2047C101.946 36.2047 103.849 36.6205 105.572 37.4409C106.498 37.8841 107.607 37.4888 108.049 36.5623C108.491 35.6358 108.097 34.5262 107.17 34.0851C104.945 33.0242 102.504 32.4868 99.9142 32.4868Z" fill="#C6D5D5"/>
<path d="M158.521 32.4868C155.932 32.4868 153.491 33.0242 151.265 34.0851C150.338 34.5262 149.944 35.6354 150.386 36.5623C150.827 37.4888 151.937 37.8845 152.863 37.4409C154.586 36.6209 156.49 36.2047 158.521 36.2047C164.772 36.2047 171.663 40.2704 174.906 45.8716C175.251 46.4671 175.875 46.7997 176.517 46.7997C176.833 46.7997 177.153 46.7186 177.447 46.549C178.335 46.0342 178.638 44.8972 178.124 44.0087C174.196 37.2246 166.135 32.4868 158.521 32.4868Z" fill="#C6D5D5"/>
</svg>
