<svg width="338" height="263" viewBox="0 0 338 263" fill="none" xmlns="http://www.w3.org/2000/svg">
<path d="M10.8385 74.5342C9.72142 80.436 9.79568 86.6787 11.1325 92.6976C13.143 88.92 15.9106 85.5777 19.4316 83.301C19.2503 90.2634 19.569 97.4302 21.7028 104.092C30.1549 110.719 39.7823 115.626 49.8819 118.89C43.9104 141.474 43.9084 162.363 43.9286 161.677C43.9064 162.623 43.8675 163.754 43.8478 166.105C43.8382 167.211 43.8362 168.651 43.8483 169.997C43.8594 171.328 43.8821 172.651 43.9049 173.568C43.9453 175.261 43.9907 176.486 44.0458 177.769C44.0993 179.035 44.1594 180.305 44.2342 181.582C47.5325 237.961 92.6615 262.355 162.35 262.355C224.321 262.355 276.879 242.871 280.465 181.582C280.551 180.117 280.639 178.225 280.69 176.906C280.809 173.815 280.87 170.594 280.858 167.157C280.856 166.809 280.855 166.461 280.852 166.113C280.71 149.114 278.628 133.302 274.818 118.891C284.916 115.627 294.544 110.72 302.997 104.093C305.131 97.4312 305.449 90.2644 305.268 83.302C308.789 85.5787 311.556 88.921 313.567 92.6986C314.904 86.6797 314.978 80.437 313.861 74.5352C316.957 76.6508 319.191 79.6396 320.635 83.0046C330.562 61.7605 320.659 39.8644 308.605 25.0857C285.759 -2.9222 245.203 13.617 234.193 51.8927C193.912 18.3295 130.802 18.3173 90.5075 51.8927C79.4969 13.617 38.9414 -2.9222 16.0954 25.0857C4.04085 39.8644 -5.86176 61.7605 4.0646 83.0046C5.50848 79.6391 7.74272 76.6498 10.8385 74.5342Z" fill="#D3D1D0"/>
<path d="M35.0031 93.0264C35.445 93.3729 35.8889 93.7188 36.3465 94.0632C49.8696 104.232 66.572 110.358 83.3279 112.081L106.191 69.9637C112.116 12.3423 57.4234 -20.3427 29.3947 14.019C17.3402 28.7977 7.43755 50.6938 17.3639 71.9379C18.8083 68.5734 21.0426 65.5841 24.1384 63.4685C23.0213 69.3703 23.0955 75.613 24.4323 81.6319C26.4428 77.8543 29.2104 74.512 32.7315 72.2354C32.5507 79.1977 32.8693 86.3646 35.0031 93.0264Z" fill="#8C99A9"/>
<path d="M42.9033 58.6193C42.9033 78.2846 61.5707 85.9075 73.5642 89.3892C77.4428 77.2493 84.5137 65.974 92.9861 56.2749C88.6444 43.177 78.717 30.4573 64.9696 30.4573C50.5878 30.4573 42.9033 45.0021 42.9033 58.6193Z" fill="#F59299"/>
<path d="M333.935 71.9379C343.862 50.6938 333.959 28.7977 321.905 14.019C293.876 -20.3427 239.184 12.3423 245.109 69.9637L267.971 112.081C284.728 110.359 301.43 104.232 314.953 94.0632C315.41 93.7188 315.854 93.3729 316.296 93.0264C318.43 86.3646 318.749 79.1977 318.567 72.2354C322.088 74.512 324.856 77.8543 326.866 81.6319C328.203 75.613 328.277 69.3703 327.16 63.4685C330.256 65.5841 332.49 68.5734 333.935 71.9379Z" fill="#8C99A9"/>
<path d="M258.313 56.2744C266.786 65.9735 273.857 77.2488 277.735 89.3887C289.729 85.9075 308.396 78.2841 308.396 58.6188C308.396 45.0016 300.712 30.4568 286.33 30.4568C272.582 30.4573 262.655 43.177 258.313 56.2744Z" fill="#F59299"/>
<path d="M57.5347 170.516C60.8335 226.895 105.962 251.289 175.65 251.289C245.338 251.289 290.466 226.895 293.765 170.516C299.2 77.6306 249.183 15.7346 175.65 15.7346C102.117 15.7341 52.1 77.6306 57.5347 170.516Z" fill="#8C99A9"/>
<path d="M175.649 238.641C105.961 238.641 60.833 214.247 57.5341 157.869C57.3912 155.426 57.2953 153.01 57.2286 150.611C57.0438 157.073 57.1362 163.709 57.5341 170.516C60.8325 226.895 105.961 251.289 175.649 251.289C245.338 251.289 290.466 226.894 293.765 170.516C294.163 163.709 294.255 157.073 294.07 150.61C294.004 153.01 293.908 155.426 293.765 157.869C290.466 214.247 245.338 238.641 175.649 238.641Z" fill="#838F9E"/>
<path d="M128.73 201.401C130.041 225.206 150.565 235.506 175.65 235.506C200.735 235.506 221.259 225.206 222.57 201.401C224.729 162.182 198.378 136.048 175.65 136.048C152.922 136.048 126.571 162.182 128.73 201.401Z" fill="#A3B2C5"/>
<path d="M145.167 148.759C145.167 175.3 158.814 181.568 175.65 181.568C192.485 181.568 206.132 175.3 206.132 148.759C206.132 122.218 192.485 85.4545 175.65 85.4545C158.814 85.4545 145.167 122.218 145.167 148.759Z" fill="#31343B"/>
<path d="M125.019 125.203C137.092 125.203 146.88 115.415 146.88 103.342C146.88 91.2681 137.092 81.4805 125.019 81.4805C112.945 81.4805 103.157 91.2681 103.157 103.342C103.157 115.415 112.945 125.203 125.019 125.203Z" fill="white"/>
<path d="M125.019 118.065C133.15 118.065 139.742 111.473 139.742 103.342C139.742 95.21 133.15 88.618 125.019 88.618C116.887 88.618 110.295 95.21 110.295 103.342C110.295 111.473 116.887 118.065 125.019 118.065Z" fill="#31343B"/>
<path d="M119.537 104.375C122.239 104.375 124.43 102.184 124.43 99.4816C124.43 96.7792 122.239 94.5884 119.537 94.5884C116.834 94.5884 114.643 96.7792 114.643 99.4816C114.643 102.184 116.834 104.375 119.537 104.375Z" fill="white"/>
<path d="M226.281 125.203C238.354 125.203 248.142 115.415 248.142 103.342C248.142 91.2681 238.354 81.4805 226.281 81.4805C214.207 81.4805 204.419 91.2681 204.419 103.342C204.419 115.415 214.207 125.203 226.281 125.203Z" fill="white"/>
<path d="M226.281 118.065C234.412 118.065 241.004 111.473 241.004 103.342C241.004 95.21 234.412 88.618 226.281 88.618C218.149 88.618 211.557 95.21 211.557 103.342C211.557 111.473 218.149 118.065 226.281 118.065Z" fill="#31343B"/>
<path d="M220.798 104.375C223.501 104.375 225.692 102.184 225.692 99.4816C225.692 96.7792 223.501 94.5884 220.798 94.5884C218.096 94.5884 215.905 96.7792 215.905 99.4816C215.905 102.184 218.096 104.375 220.798 104.375Z" fill="white"/>
<path d="M132.826 61.8029C127.339 60.9207 121.16 63.0983 116.3 67.63C115.599 68.2835 115.561 69.3814 116.214 70.0824C116.868 70.7834 117.966 70.8213 118.667 70.1678C122.688 66.4189 127.903 64.5261 132.275 65.2296C135.778 65.7937 138.548 67.8931 140.509 71.4707C140.824 72.047 141.419 72.3727 142.032 72.3722C142.314 72.3722 142.599 72.3035 142.864 72.1586C143.704 71.6975 144.012 70.644 143.551 69.8031C141.084 65.3018 137.375 62.5357 132.826 61.8029Z" fill="#31343B"/>
<path d="M223.211 61.802C218.661 62.5348 214.952 65.3008 212.485 69.8016C212.025 70.642 212.333 71.696 213.173 72.1571C213.437 72.302 213.723 72.3712 214.005 72.3707C214.619 72.3707 215.213 72.0455 215.528 71.4692C217.489 67.8921 220.259 65.7922 223.762 65.2281C228.138 64.5261 233.349 66.4174 237.371 70.1663C238.071 70.8198 239.17 70.7804 239.823 70.0809C240.477 69.3799 240.438 68.282 239.737 67.6285C234.877 63.0974 228.698 60.9167 223.211 61.802Z" fill="#31343B"/>
<path d="M192.446 196.178C180.467 202.43 169.505 202.445 158.93 196.221C158.106 195.735 157.041 196.011 156.555 196.836C156.069 197.662 156.345 198.726 157.17 199.211C162.947 202.612 168.943 204.312 175.119 204.312C181.267 204.312 187.594 202.625 194.052 199.254C194.901 198.811 195.231 197.763 194.787 196.914C194.343 196.064 193.296 195.734 192.446 196.178Z" fill="#31343B"/>
<path d="M124.43 142.326C131.852 142.326 137.869 139.515 137.869 136.048C137.869 132.581 131.852 129.77 124.43 129.77C117.008 129.77 110.991 132.581 110.991 136.048C110.991 139.515 117.008 142.326 124.43 142.326Z" fill="#E68075"/>
<path d="M226.281 142.326C233.703 142.326 239.72 139.515 239.72 136.048C239.72 132.581 233.703 129.77 226.281 129.77C218.859 129.77 212.842 132.581 212.842 136.048C212.842 139.515 218.859 142.326 226.281 142.326Z" fill="#E68075"/>
</svg>
