<svg width="269" height="233" viewBox="0 0 269 233" fill="none" xmlns="http://www.w3.org/2000/svg">
<path d="M256.285 143.365C256.285 134.717 251.762 126.664 245.037 121.382C259.954 109.209 254.479 84.5919 238.979 75.5212C255.201 54.6973 226.175 30.0667 206.394 29.5155C208.379 17.9665 198.75 10.8225 188.79 7.94805C176.403 4.37306 162.707 7.08237 152.713 15.3241C141.38 1.92081 114.995 1.92043 103.661 15.3241C93.6666 7.08199 79.9715 4.37306 67.5837 7.94805C57.6247 10.8222 47.9964 17.9691 49.9804 29.5155C30.1998 30.0667 1.17292 54.6965 17.3958 75.5212C1.89443 84.5919 -3.58038 109.208 11.3377 121.382C3.55597 127.494 -1.28586 137.517 0.439353 147.495C1.98184 156.414 8.78098 163.531 17.5804 165.503C13.8474 173.961 13.876 184.382 20.4913 191.374C23.7518 194.821 29.2786 198.449 34.2738 197.545C40.3989 218.38 66.5051 223.79 84.0304 214.968C88.8824 221.138 97.2063 224.141 104.895 223.52C109.906 230.681 119.785 234.023 128.187 232.726C136.59 234.023 146.469 230.681 151.48 223.52C159.169 224.141 167.493 221.138 172.345 214.968C189.871 223.79 215.976 218.381 222.102 197.545C227.097 198.449 232.625 194.818 235.884 191.374C242.499 184.382 242.528 173.961 238.795 165.503C249.104 163.193 256.285 154.33 256.285 143.365Z" fill="#746B6B" fill-opacity="0.3"/>
<path d="M268.401 137.574C268.401 128.941 263.871 120.902 257.135 115.629C262.591 111.191 266.009 104.539 266.009 96.6724C266.009 85.9405 260.228 75.1901 251.067 69.8468C254.209 65.8258 255.648 60.9705 255.648 56.2721C255.648 44.3352 239.525 24.5059 218.429 23.9198C218.632 22.745 218.743 21.554 218.743 20.3724C218.743 7.42229 201.929 0.787966 189.853 0.787966C180.776 0.787966 171.745 3.93116 164.661 9.75298C159.208 3.32508 149.91 0 141.115 0C140.774 0 140.434 0.00528077 140.095 0.0150926C139.756 0.00528077 139.417 0 139.076 0C130.281 0 120.983 3.32508 115.529 9.75298C108.446 3.93116 99.4142 0.787966 90.3379 0.787966C78.2621 0.787966 61.4476 7.42267 61.4476 20.3724C61.4476 21.554 61.5589 22.745 61.7616 23.9198C40.6653 24.5055 24.5422 44.3352 24.5422 56.2721C24.5422 60.9705 25.9811 65.8258 29.124 69.8468C19.9623 75.1901 14.182 85.9409 14.182 96.6724C14.182 104.539 17.5996 111.191 23.0561 115.629C16.3199 120.902 11.7894 128.94 11.7894 137.574C11.7894 148.52 18.9823 157.369 29.3089 159.674C27.6692 163.377 26.7574 167.421 26.7574 171.355C26.7574 186.521 40.5823 191.824 44.2444 191.824C44.8509 191.824 45.4456 191.767 46.0294 191.662C49.2311 202.516 61.8974 213.348 76.5228 213.348C84.2258 213.348 90.5824 211.707 95.8668 209.056C100.222 214.575 107.6 217.671 114.725 217.671C115.392 217.671 116.077 217.648 116.766 217.593C121.075 223.732 129.988 227.133 135.948 227.133C137.027 227.133 138.512 227.026 140.096 226.783C141.68 227.026 143.165 227.133 144.244 227.133C150.204 227.133 159.117 223.732 163.426 217.593C164.115 217.648 164.8 217.671 165.467 217.671C172.592 217.671 179.97 214.575 184.325 209.056C189.609 211.707 195.966 213.348 203.669 213.348C218.295 213.348 230.961 202.516 234.163 191.662C234.746 191.767 235.341 191.824 235.947 191.824C239.609 191.824 253.434 186.521 253.434 171.355C253.434 167.422 252.523 163.378 250.883 159.674C261.208 157.369 268.401 148.52 268.401 137.574Z" fill="#F17B38"/>
<path d="M232.978 68.0443C237.951 63.375 243.873 59.6868 250.133 56.7101C236.465 44.8407 216.526 39.3272 197.8 38.768C199.025 34.5636 200.999 30.5898 203.921 27.1745C200.677 26.7873 197.353 26.5911 194.001 26.5911C175.424 26.5911 152.091 33.2352 140.095 46.3484C128.098 33.2352 104.766 26.5911 86.189 26.5911C82.8371 26.5911 79.5131 26.7873 76.2692 27.1745C79.1912 30.5898 81.1645 34.564 82.3899 38.768C63.6636 39.3272 43.7244 44.8407 30.0569 56.7101C36.3168 59.6868 42.2386 63.375 47.2117 68.0443C36.0262 77.3244 32.58 93.3898 30.0372 106.519C34.5194 105.602 39.1053 104.846 43.7078 104.746C37.1833 115.158 39.8412 123.843 35.4873 133.915C36.2821 133.92 37.0772 133.924 37.8731 133.924C40.08 133.924 42.2907 133.893 44.4999 133.772C43.2595 138.534 42.7232 143.413 42.7232 148.317C42.7232 154.858 43.6768 161.443 45.1845 167.852C48.548 166.454 51.9516 165.142 55.4507 163.95C55.5111 165.467 55.5662 166.988 55.5662 168.498C55.5662 174.555 54.6805 180.462 49.7092 185.425C57.1568 185.016 64.4161 184.392 71.5101 183.077C71.1889 187.043 69.8624 191.017 67.8838 194.544C70.3413 194.676 72.8305 194.75 75.331 194.75C81.6238 194.75 87.9894 194.28 94.1128 193.073C95.8351 198.199 99.8456 202.574 103.994 206.393C104.396 202.203 106.423 198.525 109.068 195.12C115.513 204.392 128.841 209.346 140.094 211.944C151.347 209.346 164.675 204.392 171.12 195.12C173.765 198.525 175.792 202.203 176.194 206.393C180.343 202.574 184.353 198.198 186.076 193.073C192.199 194.28 198.565 194.75 204.857 194.75C207.358 194.75 209.847 194.676 212.305 194.544C210.326 191.017 208.999 187.043 208.678 183.077C215.772 184.392 223.032 185.016 230.479 185.425C225.508 180.462 224.623 174.555 224.623 168.498C224.623 166.988 224.678 165.467 224.738 163.95C228.237 165.142 231.641 166.454 235.004 167.852C236.512 161.443 237.466 154.858 237.466 148.317C237.466 143.413 236.93 138.534 235.689 133.772C237.898 133.893 240.108 133.924 242.316 133.924C243.111 133.924 243.907 133.92 244.701 133.915C240.348 123.843 243.005 115.158 236.481 104.746C241.083 104.846 245.67 105.602 250.151 106.519C247.61 93.3898 244.164 77.3244 232.978 68.0443Z" fill="#D96A27"/>
<path d="M45.323 77.2632C45.323 92.0214 61.4623 100.138 78.0312 100.138C79.346 100.138 80.5754 99.9509 81.614 99.2588L108.746 79.7354C108.746 58.1663 90.0941 44.5562 79.2644 44.5562C64.7236 44.5562 45.323 64.5572 45.323 77.2632Z" fill="#F1BB54"/>
<path d="M61.2578 78.424C61.2578 87.6068 71.2999 92.6573 81.6091 92.6573C82.4273 92.6573 83.1922 92.5407 83.8383 92.1097L100.72 79.9622C100.72 66.5419 89.1144 58.0735 82.3763 58.0735C73.329 58.0731 61.2578 70.5183 61.2578 78.424Z" fill="#B58C3E"/>
<path d="M171.444 79.7352L198.576 99.2585C199.615 99.9506 200.845 100.138 202.159 100.138C218.728 100.138 234.867 92.0211 234.867 77.263C234.867 64.5574 215.467 44.5559 200.925 44.5559C190.096 44.5559 171.444 58.1661 171.444 79.7352Z" fill="#F1BB54"/>
<path d="M179.47 79.9617L196.352 92.1092C196.998 92.5402 197.763 92.6568 198.581 92.6568C208.89 92.6568 218.932 87.6063 218.932 78.4235C218.932 70.5178 206.861 58.073 197.814 58.073C191.076 58.073 179.47 66.5418 179.47 79.9617Z" fill="#B58C3E"/>
<path d="M61.4235 143.75C63.6206 182.08 93.6788 198.665 140.095 198.665C186.512 198.665 216.57 182.08 218.767 143.75C222.387 80.601 174.711 59.2119 140.095 59.2119C105.479 59.2119 57.8036 80.6014 61.4235 143.75Z" fill="#F1BB54"/>
<path d="M77.0632 179.986C90.6772 192.799 112.493 198.665 140.095 198.665C167.696 198.665 189.513 192.8 203.127 179.986C192.883 151.717 162.466 135.516 140.095 135.516C117.724 135.515 87.3072 151.717 77.0632 179.986Z" fill="#FDE196"/>
<path d="M62.1922 150.878C67.5574 184.144 96.6646 198.665 140.095 198.665C183.525 198.665 212.632 184.144 217.998 150.878C209.251 178.436 180.819 190.599 140.095 190.599C99.3708 190.599 70.9387 178.437 62.1922 150.878Z" fill="#D9A84C"/>
<path d="M79.1527 174.96C78.387 176.589 77.6881 178.262 77.065 179.981C85.5553 187.974 96.5193 192.617 107.772 195.294C128.485 200.223 158.704 199.928 179.063 193.459C187.905 190.646 196.282 186.416 203.125 179.981C202.502 178.262 201.803 176.589 201.037 174.96C186.983 185.664 166.033 190.599 140.095 190.599C114.157 190.599 93.2074 185.663 79.1527 174.96Z" fill="#E0C784"/>
<path d="M105.499 131.094C113.08 131.094 119.225 124.948 119.225 117.368C119.225 109.788 113.08 103.642 105.499 103.642C97.919 103.642 91.7738 109.788 91.7738 117.368C91.7738 124.948 97.919 131.094 105.499 131.094Z" fill="white"/>
<path d="M105.499 126.612C110.605 126.612 114.744 122.473 114.744 117.368C114.744 112.262 110.605 108.124 105.499 108.124C100.394 108.124 96.2551 112.262 96.2551 117.368C96.2551 122.473 100.394 126.612 105.499 126.612Z" fill="#31343B"/>
<path d="M102.057 118.017C103.754 118.017 105.13 116.642 105.13 114.945C105.13 113.248 103.754 111.873 102.057 111.873C100.361 111.873 98.9851 113.248 98.9851 114.945C98.9851 116.642 100.361 118.017 102.057 118.017Z" fill="white"/>
<path d="M176.238 131.094C183.818 131.094 189.963 124.948 189.963 117.368C189.963 109.788 183.818 103.642 176.238 103.642C168.657 103.642 162.512 109.788 162.512 117.368C162.512 124.948 168.657 131.094 176.238 131.094Z" fill="white"/>
<path d="M176.238 126.612C181.343 126.612 185.482 122.473 185.482 117.368C185.482 112.262 181.343 108.124 176.238 108.124C171.132 108.124 166.993 112.262 166.993 117.368C166.993 122.473 171.132 126.612 176.238 126.612Z" fill="#31343B"/>
<path d="M172.796 118.017C174.492 118.017 175.868 116.642 175.868 114.945C175.868 113.248 174.492 111.873 172.796 111.873C171.099 111.873 169.723 113.248 169.723 114.945C169.723 116.642 171.099 118.017 172.796 118.017Z" fill="white"/>
<path d="M126.101 139.101C126.101 142.617 132.366 148.246 140.095 148.246C147.824 148.246 154.09 142.617 154.09 139.101C154.09 135.586 147.824 135.516 140.095 135.516C132.366 135.515 126.101 135.586 126.101 139.101Z" fill="#31343B"/>
<path d="M108.699 82.3487C108.187 82.4434 107.849 82.9359 107.943 83.448C108.038 83.9601 108.53 84.299 109.043 84.2039C112.911 83.4884 120.274 84.459 123.572 90.1136C123.747 90.414 124.063 90.5816 124.388 90.5816C124.549 90.5816 124.713 90.5404 124.862 90.4529C125.312 90.1906 125.464 89.6125 125.202 89.1626C121.389 82.6272 113.244 81.5067 108.699 82.3487Z" fill="#31343B"/>
<path d="M154.988 89.1633C154.726 89.6131 154.878 90.1913 155.328 90.4535C155.477 90.5407 155.641 90.5822 155.802 90.5822C156.127 90.5822 156.443 90.4147 156.618 90.1143C159.916 84.4596 167.281 83.4886 171.147 84.2045C171.658 84.2989 172.152 83.9607 172.246 83.4486C172.341 82.9365 172.003 82.444 171.491 82.3493C166.946 81.507 158.8 82.6274 154.988 89.1633Z" fill="#31343B"/>
<path d="M99.7655 157.104C104.871 157.104 109.01 155.17 109.01 152.785C109.01 150.4 104.871 148.467 99.7655 148.467C94.66 148.467 90.5212 150.4 90.5212 152.785C90.5212 155.17 94.66 157.104 99.7655 157.104Z" fill="#E68075"/>
<path d="M180.424 157.104C185.53 157.104 189.669 155.17 189.669 152.785C189.669 150.4 185.53 148.467 180.424 148.467C175.319 148.467 171.18 150.4 171.18 152.785C171.18 155.17 175.319 157.104 180.424 157.104Z" fill="#E68075"/>
<path d="M139.151 143.337V158.199C137.301 158.766 131.797 160.115 130.198 156.704C129.977 156.232 129.415 156.029 128.944 156.25C128.472 156.471 128.269 157.032 128.49 157.504C129.217 159.057 130.88 160.826 134.681 160.826C134.992 160.826 135.318 160.815 135.658 160.79C138.163 160.607 140.336 159.798 140.427 159.763C140.795 159.625 141.038 159.273 141.038 158.88V143.337C141.038 142.816 140.616 142.394 140.095 142.394C139.574 142.394 139.151 142.816 139.151 143.337Z" fill="#31343B"/>
<path d="M140.095 142.394C139.574 142.394 139.151 142.816 139.151 143.337V158.88C139.151 159.273 139.395 159.625 139.762 159.763C139.854 159.798 142.027 160.607 144.532 160.79C144.873 160.814 145.198 160.827 145.509 160.826C149.309 160.826 150.973 159.057 151.7 157.504C151.921 157.033 151.718 156.471 151.246 156.25C150.775 156.028 150.212 156.232 149.992 156.704C148.393 160.116 142.887 158.766 141.038 158.2V143.338C141.038 142.816 140.616 142.394 140.095 142.394Z" fill="#31343B"/>
</svg>
