<svg width="344" height="254" viewBox="0 0 344 254" fill="none" xmlns="http://www.w3.org/2000/svg">
<path d="M331.513 57.21C326.755 30.8463 305.421 7.31536 274.952 12.814C259.721 15.5626 247.968 25.0042 238.506 36.8962C219.648 21.7605 195.458 12.4439 166.263 12.4439C137.068 12.4439 112.878 21.76 94.0201 36.8962C84.5578 25.0037 72.8052 15.5621 57.5741 12.814C27.105 7.31536 5.77086 30.8468 1.01339 57.21C-4.64617 88.5728 13.74 116.007 47.6551 121.288C28.5745 242.001 158.08 278.805 233.28 237.226C233.611 237.043 233.94 236.857 234.269 236.671C235.383 236.041 236.482 235.393 237.568 234.73C240.758 232.783 243.828 230.693 246.768 228.464C247.787 227.691 248.792 226.903 249.78 226.096C282.139 199.682 291.265 161.735 284.871 121.288C318.78 116.008 337.173 88.5773 331.513 57.21Z" fill="#D3D1D0"/>
<path d="M12.4893 45.2017C6.98725 75.6915 24.2252 103.009 57.5413 109.021C69.578 111.193 81.9262 109.994 93.7793 105.508L125.573 58.3073C113.678 34.1744 97.3768 5.91749 69.0495 0.805676C38.5809 -4.69295 17.2468 18.8385 12.4893 45.2017Z" fill="#925224"/>
<path d="M59.086 22.508C45.4529 23.2 36.842 36.8262 34.6106 49.1931C31.1229 68.5188 41.6915 83.3192 61.5329 86.8995C64.8213 87.4926 68.1827 87.7076 71.5228 87.5383C71.5233 87.5383 71.5233 87.5383 71.5233 87.5383C74.1951 87.4025 76.8782 87.0211 79.5485 86.3995L99.4903 56.7936C90.1555 39.7702 79.3221 25.5007 65.058 22.9264C62.9886 22.5528 60.9793 22.4116 59.086 22.508Z" fill="#73411C"/>
<path d="M286.429 0.804811C258.101 5.91662 241.8 34.1741 229.905 58.3064L261.699 105.507C273.552 109.994 285.901 111.192 297.937 109.02C331.253 103.008 348.491 75.6906 342.989 45.2008C338.231 18.8381 316.898 -4.69333 286.429 0.804811Z" fill="#925224"/>
<path d="M296.393 22.5079C294.499 22.412 292.49 22.5532 290.42 22.9263C276.156 25.5006 265.323 39.7701 255.988 56.7935L275.93 86.3994C278.6 87.021 281.283 87.4024 283.955 87.5382C283.955 87.5382 283.955 87.5382 283.955 87.5382C287.295 87.7075 290.657 87.4924 293.945 86.8994C313.787 83.3191 324.355 68.5182 320.867 49.193C318.637 36.8261 310.026 23.1999 296.393 22.5079Z" fill="#73411C"/>
<path d="M57.198 133.873C57.198 200.446 111.166 241.518 177.739 241.518C244.312 241.518 298.28 200.446 298.28 133.873C298.28 67.3001 255.966 0.435181 177.739 0.435181C99.5123 0.435181 57.198 67.3001 57.198 133.873Z" fill="#925224"/>
<path d="M177.739 226.244C113.576 226.244 61.1297 188.088 57.4165 125.723C57.2757 128.437 57.198 131.155 57.198 133.873C57.198 200.446 111.167 241.518 177.739 241.518C244.312 241.518 298.28 200.446 298.28 133.873C298.28 131.155 298.202 128.438 298.062 125.723C294.349 188.088 241.903 226.244 177.739 226.244Z" fill="#834A1F"/>
<path d="M177.329 61.3153C167.623 45.9942 151.536 37.6707 135.646 37.6707C109.818 37.6707 82.1829 61.6869 82.1829 120.684C82.1829 187.951 129.731 213.748 177.29 213.748C224.877 213.748 272.475 187.914 272.475 120.684C272.475 61.6869 244.84 37.6707 219.012 37.6707C203.121 37.6707 187.034 45.9942 177.329 61.3153Z" fill="#E9BE96"/>
<path d="M137.353 118.29C150.305 118.29 160.804 107.791 160.804 94.8392C160.804 81.8877 150.305 71.3884 137.353 71.3884C124.402 71.3884 113.903 81.8877 113.903 94.8392C113.903 107.791 124.402 118.29 137.353 118.29Z" fill="white"/>
<path d="M137.353 110.633C146.076 110.633 153.147 103.562 153.147 94.839C153.147 86.1165 146.076 79.0454 137.353 79.0454C128.631 79.0454 121.56 86.1165 121.56 94.839C121.56 103.562 128.631 110.633 137.353 110.633Z" fill="#31343B"/>
<path d="M131.473 95.948C134.372 95.948 136.722 93.5978 136.722 90.6988C136.722 87.7998 134.372 85.4497 131.473 85.4497C128.574 85.4497 126.223 87.7998 126.223 90.6988C126.223 93.5978 128.574 95.948 131.473 95.948Z" fill="white"/>
<path d="M217.357 118.29C230.309 118.29 240.808 107.791 240.808 94.8392C240.808 81.8877 230.309 71.3884 217.357 71.3884C204.406 71.3884 193.906 81.8877 193.906 94.8392C193.906 107.791 204.406 118.29 217.357 118.29Z" fill="white"/>
<path d="M217.357 110.633C226.08 110.633 233.151 103.562 233.151 94.839C233.151 86.1165 226.08 79.0454 217.357 79.0454C208.635 79.0454 201.564 86.1165 201.564 94.839C201.564 103.562 208.635 110.633 217.357 110.633Z" fill="#31343B"/>
<path d="M211.476 95.948C214.375 95.948 216.725 93.5978 216.725 90.6988C216.725 87.7998 214.375 85.4497 211.476 85.4497C208.577 85.4497 206.227 87.7998 206.227 90.6988C206.227 93.5978 208.577 95.948 211.476 95.948Z" fill="white"/>
<path d="M162.681 131.033C162.681 136.524 169.423 145.319 177.74 145.319C186.056 145.319 192.798 136.525 192.798 131.033C192.798 125.541 186.056 125.431 177.74 125.431C169.423 125.431 162.681 125.54 162.681 131.033Z" fill="#31343B"/>
<path d="M175.879 135.375V165.544C175.879 166.572 176.712 167.405 177.74 167.405C178.768 167.405 179.601 166.572 179.601 165.544V135.375C179.601 134.347 178.768 133.514 177.74 133.514C176.712 133.514 175.879 134.347 175.879 135.375Z" fill="#31343B"/>
<path d="M208.811 147.721C203.54 159.583 186.996 163.81 173.272 163.81C169.971 163.81 167.468 163.592 165.156 163.106C164.149 162.894 163.163 163.539 162.951 164.544C162.739 165.55 163.383 166.537 164.389 166.748C166.964 167.291 169.703 167.532 173.272 167.532C201.859 167.532 210.305 153.527 212.213 149.234C212.63 148.294 212.207 147.194 211.267 146.777C210.33 146.358 209.229 146.782 208.811 147.721Z" fill="#31343B"/>
<path d="M139.974 58.3915C136.305 58.3915 132.241 59.2729 127.894 61.0111C126.939 61.393 126.475 62.4762 126.857 63.4309C127.239 64.3847 128.321 64.8518 129.277 64.4679C133.127 62.928 136.826 62.1145 139.975 62.1145C144.253 62.1145 147.64 63.5875 150.04 66.4925C150.408 66.9384 150.939 67.1687 151.476 67.1687C151.893 67.1687 152.313 67.0289 152.66 66.7425C153.452 66.0875 153.564 64.9147 152.91 64.1224C149.768 60.3197 145.417 58.3915 139.974 58.3915Z" fill="#31343B"/>
<path d="M217.413 58.3915C211.971 58.3915 207.619 60.3197 204.478 64.1224C203.823 64.9147 203.935 66.0875 204.727 66.7425C205.074 67.0289 205.495 67.1687 205.912 67.1687C206.448 67.1687 206.98 66.9384 207.348 66.4925C209.748 63.5875 213.134 62.1145 217.413 62.1145C220.562 62.1145 224.261 62.928 228.111 64.4679C229.066 64.8513 230.148 64.3857 230.53 63.4309C230.912 62.4767 230.447 61.393 229.493 61.0111C225.146 59.2729 221.082 58.3915 217.413 58.3915Z" fill="#31343B"/>
<path d="M216.725 131.376C223.11 131.376 228.287 128.958 228.287 125.975C228.287 122.992 223.11 120.573 216.725 120.573C210.34 120.573 205.163 122.992 205.163 125.975C205.163 128.958 210.34 131.376 216.725 131.376Z" fill="#E68075"/>
<path d="M137.353 131.376C143.738 131.376 148.915 128.958 148.915 125.975C148.915 122.992 143.738 120.573 137.353 120.573C130.968 120.573 125.791 122.992 125.791 125.975C125.791 128.958 130.968 131.376 137.353 131.376Z" fill="#E68075"/>
</svg>
