<svg width="294" height="249" viewBox="0 0 294 249" fill="none" xmlns="http://www.w3.org/2000/svg">
<path d="M251.093 11.5583C235.137 11.5583 221.682 23.4857 217.378 38.9926C193.592 23.8025 165.606 17.4813 141.477 17.4813C117.349 17.4813 89.3624 23.8025 65.5765 38.993C61.2726 23.4856 47.8177 11.5588 31.8617 11.5588C15.5216 11.5588 0 22.8254 0 38.257C0 51.7114 11.8212 66.3207 33.0246 70.2281C18.5513 91.2984 9.98806 119.552 12.1059 156.501C12.3385 160.556 12.7638 164.46 13.3706 168.222V168.221C30.6733 275.183 242.331 272.692 267.529 177.914C268.386 174.69 269.067 171.437 269.585 168.221C270.192 164.46 270.617 160.556 270.849 156.501C272.967 119.552 264.404 91.2984 249.931 70.2281C271.134 66.3207 282.955 51.7114 282.955 38.257C282.955 22.8254 267.433 11.5583 251.093 11.5583Z" fill="#D3D1D0"/>
<path d="M11.0457 26.6981C11.0457 42.3983 27.13 59.6853 55.4529 59.6853C60.4919 59.6853 65.5285 59.0842 70.5661 57.7101L78.0475 39.2924C78.0622 38.8547 78.0693 38.4184 78.0693 37.9831C78.0693 17.6811 62.3364 0 42.9069 0C26.5673 0 11.0457 11.267 11.0457 26.6981Z" fill="#31343B"/>
<path d="M26.1262 30.507C26.1262 40.0697 35.9229 50.5987 53.1734 50.5987C56.2424 50.5987 59.31 50.2325 62.3785 49.3955L66.9353 38.1778C66.9443 37.9111 66.9486 37.6454 66.9486 37.3801C66.9486 25.0146 57.366 14.246 45.532 14.246C35.58 14.246 26.1262 21.1082 26.1262 30.507Z" fill="#F59299"/>
<path d="M226.976 37.9831C226.976 38.4184 226.983 38.8552 226.998 39.2924L234.479 57.7101C239.518 59.0842 244.554 59.6853 249.593 59.6853C277.916 59.6853 294 42.3983 294 26.6981C294 11.267 278.478 0 262.138 0C242.709 0 226.976 17.6811 226.976 37.9831Z" fill="#31343B"/>
<path d="M238.456 37.3806C238.456 37.6459 238.46 37.9116 238.469 38.1783L243.026 49.396C246.095 50.233 249.162 50.5992 252.231 50.5992C269.482 50.5992 279.278 40.0702 279.278 30.5075C279.278 21.1087 269.825 14.2465 259.873 14.2465C248.039 14.246 238.456 25.0151 238.456 37.3806Z" fill="#F59299"/>
<path d="M23.1517 144.942C26.7649 207.973 76.1941 235.246 152.523 235.246C228.852 235.246 278.282 207.973 281.895 144.942C287.847 41.0961 209.446 5.92285 152.523 5.92285C95.5999 5.92285 17.1989 41.0961 23.1517 144.942Z" fill="#EDEDED"/>
<path d="M24.4158 156.662C33.2386 211.366 81.1041 235.246 152.523 235.246C223.942 235.246 271.807 211.366 280.63 156.662C266.247 201.981 219.492 221.981 152.523 221.981C85.5539 221.981 38.7991 201.981 24.4158 156.662Z" fill="#E3E3E3"/>
<path d="M114.554 59.3234C92.5433 49.7318 56.1252 69.1916 49.7731 102.013C46.3474 119.713 51.5106 138.528 68.9506 146.488C94.0827 157.959 126.619 139.82 133.979 104.586C139.145 79.8532 126.218 64.4055 114.554 59.3234Z" fill="#31343B"/>
<path d="M190.492 59.3229C178.829 64.405 165.901 79.8528 171.067 104.585C178.427 139.82 210.964 157.958 236.095 146.488C253.535 138.528 258.699 119.713 255.273 102.012C248.921 69.1911 212.504 49.7313 190.492 59.3229Z" fill="#31343B"/>
<path d="M95.6324 124.129C108.098 124.129 118.204 114.023 118.204 101.557C118.204 89.0915 108.098 78.986 95.6324 78.986C83.1666 78.986 73.061 89.0915 73.061 101.557C73.061 114.023 83.1666 124.129 95.6324 124.129Z" fill="white"/>
<path d="M95.6326 116.759C104.028 116.759 110.834 109.953 110.834 101.557C110.834 93.1619 104.028 86.356 95.6326 86.356C87.2371 86.356 80.4312 93.1619 80.4312 101.557C80.4312 109.953 87.2371 116.759 95.6326 116.759Z" fill="#31343B"/>
<path d="M89.972 102.625C92.7623 102.625 95.0242 100.363 95.0242 97.5723C95.0242 94.782 92.7623 92.52 89.972 92.52C87.1817 92.52 84.9197 94.782 84.9197 97.5723C84.9197 100.363 87.1817 102.625 89.972 102.625Z" fill="white"/>
<path d="M211.958 124.129C224.424 124.129 234.529 114.023 234.529 101.557C234.529 89.0915 224.424 78.986 211.958 78.986C199.492 78.986 189.386 89.0915 189.386 101.557C189.386 114.023 199.492 124.129 211.958 124.129Z" fill="white"/>
<path d="M211.958 116.759C220.353 116.759 227.159 109.953 227.159 101.557C227.159 93.1619 220.353 86.356 211.958 86.356C203.562 86.356 196.757 93.1619 196.757 101.557C196.757 109.953 203.562 116.759 211.958 116.759Z" fill="#31343B"/>
<path d="M206.297 102.625C209.088 102.625 211.35 100.363 211.35 97.5723C211.35 94.782 209.088 92.52 206.297 92.52C203.507 92.52 201.245 94.782 201.245 97.5723C201.245 100.363 203.507 102.625 206.297 102.625Z" fill="white"/>
<path d="M136.672 150.048C136.672 155.829 143.769 165.086 152.523 165.086C161.277 165.086 168.374 155.829 168.374 150.048C168.374 144.267 161.277 144.151 152.523 144.151C143.769 144.151 136.672 144.267 136.672 150.048Z" fill="#31343B"/>
<path d="M181.028 173.471C173.971 179.94 163.874 183.22 151.016 183.22C145.409 183.22 139.403 182.588 133.166 181.34C132.196 181.145 131.251 181.775 131.058 182.745C130.864 183.715 131.493 184.659 132.463 184.853C138.932 186.147 145.174 186.803 151.017 186.803C164.799 186.803 175.711 183.206 183.45 176.113C184.179 175.444 184.229 174.311 183.56 173.581C182.891 172.851 181.758 172.802 181.028 173.471Z" fill="#31343B"/>
<path d="M100.85 43.7342C99.8776 43.9142 99.2352 44.8487 99.4152 45.8217C99.5948 46.7946 100.529 47.436 101.503 47.2569C107.798 46.094 119.782 47.6676 125.145 56.8608C125.478 57.4316 126.077 57.7495 126.694 57.7495C127.001 57.7495 127.311 57.6713 127.595 57.505C128.45 57.0067 128.738 55.9097 128.24 55.0551C121.908 44.1993 108.39 42.3354 100.85 43.7342Z" fill="#31343B"/>
<path d="M176.806 55.0551C176.308 55.9096 176.597 57.0067 177.451 57.505C177.735 57.6708 178.045 57.7494 178.352 57.7494C178.968 57.7494 179.568 57.4311 179.901 56.8607C185.263 47.6675 197.248 46.093 203.543 47.2569C204.513 47.4369 205.45 46.795 205.631 45.8216C205.811 44.8491 205.168 43.9141 204.195 43.7341C196.658 42.3381 183.139 44.1992 176.806 55.0551Z" fill="#31343B"/>
<path d="M86.2034 166.9C94.5989 166.9 101.405 163.721 101.405 159.799C101.405 155.877 94.5989 152.698 86.2034 152.698C77.8079 152.698 71.002 155.877 71.002 159.799C71.002 163.721 77.8079 166.9 86.2034 166.9Z" fill="#E68075"/>
<path d="M218.843 166.9C227.238 166.9 234.044 163.721 234.044 159.799C234.044 155.877 227.238 152.698 218.843 152.698C210.447 152.698 203.641 155.877 203.641 159.799C203.641 163.721 210.447 166.9 218.843 166.9Z" fill="#E68075"/>
</svg>
