<svg width="282" height="279" viewBox="0 0 282 279" fill="none" xmlns="http://www.w3.org/2000/svg">
<path d="M135.188 278.697C187.021 278.697 248.052 269.12 265.488 220.576C287.885 158.209 231.369 12.1632 135.188 12.1632C53.8101 12.1632 2.88279e-09 116.607 2.88279e-09 190.209C-0.00049847 260.642 64.6429 278.697 135.188 278.697Z" fill="#D3D1D0"/>
<path d="M11.6235 178.046C11.6235 251.647 82.3802 266.534 146.811 266.534C211.242 266.534 282 251.647 282 178.046C282 104.444 228.189 0 146.811 0C65.4337 0 11.6235 104.444 11.6235 178.046Z" fill="#31343B"/>
<path d="M146.812 255.266C83.8996 255.266 14.9688 241.062 11.7531 171.874C11.6719 173.952 11.624 176.012 11.624 178.045C11.624 251.647 82.3802 266.534 146.812 266.534C211.243 266.534 282 251.647 282 178.045C282 176.012 281.952 173.952 281.871 171.874C278.655 241.062 209.725 255.266 146.812 255.266Z" fill="#2B2D33"/>
<path d="M146.812 170.425C136.455 170.425 142.471 65.1987 99.5822 65.1987C67.0768 65.1987 37.4949 103.003 37.4949 145.94C37.4949 231.386 96.1806 238.942 146.812 238.942C197.443 238.942 256.129 231.386 256.129 145.94C256.129 103.003 226.547 65.1987 194.042 65.1987C151.152 65.1987 157.169 170.425 146.812 170.425Z" fill="#EDEDED"/>
<path d="M97.95 145.752C111.068 145.752 121.703 135.118 121.703 122C121.703 108.881 111.068 98.2469 97.95 98.2469C84.8317 98.2469 74.1973 108.881 74.1973 122C74.1973 135.118 84.8317 145.752 97.95 145.752Z" fill="white"/>
<path d="M97.9499 137.997C106.785 137.997 113.947 130.835 113.947 122C113.947 113.165 106.785 106.003 97.9499 106.003C89.115 106.003 81.9529 113.165 81.9529 122C81.9529 130.835 89.115 137.997 97.9499 137.997Z" fill="#31343B"/>
<path d="M91.9937 123.123C94.9301 123.123 97.3104 120.742 97.3104 117.806C97.3104 114.87 94.9301 112.489 91.9937 112.489C89.0574 112.489 86.677 114.87 86.677 117.806C86.677 120.742 89.0574 123.123 91.9937 123.123Z" fill="white"/>
<path d="M195.674 145.752C208.792 145.752 219.426 135.118 219.426 122C219.426 108.881 208.792 98.2469 195.674 98.2469C182.555 98.2469 171.921 108.881 171.921 122C171.921 135.118 182.555 145.752 195.674 145.752Z" fill="white"/>
<path d="M195.674 137.997C204.508 137.997 211.67 130.835 211.67 122C211.67 113.165 204.508 106.003 195.674 106.003C186.839 106.003 179.677 113.165 179.677 122C179.677 130.835 186.839 137.997 195.674 137.997Z" fill="#31343B"/>
<path d="M189.717 123.123C192.653 123.123 195.034 120.742 195.034 117.806C195.034 114.87 192.653 112.489 189.717 112.489C186.78 112.489 184.4 114.87 184.4 117.806C184.4 120.742 186.78 123.123 189.717 123.123Z" fill="white"/>
<path d="M146.812 158.605C130.359 158.605 115.806 163.267 106.951 166.907C102.41 168.773 101.481 174.813 105.26 177.948C113.877 185.095 129.264 195.314 146.812 195.314C164.359 195.314 179.747 185.095 188.363 177.948C192.142 174.813 191.214 168.773 186.672 166.907C177.818 163.267 163.264 158.605 146.812 158.605Z" fill="#FFCE4B"/>
<path d="M181.274 172.137C169.514 176.293 157.919 178.399 146.812 178.399C135.705 178.399 124.11 176.292 112.349 172.137C111.17 171.719 109.878 172.338 109.462 173.516C109.046 174.694 109.664 175.986 110.841 176.402C123.087 180.73 135.189 182.924 146.812 182.924C158.434 182.924 170.536 180.73 182.782 176.402C183.96 175.986 184.578 174.694 184.161 173.516C183.745 172.338 182.453 171.718 181.274 172.137Z" fill="#D9B03F"/>
<path d="M97.3105 160.889C104.536 160.889 110.393 158.152 110.393 154.777C110.393 151.401 104.536 148.665 97.3105 148.665C90.085 148.665 84.2275 151.401 84.2275 154.777C84.2275 158.152 90.085 160.889 97.3105 160.889Z" fill="#E68075"/>
<path d="M195.674 160.889C202.899 160.889 208.757 158.152 208.757 154.777C208.757 151.401 202.899 148.665 195.674 148.665C188.448 148.665 182.591 151.401 182.591 154.777C182.591 158.152 188.448 160.889 195.674 160.889Z" fill="#E68075"/>
<path d="M99.269 82.8921C94.2638 82.8921 89.5129 84.2559 85.5311 86.835C84.6568 87.4013 84.4075 88.5687 84.9738 89.4425C85.3347 89.9993 85.9398 90.3024 86.5579 90.3024C86.9089 90.3024 87.2643 90.2047 87.5808 89.9998C90.9515 87.8165 94.9936 86.6625 99.2695 86.6625C102.453 86.6625 105.681 87.321 108.607 88.5652C109.564 88.976 110.672 88.5268 111.08 87.5698C111.488 86.6117 111.041 85.5041 110.083 85.0968C106.695 83.6543 102.956 82.8921 99.269 82.8921Z" fill="#31343B"/>
<path d="M194.355 82.8921C190.668 82.8921 186.929 83.6543 183.541 85.0968C182.583 85.5041 182.137 86.6117 182.544 87.5698C182.952 88.5273 184.06 88.9755 185.017 88.5652C187.943 87.3205 191.171 86.6625 194.355 86.6625C198.631 86.6625 202.673 87.8165 206.043 89.9998C206.36 90.2047 206.715 90.3024 207.066 90.3024C207.684 90.3024 208.289 89.9988 208.65 89.4425C209.217 88.5682 208.967 87.4013 208.093 86.835C204.111 84.2559 199.36 82.8921 194.355 82.8921Z" fill="#31343B"/>
</svg>
