<svg width="309" height="254" viewBox="0 0 309 254" fill="none" xmlns="http://www.w3.org/2000/svg">
<path d="M293.913 11.967C266.636 10.3637 240.585 21.7026 217.769 37.4689C199.764 27.4021 177.126 21.3636 148.854 21.3636C120.582 21.3636 97.9434 27.4021 79.939 37.4694C57.1227 21.7031 31.0711 10.3642 3.79449 11.9675C1.25708 22.3728 0 33.0008 0 43.5853C0 69.6416 7.62435 95.4336 22.5122 117.006C16.9779 137.775 14.8913 162.791 15.9702 178.09C20.1429 196.119 19.3768 248.778 133.947 252.937C205.927 255.557 281.982 243.273 281.982 171.284C281.982 154.074 280.066 135.284 275.196 117.005C290.084 95.4331 297.708 69.6416 297.708 43.5853C297.708 33.0003 296.451 22.3723 293.913 11.967Z" fill="#D3D1D0"/>
<path d="M15.0862 0.151126C12.5488 10.5564 11.2917 21.1845 11.2917 31.769C11.2917 66.8413 25.093 101.443 51.8501 125.906L106.083 36.8404C80.0477 15.6269 48.4851 -1.81246 15.0862 0.151126Z" fill="#F8B6B9"/>
<path d="M27.64 18.1508C26.0464 24.6861 25.2566 31.3608 25.2566 38.0089C25.2566 60.0369 33.9249 81.7685 50.7299 97.1329L84.7917 41.1938C68.44 27.8705 48.6167 16.9175 27.64 18.1508Z" fill="#F59299"/>
<path d="M214.209 36.8408L268.442 125.906C295.199 101.443 309 66.8418 309 31.7694C309 21.1844 307.743 10.5564 305.206 0.151564C271.807 -1.81251 240.244 15.6268 214.209 36.8408Z" fill="#F8B6B9"/>
<path d="M235.5 41.1942L269.562 97.1334C286.367 81.769 295.035 60.0374 295.035 38.0094C295.035 31.3613 294.245 24.6861 292.651 18.1513C271.675 16.9174 251.852 27.8704 235.5 41.1942Z" fill="#F59299"/>
<path d="M160.146 9.54724C53.5064 9.54724 27.0181 95.4477 27.0181 159.468C27.0181 223.488 86.6214 241.386 160.146 241.386C233.671 241.386 293.274 223.489 293.274 159.468C293.274 95.4477 266.786 9.54724 160.146 9.54724Z" fill="#F8B6B9"/>
<path d="M27.2622 166.274C31.3869 224.761 89.2994 241.386 160.146 241.386C230.993 241.386 288.905 224.762 293.03 166.274C282.007 214.985 226.711 229.279 160.146 229.279C93.582 229.279 38.2859 214.985 27.2622 166.274Z" fill="#E8AAAD"/>
<path d="M210.57 117.845C223.314 117.845 233.644 107.514 233.644 94.7707C233.644 82.0271 223.314 71.6963 210.57 71.6963C197.826 71.6963 187.496 82.0271 187.496 94.7707C187.496 107.514 197.826 117.845 210.57 117.845Z" fill="white"/>
<path d="M210.57 110.311C219.153 110.311 226.11 103.353 226.11 94.7707C226.11 86.1881 219.153 79.2305 210.57 79.2305C201.988 79.2305 195.03 86.1881 195.03 94.7707C195.03 103.353 201.988 110.311 210.57 110.311Z" fill="#31343B"/>
<path d="M204.784 95.8616C207.636 95.8616 209.948 93.5492 209.948 90.6967C209.948 87.8442 207.636 85.5319 204.784 85.5319C201.931 85.5319 199.619 87.8442 199.619 90.6967C199.619 93.5492 201.931 95.8616 204.784 95.8616Z" fill="white"/>
<path d="M109.722 117.845C122.466 117.845 132.796 107.514 132.796 94.7707C132.796 82.0271 122.466 71.6963 109.722 71.6963C96.9782 71.6963 86.6475 82.0271 86.6475 94.7707C86.6475 107.514 96.9782 117.845 109.722 117.845Z" fill="white"/>
<path d="M109.722 110.311C118.304 110.311 125.262 103.353 125.262 94.7707C125.262 86.1881 118.304 79.2305 109.722 79.2305C101.139 79.2305 94.1816 86.1881 94.1816 94.7707C94.1816 103.353 101.139 110.311 109.722 110.311Z" fill="#31343B"/>
<path d="M103.936 95.8616C106.788 95.8616 109.101 93.5492 109.101 90.6967C109.101 87.8442 106.788 85.5319 103.936 85.5319C101.083 85.5319 98.7708 87.8442 98.7708 90.6967C98.7708 93.5492 101.083 95.8616 103.936 95.8616Z" fill="white"/>
<path d="M160.146 180.732C185.713 180.732 206.44 165.65 206.44 147.046C206.44 128.441 185.713 113.36 160.146 113.36C134.579 113.36 113.853 128.441 113.853 147.046C113.853 165.65 134.579 180.732 160.146 180.732Z" fill="#F8D1D3"/>
<path d="M142.516 164.442C146.612 164.442 149.933 156.653 149.933 147.046C149.933 137.438 146.612 129.649 142.516 129.649C138.42 129.649 135.099 137.438 135.099 147.046C135.099 156.653 138.42 164.442 142.516 164.442Z" fill="#F59299"/>
<path d="M177.776 164.442C181.872 164.442 185.193 156.653 185.193 147.046C185.193 137.438 181.872 129.649 177.776 129.649C173.68 129.649 170.36 137.438 170.36 147.046C170.36 156.653 173.68 164.442 177.776 164.442Z" fill="#F59299"/>
<path d="M220.923 134.413C229.506 134.413 236.463 131.163 236.463 127.154C236.463 123.144 229.506 119.894 220.923 119.894C212.34 119.894 205.383 123.144 205.383 127.154C205.383 131.163 212.34 134.413 220.923 134.413Z" fill="#E68075"/>
<path d="M99.3695 134.413C107.952 134.413 114.91 131.163 114.91 127.153C114.91 123.144 107.952 119.894 99.3695 119.894C90.7869 119.894 83.8293 123.144 83.8293 127.153C83.8293 131.163 90.7869 134.413 99.3695 134.413Z" fill="#E68075"/>
<path d="M95.959 61.1495C95.0747 61.641 94.7566 62.7562 95.2476 63.6405C95.7391 64.5237 96.8538 64.8438 97.7381 64.3518C103.966 60.89 114.859 60.413 121.147 65.2176C121.478 65.4714 121.87 65.5939 122.257 65.5939C122.808 65.5939 123.353 65.3464 123.714 64.8743C124.328 64.071 124.175 62.9214 123.371 62.3074C115.699 56.4457 103.169 57.1425 95.959 61.1495Z" fill="#31343B"/>
<path d="M196.753 62.3069C195.949 62.9209 195.795 64.0705 196.41 64.8738C196.77 65.3459 197.315 65.5934 197.866 65.5934C198.254 65.5934 198.645 65.4709 198.977 65.2171C205.266 60.4135 216.158 60.8905 222.386 64.3513C223.271 64.8433 224.386 64.5237 224.877 63.64C225.368 62.7558 225.049 61.6405 224.165 61.149C216.955 57.1429 204.424 56.4462 196.753 62.3069Z" fill="#31343B"/>
<path d="M179.188 192.327C166.552 197.408 153.739 197.407 141.104 192.327C140.165 191.949 139.099 192.405 138.722 193.343C138.345 194.282 138.799 195.348 139.738 195.726C146.509 198.448 153.326 199.809 160.146 199.809C166.964 199.809 173.784 198.447 180.554 195.726C181.493 195.348 181.947 194.282 181.57 193.343C181.193 192.405 180.128 191.951 179.188 192.327Z" fill="#31343B"/>
<path d="M142.915 186.937C142.813 185.93 141.911 185.194 140.909 185.299C139.903 185.4 139.169 186.298 139.271 187.304C139.908 193.619 136.67 197.894 135.662 199.054C135.578 199.15 135.463 199.283 135.357 199.494C134.905 200.399 135.271 201.498 136.176 201.951C136.439 202.083 136.719 202.145 136.994 202.145C137.601 202.145 138.188 201.842 138.532 201.309C138.479 201.39 138.436 201.444 138.426 201.456C139.678 200.016 143.7 194.713 142.915 186.937ZM138.633 201.132C138.633 201.132 138.632 201.133 138.632 201.134C138.632 201.133 138.633 201.132 138.633 201.132ZM138.632 201.134L138.632 201.136L138.632 201.134Z" fill="#31343B"/>
<path d="M179.383 185.299C178.373 185.194 177.478 185.931 177.377 186.937C176.596 194.673 180.571 199.959 181.868 201.459C182.22 201.898 182.751 202.145 183.299 202.145C183.576 202.145 183.858 202.081 184.123 201.948C185.026 201.492 185.388 200.39 184.932 199.487C184.828 199.28 184.714 199.149 184.631 199.054C183.623 197.894 180.384 193.621 181.021 187.304C181.123 186.298 180.389 185.4 179.383 185.299Z" fill="#31343B"/>
</svg>
