<svg width="282" height="219" viewBox="0 0 282 219" fill="none" xmlns="http://www.w3.org/2000/svg">
<path d="M189.224 77.1151C193.644 64.985 199.475 52.5018 208.502 43.0759C217.142 49.6816 225.367 56.7805 233.767 63.6812C238.274 67.3837 243.778 72.7981 249.745 73.9579C267.273 77.3649 267.597 52.9725 264.094 42.1248C259.305 27.2957 248.672 13.207 235.012 5.52327C220.204 -2.80608 201.253 -1.60834 188.005 9.23618C172.921 21.5839 166.517 42.1026 161.039 60.0554C143.102 52.7303 123.031 52.7303 105.095 60.0554C100.123 43.7606 94.5147 26.1194 82.5977 13.4319C70.9903 1.07407 52.755 -3.45734 36.833 2.79653C21.8371 8.68648 10.2269 22.425 3.98433 36.9727C-0.622843 47.7097 -4.43086 70.9398 11.7632 73.8822C18.5962 75.1238 24.2653 70.1564 29.2702 66.1883C38.8291 58.6094 47.9343 50.4892 57.6306 43.0755C66.9776 52.8355 72.9316 65.8611 77.3897 78.4543C60.201 95.1992 49.03 118.707 48.0028 142.353C41.5527 144.486 35.5495 147.772 31.3755 153.159C34.847 154.008 38.1976 155.122 41.4443 156.489C37.4827 160.175 34.5629 164.782 32.8505 169.96C35.9863 170.259 39.1161 170.761 42.1608 171.614C39.5227 177.665 37.7164 183.987 36.9644 190.376C45.405 188.939 54.0942 187.925 62.6332 189.093C88.5195 221.182 140.149 226.306 176.066 209.917C186.7 205.065 196.385 198.004 203.706 188.84C211.545 188.111 219.442 189.061 227.168 190.376C226.416 183.987 224.61 177.665 221.972 171.614C225.016 170.761 228.146 170.259 231.282 169.96C229.57 164.782 226.65 160.175 222.689 156.489C225.935 155.122 229.286 154.008 232.757 153.159C229.025 148.341 223.828 145.209 218.158 143.075C217.33 119.186 206.107 95.3693 188.743 78.4539C188.903 78.0077 189.063 77.5616 189.224 77.1151Z" fill="#746B6B" fill-opacity="0.3"/>
<path d="M130.198 91.828C117.12 59.1329 111.952 0 66.206 0C36.4073 0 14.9113 35.0508 14.9113 53.5492C14.9113 64.8882 18.4706 74.1388 29.748 74.1388C37.4402 74.1388 50.3582 60.0493 72.5546 43.0786C88.9328 60.167 100.66 97.6136 100.66 121.189C100.66 122.911 100.626 124.622 100.561 126.321L130.198 91.828Z" fill="#DEDEDE"/>
<path d="M72.5546 43.0787C87.9623 59.1546 99.2526 93.2466 100.536 116.859C103.71 116.797 106.877 116.418 109.806 115.561L117.731 106.338C118.893 87.2176 96.1792 40.6574 88.0316 38.6206C78.3542 36.2009 72.5546 43.0787 72.5546 43.0787Z" fill="#F59299"/>
<path d="M266.233 74.1388C277.511 74.1388 281.07 64.8882 281.07 53.5492C281.07 35.0507 259.574 0 229.775 0C184.03 0 178.861 59.1328 165.783 91.828L195.42 126.321C195.355 124.623 195.321 122.911 195.321 121.19C195.321 97.614 207.049 60.1674 223.427 43.079C245.623 60.0493 258.541 74.1388 266.233 74.1388Z" fill="#DEDEDE"/>
<path d="M207.949 38.6202C199.802 40.657 177.088 87.2172 178.25 106.338L186.175 115.561C189.104 116.418 192.271 116.796 195.445 116.859C196.729 93.2466 208.019 59.1542 223.427 43.0783C223.426 43.0787 217.627 36.201 207.949 38.6202Z" fill="#F59299"/>
<path d="M62.8438 145.909C62.8438 191.27 100.965 218.739 147.991 218.739C195.016 218.739 233.138 191.27 233.138 145.909C233.138 100.548 195.016 54.4729 147.991 54.4729C100.965 54.4729 62.8438 100.549 62.8438 145.909Z" fill="#DEDEDE"/>
<path d="M63.9963 159.146C70.6754 196.556 105.735 218.739 147.991 218.739C190.246 218.739 225.306 196.556 231.985 159.146C222.015 192.006 188.191 211.246 147.991 211.246C107.79 211.246 73.9659 192.006 63.9963 159.146Z" fill="#D2D1D1"/>
<path d="M146.99 198.619C168.431 198.619 185.811 184.737 185.811 167.612C185.811 150.488 168.431 136.606 146.99 136.606C125.55 136.606 108.17 150.488 108.17 167.612C108.17 184.737 125.55 198.619 146.99 198.619Z" fill="white"/>
<path d="M134.823 145.567C134.823 150.004 140.271 157.11 146.99 157.11C153.71 157.11 159.158 150.004 159.158 145.567C159.158 141.129 153.71 141.041 146.99 141.041C140.271 141.04 134.823 141.129 134.823 145.567Z" fill="#31343B"/>
<path d="M145.983 145.13V164.374C145.676 165.09 144.161 168.084 140.324 168.084C136.127 168.084 135.057 164.259 135.014 164.101C134.875 163.562 134.325 163.236 133.787 163.376C133.249 163.515 132.924 164.064 133.063 164.603C133.552 166.504 135.699 170.099 140.324 170.099C144.895 170.099 147.305 166.701 147.94 164.904C147.979 164.796 147.998 164.682 147.998 164.567V145.13C147.998 144.573 147.547 144.122 146.991 144.122C146.434 144.122 145.983 144.573 145.983 145.13Z" fill="#31343B"/>
<path d="M146.991 144.122C146.434 144.122 145.983 144.573 145.983 145.13V164.567C145.983 164.682 146.003 164.796 146.041 164.904C146.677 166.701 149.087 170.099 153.657 170.099C158.282 170.099 160.429 166.504 160.918 164.603C161.057 164.064 160.733 163.515 160.194 163.376C159.655 163.236 159.106 163.562 158.967 164.101C158.925 164.263 157.893 168.084 153.657 168.084C149.816 168.084 148.302 165.082 147.998 164.375V145.13C147.998 144.573 147.547 144.122 146.991 144.122Z" fill="#31343B"/>
<path d="M99.8415 148.912C99.507 148.88 99.2164 149.132 99.189 149.464C99.1612 149.797 99.4083 150.089 99.7411 150.117C109.745 150.95 117.907 152.678 125.429 155.554C125.5 155.581 125.573 155.594 125.645 155.594C125.888 155.594 126.118 155.446 126.209 155.205C126.329 154.894 126.173 154.544 125.861 154.425C118.23 151.507 109.962 149.755 99.8415 148.912Z" fill="#31343B"/>
<path d="M99.6694 159.965C99.3394 160.017 99.1141 160.326 99.1657 160.656C99.2124 160.954 99.4695 161.167 99.7621 161.167C99.7932 161.167 99.8246 161.165 99.856 161.16C108.005 159.887 116.424 159.78 123.675 159.78C124.009 159.78 124.279 159.509 124.279 159.175C124.279 158.842 124.009 158.571 123.675 158.571C116.378 158.571 107.904 158.679 99.6694 159.965Z" fill="#31343B"/>
<path d="M122.538 163.761C116.225 165.398 110.077 168.37 104.265 172.598C103.995 172.794 103.936 173.172 104.132 173.442C104.25 173.605 104.434 173.691 104.621 173.691C104.744 173.691 104.869 173.653 104.976 173.576C110.665 169.438 116.676 166.53 122.841 164.932C123.165 164.848 123.359 164.518 123.275 164.195C123.192 163.872 122.861 163.677 122.538 163.761Z" fill="#31343B"/>
<path d="M168.121 154.425C167.809 154.544 167.653 154.894 167.772 155.206C167.864 155.447 168.094 155.595 168.337 155.595C168.409 155.595 168.481 155.582 168.553 155.554C176.074 152.679 184.237 150.951 194.241 150.117C194.573 150.09 194.82 149.797 194.793 149.465C194.765 149.132 194.475 148.883 194.14 148.913C184.02 149.756 175.752 151.507 168.121 154.425Z" fill="#31343B"/>
<path d="M170.306 158.571C169.973 158.571 169.702 158.842 169.702 159.175C169.702 159.509 169.973 159.78 170.306 159.78C177.557 159.78 185.976 159.887 194.125 161.16C194.157 161.165 194.188 161.167 194.219 161.167C194.512 161.167 194.769 160.955 194.816 160.656C194.867 160.326 194.641 160.017 194.312 159.965C186.077 158.679 177.603 158.571 170.306 158.571Z" fill="#31343B"/>
<path d="M171.442 163.761C171.12 163.676 170.79 163.871 170.706 164.194C170.622 164.517 170.816 164.847 171.139 164.931C177.305 166.529 183.315 169.438 189.005 173.575C189.112 173.653 189.236 173.691 189.36 173.691C189.546 173.691 189.731 173.604 189.849 173.442C190.045 173.172 189.986 172.794 189.716 172.597C183.903 168.371 177.755 165.398 171.442 163.761Z" fill="#31343B"/>
<path d="M112.717 131.311C120.813 131.311 127.375 124.748 127.375 116.653C127.375 108.558 120.813 101.995 112.717 101.995C104.622 101.995 98.0597 108.558 98.0597 116.653C98.0597 124.748 104.622 131.311 112.717 131.311Z" fill="white"/>
<path d="M112.718 126.525C118.17 126.525 122.59 122.106 122.59 116.653C122.59 111.201 118.17 106.781 112.718 106.781C107.265 106.781 102.845 111.201 102.845 116.653C102.845 122.106 107.265 126.525 112.718 126.525Z" fill="#31343B"/>
<path d="M109.042 117.346C110.854 117.346 112.323 115.877 112.323 114.065C112.323 112.253 110.854 110.784 109.042 110.784C107.23 110.784 105.761 112.253 105.761 114.065C105.761 115.877 107.23 117.346 109.042 117.346Z" fill="white"/>
<path d="M181.263 131.311C189.359 131.311 195.921 124.748 195.921 116.653C195.921 108.558 189.359 101.995 181.263 101.995C173.168 101.995 166.606 108.558 166.606 116.653C166.606 124.748 173.168 131.311 181.263 131.311Z" fill="white"/>
<path d="M181.263 126.525C186.716 126.525 191.135 122.106 191.135 116.653C191.135 111.201 186.716 106.781 181.263 106.781C175.811 106.781 171.391 111.201 171.391 116.653C171.391 122.106 175.811 126.525 181.263 126.525Z" fill="#31343B"/>
<path d="M177.588 117.346C179.4 117.346 180.869 115.877 180.869 114.065C180.869 112.253 179.4 110.784 177.588 110.784C175.776 110.784 174.307 112.253 174.307 114.065C174.307 115.877 175.776 117.346 177.588 117.346Z" fill="white"/>
<path d="M112.718 143.232C118.17 143.232 122.59 141.168 122.59 138.621C122.59 136.074 118.17 134.009 112.718 134.009C107.265 134.009 102.845 136.074 102.845 138.621C102.845 141.168 107.265 143.232 112.718 143.232Z" fill="#E68075"/>
<path d="M181.263 143.232C186.716 143.232 191.135 141.168 191.135 138.621C191.135 136.074 186.716 134.009 181.263 134.009C175.811 134.009 171.391 136.074 171.391 138.621C171.391 141.168 175.811 143.232 181.263 143.232Z" fill="#E68075"/>
<path d="M69.7895 188.594C75.6174 188.594 81.3752 189.342 86.7722 191.384L67.494 141.04C59.3758 143.07 51.4466 146.518 46.2994 153.162C49.7709 154.011 53.1215 155.125 56.3682 156.492C52.4066 160.178 49.4868 164.785 47.7744 169.963C50.9102 170.262 54.04 170.764 57.0847 171.617C54.4466 177.668 52.6403 183.99 51.8883 190.379C57.7174 189.387 63.7903 188.594 69.7895 188.594Z" fill="#DEDEDE"/>
<path d="M226.487 141.04L207.209 191.384C212.606 189.342 218.364 188.594 224.192 188.594C230.191 188.594 236.264 189.387 242.092 190.379C241.34 183.99 239.534 177.668 236.896 171.617C239.941 170.764 243.071 170.262 246.206 169.963C244.494 164.785 241.574 160.178 237.613 156.492C240.859 155.125 244.21 154.011 247.681 153.162C242.534 146.518 234.605 143.07 226.487 141.04Z" fill="#DEDEDE"/>
<path d="M182.54 90.4329C177.823 90.4329 173.248 92.082 169.99 94.9578C169.572 95.3258 169.533 95.9625 169.901 96.3796C170.1 96.6057 170.378 96.7206 170.657 96.7206C170.894 96.7206 171.131 96.6376 171.323 96.4687C174.218 93.9132 178.307 92.4479 182.54 92.4479C185.781 92.4479 188.821 93.293 191.328 94.8909C191.798 95.1891 192.421 95.0517 192.72 94.5826C193.019 94.1135 192.88 93.4905 192.411 93.1914C189.58 91.3868 186.167 90.4329 182.54 90.4329Z" fill="#31343B"/>
<path d="M101.569 93.1922C101.1 93.4912 100.962 94.1143 101.261 94.5834C101.56 95.0525 102.182 95.1907 102.652 94.8917C105.16 93.2933 108.199 92.4486 111.44 92.4486C115.673 92.4486 119.762 93.914 122.658 96.4694C122.849 96.6383 123.087 96.7213 123.324 96.7213C123.603 96.7213 123.88 96.6061 124.079 96.3804C124.448 95.9633 124.408 95.3265 123.991 94.9586C120.732 92.0827 116.157 90.4336 111.44 90.4336C107.814 90.4332 104.401 91.3871 101.569 93.1922Z" fill="#31343B"/>
</svg>
