<svg width="323" height="256" viewBox="0 0 323 256" fill="none" xmlns="http://www.w3.org/2000/svg">
<path d="M53.3708 18.2128C49.0481 31.7104 46.7214 44.5863 46.7214 55.3528C46.7214 76.146 56.1004 85.0607 63.4509 88.3091L92.3306 51.9424C88.2332 43.2569 82.0965 35.3977 74.5566 29.2921C68.0315 24.0085 60.8492 20.2679 53.3708 18.2128Z" fill="#A3B2C5"/>
<path d="M243.415 51.9429L272.295 88.3095C279.645 85.0607 289.024 76.1465 289.024 55.3533C289.024 44.5863 286.697 31.7109 282.375 18.2133C274.896 20.2684 267.714 24.009 261.189 29.2931C253.649 35.3982 247.512 43.2574 243.415 51.9429Z" fill="#A3B2C5"/>
<path d="M269.416 156.457C269.701 152.402 269.984 134.455 269.814 129.794C269.649 125.167 269.152 121.675 269.135 121.505C268.758 118.577 268.242 115.723 267.586 112.949C280.077 106.935 292.813 92.6624 292.813 65.7041C292.813 47.0004 287.11 26.6597 280.697 10.5449C253.272 11.7066 228.391 29.9827 216.449 55.0382C212.387 53.2316 208.157 51.6306 203.783 50.2327C170.498 39.6065 126.445 40.7913 94.4128 55.0353C82.4694 29.9818 57.5888 11.7066 30.1661 10.5449C23.7529 26.6597 18.0494 47.0004 18.0494 65.7041C18.0494 92.661 30.7849 106.934 43.2744 112.948C42.3777 116.744 41.774 120.527 41.4031 124.38C41.3148 125.306 41.2274 126.4 41.1679 127.333C40.7403 134.181 41.2203 153.242 41.4466 156.457C38.6631 160.062 35.503 163.44 31.8739 166.281C31.1213 166.87 30.3574 167.428 29.5826 167.958C29.1952 168.222 28.805 168.479 28.4115 168.728C19.9306 174.106 10.6673 175.619 0.596191 174.94C4.24377 181.952 7.64993 186.843 7.8526 187.184H7.85306C8.14407 187.618 9.41444 189.46 9.44656 189.506C9.44656 189.506 9.44656 189.506 9.44656 189.506C72.1338 278.747 241.809 277.501 303.629 186.187C307.823 179.731 310.231 175.002 310.266 174.941C291.11 176.144 280.213 170.438 269.416 156.457Z" fill="#D3D1D0"/>
<path d="M30.4905 55.3527C30.4905 93.3275 55.7641 106.136 70.0205 106.136L110.827 54.749C101.324 24.6556 73.5863 1.50551 42.6067 0.193115C36.194 16.3084 30.4905 36.649 30.4905 55.3527Z" fill="#74808E"/>
<path d="M224.918 54.749L265.725 106.136C279.981 106.136 305.255 93.3275 305.255 55.3527C305.255 36.6491 299.551 16.3089 293.138 0.193604C262.159 1.50599 234.421 24.6556 224.918 54.749Z" fill="#74808E"/>
<path d="M13.0378 164.589C69.8854 273.914 267.757 270.266 322.707 164.589C303.443 165.81 292.578 159.988 281.857 146.106C282.199 141.247 282.323 124.636 282.323 122.842C282.323 64.7224 230.032 32.4441 167.873 32.9189C105.822 32.4446 53.4224 64.6208 53.4224 122.842C53.4224 124.637 53.5457 141.248 53.8878 146.106C43.1671 159.988 30.4906 165.81 13.0378 164.589Z" fill="#74808E"/>
<path d="M13.0378 164.589C69.8854 273.914 267.757 270.266 322.707 164.589C303.443 165.81 292.578 159.988 281.857 146.106C282.199 141.247 282.323 124.636 282.323 122.842C282.323 64.7224 230.032 32.4441 167.873 32.9189C105.822 32.4446 53.4224 64.6208 53.4224 122.842C53.4224 124.637 53.5457 141.248 53.8878 146.106C43.1671 159.988 30.4906 165.81 13.0378 164.589Z" fill="#74808E"/>
<path d="M13.0378 164.589C69.8854 273.914 267.757 270.266 322.707 164.589C303.443 165.81 292.578 159.988 281.857 146.106C282.199 141.247 282.323 124.636 282.323 122.842C282.323 64.7224 230.032 32.4441 167.873 32.9189C105.822 32.4446 53.4224 64.6208 53.4224 122.842C53.4224 124.637 53.5457 141.248 53.8878 146.106C43.1671 159.988 30.4906 165.81 13.0378 164.589Z" fill="#74808E"/>
<path d="M13.0378 164.589C69.8854 273.914 267.757 270.266 322.707 164.589C303.443 165.81 292.578 159.988 281.857 146.106C282.199 141.247 282.323 124.636 282.323 122.842C282.323 64.7224 230.032 32.4441 167.873 32.9189C105.822 32.4446 53.4224 64.6208 53.4224 122.842C53.4224 124.637 53.5457 141.248 53.8878 146.106C43.1671 159.988 30.4906 165.81 13.0378 164.589Z" fill="#74808E"/>
<path d="M119.52 39.88C141.187 78.4675 151.659 122.998 152.847 166.96C152.847 166.96 167.872 168.11 167.872 166.96C167.872 168.11 182.898 166.96 182.898 166.96C184.086 122.999 194.558 78.4685 216.224 39.881C201.455 35.16 185.041 32.7875 167.872 32.9189C150.715 32.7875 134.298 35.1581 119.52 39.88Z" fill="#31343B"/>
<path d="M167.872 146.842C135.466 146.842 109.194 172.622 109.194 193.431C109.194 214.239 135.465 222.197 167.872 222.197C200.28 222.197 226.551 214.239 226.551 193.431C226.551 172.622 200.28 146.842 167.872 146.842Z" fill="#A3B2C5"/>
<path d="M150.897 159.92C150.897 166.111 158.497 176.025 167.872 176.025C177.248 176.025 184.847 166.112 184.847 159.92C184.847 153.73 177.248 153.605 167.872 153.605C158.498 153.605 150.897 153.729 150.897 159.92Z" fill="#31343B"/>
<path d="M166.25 158.011V184.815C165.807 185.818 163.717 189.819 158.572 189.819C152.89 189.819 151.432 184.638 151.374 184.425C151.151 183.556 150.265 183.032 149.398 183.258C148.53 183.481 148.007 184.366 148.231 185.234C148.927 187.942 151.986 193.065 158.572 193.065C166.694 193.065 169.296 185.974 169.403 185.672C169.464 185.498 169.496 185.315 169.496 185.131V158.011C169.496 157.114 168.769 156.388 167.873 156.388C166.976 156.388 166.25 157.115 166.25 158.011Z" fill="#31343B"/>
<path d="M167.873 156.388C166.977 156.388 166.25 157.115 166.25 158.011V185.131C166.25 185.315 166.281 185.498 166.343 185.672C166.45 185.974 169.051 193.065 177.174 193.065C183.76 193.065 186.818 187.943 187.515 185.234C187.738 184.369 187.218 183.491 186.355 183.264C185.493 183.038 184.606 183.555 184.374 184.416C184.314 184.637 182.856 189.818 177.174 189.818C172.016 189.818 169.941 185.833 169.496 184.816V158.011C169.496 157.115 168.769 156.388 167.873 156.388Z" fill="#31343B"/>
<path d="M13.0378 164.589C20.1034 178.178 29.3497 190.019 40.2277 200.138C85.8273 181.288 140.176 151.506 140.176 125.643C140.176 109.342 124.596 99.3557 109.719 98.9787C94.4585 98.5918 73.8566 103.462 54.1674 111.154C53.6813 114.926 53.4224 118.82 53.4224 122.843C53.4224 124.637 53.5457 141.248 53.8878 146.106C43.1671 159.988 30.4906 165.81 13.0378 164.589Z" fill="#31343B"/>
<path d="M281.577 111.154C261.888 103.462 241.286 98.5918 226.026 98.9787C211.149 99.3557 195.569 109.342 195.569 125.643C195.569 149.972 247.789 183.422 291.941 202.996C304.485 192.219 315.002 179.408 322.707 164.589C303.443 165.81 292.578 159.988 281.857 146.106C282.199 141.247 282.323 124.636 282.323 122.842C282.323 118.82 282.064 114.926 281.577 111.154Z" fill="#31343B"/>
<path d="M49.7858 196.077C46.5719 197.479 43.3788 198.835 40.2278 200.138C104.595 260.013 226.153 259.515 291.941 202.996C288.72 201.568 285.455 200.064 282.172 198.497C218.069 244.801 112.717 245.07 49.7858 196.077Z" fill="#656F7B"/>
<path d="M113.388 146.362C124.682 146.362 133.838 137.206 133.838 125.912C133.838 114.618 124.682 105.463 113.388 105.463C102.094 105.463 92.938 114.618 92.938 125.912C92.938 137.206 102.094 146.362 113.388 146.362Z" fill="white"/>
<path d="M113.388 139.686C120.994 139.686 127.161 133.519 127.161 125.913C127.161 118.306 120.994 112.14 113.388 112.14C105.781 112.14 99.6145 118.306 99.6145 125.913C99.6145 133.519 105.781 139.686 113.388 139.686Z" fill="#31343B"/>
<path d="M108.26 126.879C110.788 126.879 112.837 124.83 112.837 122.302C112.837 119.774 110.788 117.725 108.26 117.725C105.732 117.725 103.682 119.774 103.682 122.302C103.682 124.83 105.732 126.879 108.26 126.879Z" fill="white"/>
<path d="M222.356 146.362C233.651 146.362 242.806 137.207 242.806 125.913C242.806 114.618 233.651 105.463 222.356 105.463C211.062 105.463 201.907 114.618 201.907 125.913C201.907 137.207 211.062 146.362 222.356 146.362Z" fill="white"/>
<path d="M222.357 139.686C229.963 139.686 236.13 133.519 236.13 125.913C236.13 118.306 229.963 112.14 222.357 112.14C214.75 112.14 208.584 118.306 208.584 125.913C208.584 133.519 214.75 139.686 222.357 139.686Z" fill="#31343B"/>
<path d="M217.228 126.879C219.756 126.879 221.805 124.83 221.805 122.302C221.805 119.774 219.756 117.725 217.228 117.725C214.7 117.725 212.651 119.774 212.651 122.302C212.651 124.83 214.7 126.879 217.228 126.879Z" fill="white"/>
<path d="M105.539 157.151C111.778 157.151 116.835 155.305 116.835 153.026C116.835 150.748 111.778 148.901 105.539 148.901C99.3009 148.901 94.2437 150.748 94.2437 153.026C94.2437 155.305 99.3009 157.151 105.539 157.151Z" fill="#E68075"/>
<path d="M230.207 157.152C236.445 157.152 241.502 155.305 241.502 153.026C241.502 150.748 236.445 148.901 230.207 148.901C223.968 148.901 218.911 150.748 218.911 153.026C218.911 155.305 223.968 157.152 230.207 157.152Z" fill="#E68075"/>
<path d="M13.0378 164.589C13.481 165.441 13.9331 166.287 14.3932 167.126C14.5208 167.358 14.6535 167.585 14.782 167.816C15.1175 168.418 15.4519 169.021 15.7959 169.615C16.0278 170.016 16.2683 170.412 16.5045 170.81C16.7525 171.228 16.9967 171.65 17.249 172.064C17.5466 172.553 17.8523 173.035 18.1556 173.519C18.3535 173.835 18.5472 174.155 18.748 174.469C19.1108 175.037 19.4821 175.597 19.853 176.158C20.0009 176.382 20.145 176.609 20.2942 176.832C20.7034 177.442 21.1205 178.045 21.5391 178.647C21.6562 178.815 21.7696 178.987 21.8877 179.154C22.3431 179.803 22.8071 180.445 23.2738 181.083C23.3589 181.2 23.441 181.318 23.5266 181.434C24.0297 182.119 24.5413 182.796 25.0567 183.47C25.1082 183.537 25.1578 183.605 25.2093 183.672C25.7474 184.372 26.2935 185.065 26.8453 185.753C26.8765 185.792 26.9067 185.832 26.9379 185.87C27.5138 186.588 28.0973 187.298 28.6878 188.002C28.6949 188.01 28.7015 188.019 28.7091 188.027C32.2995 192.306 36.1483 196.342 40.2262 200.136C40.2267 200.136 40.2277 200.137 40.2281 200.138C43.3792 198.835 46.5723 197.478 49.7862 196.076C38.4117 187.221 28.4195 176.762 20.3113 164.669C17.9799 164.79 15.5601 164.765 13.0378 164.589Z" fill="#2D3036"/>
<path d="M282.172 198.497C285.455 200.064 288.72 201.568 291.941 202.996C291.949 202.989 291.957 202.983 291.964 202.976C292.702 202.341 293.433 201.699 294.157 201.05C294.335 200.891 294.509 200.729 294.686 200.569C295.239 200.069 295.789 199.566 296.333 199.057C296.558 198.847 296.78 198.634 297.003 198.423C297.495 197.957 297.984 197.489 298.468 197.017C298.708 196.782 298.947 196.547 299.185 196.31C299.65 195.85 300.111 195.388 300.569 194.921C300.809 194.677 301.049 194.432 301.287 194.186C301.741 193.715 302.19 193.242 302.637 192.766C302.867 192.522 303.098 192.277 303.326 192.031C303.787 191.531 304.244 191.027 304.697 190.521C304.899 190.295 305.104 190.071 305.305 189.844C305.823 189.26 306.332 188.669 306.839 188.075C306.968 187.923 307.101 187.773 307.23 187.62C307.874 186.857 308.511 186.088 309.138 185.311C309.146 185.3 309.154 185.289 309.163 185.279C309.766 184.53 310.36 183.773 310.946 183.011C311.124 182.78 311.296 182.547 311.472 182.315C311.887 181.768 312.3 181.219 312.706 180.665C312.918 180.375 313.127 180.082 313.336 179.791C313.698 179.288 314.059 178.784 314.414 178.275C314.636 177.957 314.855 177.636 315.074 177.315C315.41 176.824 315.743 176.331 316.072 175.835C316.293 175.502 316.513 175.168 316.73 174.832C317.052 174.337 317.369 173.838 317.685 173.338C317.897 173 318.109 172.663 318.318 172.324C318.636 171.807 318.948 171.286 319.259 170.764C319.454 170.437 319.65 170.112 319.842 169.783C320.178 169.208 320.505 168.627 320.832 168.045C320.989 167.765 321.15 167.488 321.305 167.205C321.78 166.344 322.246 165.477 322.702 164.602C322.704 164.598 322.706 164.593 322.709 164.589C320.117 164.753 317.681 164.786 315.374 164.693C306.466 177.835 295.166 189.111 282.172 198.497Z" fill="#2D3036"/>
</svg>
