<svg width="421" height="247" viewBox="0 0 421 247" fill="none" xmlns="http://www.w3.org/2000/svg">
<path d="M62.4191 145.915C70.2122 146.901 77.8895 147.039 85.5696 146.47C85.1171 149.248 84.7863 152.024 84.5806 154.789C84.5777 154.856 84.3216 158.223 84.3216 161.438C84.3216 162.075 84.3367 162.703 84.3506 163.332C74.7296 164.012 65.3003 165.413 56.1874 167.525C54.6521 167.88 55.1816 170.206 56.7262 169.852C65.6926 167.774 74.9706 166.394 84.4387 165.721C84.8489 173.801 86.4149 181.267 89.0209 188.112C81.4451 190.689 74.3095 193.932 67.5663 197.857C66.9961 198.188 66.8032 198.92 67.1346 199.489C68.5158 201.861 70.966 196.755 89.912 190.332C92.6072 196.725 96.2242 202.56 100.649 207.838C94.752 211.241 88.9885 215.082 83.4155 219.353C82.8923 219.755 82.7933 220.504 83.1942 221.028C84.6855 222.976 85.7034 219.15 102.24 209.674C143.348 255.557 262 259.396 309.444 213.764C319.287 220.097 319.771 221.496 320.82 221.496C321.956 221.496 322.453 220.048 321.547 219.354C318.158 216.756 314.698 214.318 311.182 212.039C316.465 206.627 320.832 200.559 324.132 193.83C333.798 198.019 335.802 200.083 336.795 200.083C338.011 200.083 338.448 198.467 337.397 197.857C333.451 195.56 329.369 193.5 325.146 191.666C328.476 184.221 330.564 176.012 331.154 166.786C347.754 168.938 349.18 171.073 349.67 168.958C349.819 168.315 349.419 167.674 348.776 167.526C343.055 166.2 337.209 165.156 331.269 164.392C331.423 159.956 331.223 157.795 331.065 154.79V154.79C330.867 152.135 330.555 149.47 330.129 146.802C334.505 146.761 338.895 146.476 343.323 145.916C388.039 140.26 409.371 100.484 405.24 67.82C400.93 33.7432 373.782 7.66514 327.491 13.5197C301.109 16.8563 278.772 35.4587 270.313 59.5889C227.609 32.4622 177.698 34.9778 137.127 65.247C130.377 38.4094 106.662 17.1124 78.2522 13.5197C31.9622 7.66514 4.81406 33.7432 0.504124 67.82C-3.62852 100.483 17.7039 140.259 62.4191 145.915Z" fill="#D3D1D0"/>
<path d="M93.5087 0.824489C47.2188 -5.03005 20.0706 21.048 15.7607 55.1248C11.6292 87.7886 32.9616 127.565 77.6768 133.22C92.2347 135.062 106.39 133.971 120.914 130.766L152.062 84.8593C162.98 44.4395 132.708 5.78216 93.5087 0.824489Z" fill="#D7D7D7"/>
<path d="M46.9007 65.7673C43.9152 89.3737 59.3317 118.12 91.6472 122.207C102.168 123.537 112.398 122.749 122.894 120.433L145.405 87.2567C153.295 58.0454 131.418 30.1082 103.089 26.5253C69.6346 22.2936 50.0154 41.1405 46.9007 65.7673Z" fill="#F59299"/>
<path d="M342.749 0.824489C303.55 5.78216 273.277 44.4395 284.195 84.8593L315.343 130.766C329.867 133.971 344.022 135.062 358.58 133.22C403.295 127.565 424.628 87.7886 420.496 55.1248C416.187 21.048 389.039 -5.03005 342.749 0.824489Z" fill="#D7D7D7"/>
<path d="M333.169 26.5253C304.84 30.1082 282.962 58.0454 290.852 87.2567L313.363 120.433C323.86 122.749 334.089 123.537 344.61 122.207C376.925 118.119 392.342 89.3737 389.357 65.7673C386.242 41.1405 366.623 22.2936 333.169 26.5253Z" fill="#F59299"/>
<path d="M223.08 28.0833C154.872 28.0833 99.5789 92.1303 99.5789 148.744C99.5789 205.357 154.872 233.097 223.08 233.097C291.288 233.097 346.581 205.357 346.581 148.744C346.582 92.1303 291.288 28.0833 223.08 28.0833Z" fill="#D7D7D7"/>
<path d="M223.081 219.966C157.531 219.966 103.918 194.34 99.8386 142.094C99.6729 144.319 99.5796 146.537 99.5796 148.743C99.5796 205.356 154.873 233.097 223.081 233.097C291.289 233.097 346.583 205.357 346.583 148.743C346.583 146.537 346.489 144.319 346.323 142.094C342.243 194.34 288.63 219.966 223.081 219.966Z" fill="#C7C7C6"/>
<path d="M172.295 136.311C186.146 136.311 197.374 125.083 197.374 111.232C197.374 97.3808 186.146 86.1525 172.295 86.1525C158.444 86.1525 147.216 97.3808 147.216 111.232C147.216 125.083 158.444 136.311 172.295 136.311Z" fill="white"/>
<path d="M172.295 128.123C181.624 128.123 189.186 120.56 189.186 111.232C189.186 101.903 181.624 94.3407 172.295 94.3407C162.966 94.3407 155.404 101.903 155.404 111.232C155.404 120.56 162.966 128.123 172.295 128.123Z" fill="#31343B"/>
<path d="M166.006 112.417C169.106 112.417 171.619 109.904 171.619 106.804C171.619 103.703 169.106 101.19 166.006 101.19C162.906 101.19 160.392 103.703 160.392 106.804C160.392 109.904 162.906 112.417 166.006 112.417Z" fill="white"/>
<path d="M263.962 136.311C277.813 136.311 289.042 125.083 289.042 111.232C289.042 97.3808 277.813 86.1525 263.962 86.1525C250.112 86.1525 238.883 97.3808 238.883 111.232C238.883 125.083 250.112 136.311 263.962 136.311Z" fill="white"/>
<path d="M263.962 128.123C273.291 128.123 280.853 120.56 280.853 111.232C280.853 101.903 273.291 94.3407 263.962 94.3407C254.634 94.3407 247.071 101.903 247.071 111.232C247.071 120.56 254.634 128.123 263.962 128.123Z" fill="#31343B"/>
<path d="M257.673 112.417C260.774 112.417 263.287 109.904 263.287 106.804C263.287 103.703 260.774 101.19 257.673 101.19C254.573 101.19 252.06 103.703 252.06 106.804C252.06 109.904 254.573 112.417 257.673 112.417Z" fill="white"/>
<path d="M197.822 144.056C197.822 151.648 207.142 163.807 218.639 163.807C230.137 163.807 239.457 151.649 239.457 144.056C239.457 136.463 230.137 136.311 218.639 136.311C207.142 136.311 197.822 136.463 197.822 144.056Z" fill="#31343B"/>
<path d="M210.37 196.712C210.634 197.756 211.573 198.489 212.651 198.489H215.224C216.474 198.489 218.639 197.511 218.639 196.262V176.566C218.639 176.566 215.421 182.862 207.233 184.306L210.37 196.712Z" fill="white"/>
<path d="M218.64 196.261C218.64 197.51 220.805 198.488 222.055 198.488H224.628C225.706 198.488 226.645 197.755 226.91 196.711L230.046 184.305C221.858 182.861 218.64 176.565 218.64 176.565V196.261Z" fill="white"/>
<path d="M216.649 143.307V176.178C216.106 177.409 213.543 182.315 207.233 182.315C200.265 182.315 198.477 175.961 198.406 175.7C198.132 174.636 197.045 173.995 195.982 174.268C194.918 174.542 194.277 175.628 194.551 176.692C195.405 180.013 199.156 186.295 207.233 186.295C217.194 186.295 220.385 177.599 220.516 177.229C220.591 177.016 220.63 176.791 220.63 176.566V143.307C220.63 142.207 219.739 141.316 218.639 141.316C217.54 141.317 216.649 142.208 216.649 143.307Z" fill="#31343B"/>
<path d="M218.64 141.317C217.54 141.317 216.649 142.208 216.649 143.307V176.566C216.649 176.793 216.687 177.017 216.763 177.23C216.894 177.6 220.085 186.296 230.046 186.296C238.123 186.296 241.874 180.014 242.728 176.692C243.002 175.628 242.361 174.542 241.296 174.269C240.232 173.994 239.146 174.636 238.873 175.7C238.803 175.97 237.09 182.315 230.046 182.315C223.72 182.315 221.176 177.428 220.63 176.181V143.307C220.63 142.208 219.739 141.317 218.64 141.317Z" fill="#31343B"/>
<path d="M168.994 68.3761C164.612 68.3761 160.421 69.6884 156.875 72.1716C155.974 72.8019 155.755 74.0429 156.386 74.9433C157.016 75.8442 158.257 76.0632 159.157 75.4322C162.031 73.4207 165.433 72.357 168.994 72.357C175.013 72.357 180.76 75.2787 184.366 80.1727C184.756 80.7022 185.359 80.982 185.97 80.982C186.38 80.982 186.794 80.8563 187.149 80.5939C188.034 79.9415 188.222 78.6958 187.571 77.81C183.217 71.9033 176.273 68.3761 168.994 68.3761Z" fill="#31343B"/>
<path d="M266.96 68.3761C259.681 68.3761 252.736 71.9033 248.384 77.8111C247.732 78.697 247.92 79.9426 248.805 80.595C249.161 80.8569 249.574 80.9832 249.984 80.9832C250.595 80.9832 251.198 80.7033 251.589 80.1738C255.195 75.2799 260.941 72.3581 266.96 72.3581C270.521 72.3581 273.923 73.4218 276.797 75.4334C277.698 76.0649 278.939 75.8447 279.569 74.9444C280.2 74.0441 279.981 72.8031 279.08 72.1727C275.534 69.6884 271.342 68.3761 266.96 68.3761Z" fill="#31343B"/>
<path d="M171.619 154.334C180.134 154.334 187.036 151.11 187.036 147.132C187.036 143.155 180.134 139.93 171.619 139.93C163.105 139.93 156.202 143.155 156.202 147.132C156.202 151.11 163.105 154.334 171.619 154.334Z" fill="#E68075"/>
<path d="M263.962 154.334C272.477 154.334 279.379 151.11 279.379 147.132C279.379 143.155 272.477 139.93 263.962 139.93C255.448 139.93 248.545 143.155 248.545 147.132C248.545 151.11 255.448 154.334 263.962 154.334Z" fill="#E68075"/>
<path d="M113.235 150.157C98.885 150.157 84.8254 151.73 71.4448 154.83C70.8023 154.979 70.402 155.621 70.5509 156.263C70.6998 156.906 71.3434 157.304 71.9836 157.157C85.1875 154.097 99.0663 152.546 113.235 152.546C136.092 152.546 159.717 156.507 183.453 164.319C183.577 164.359 183.702 164.378 183.826 164.378C184.328 164.378 184.795 164.06 184.96 163.557C185.167 162.931 184.826 162.256 184.199 162.05C160.222 154.158 136.346 150.157 113.235 150.157Z" fill="#31343B"/>
<path d="M154.491 167.857C126.269 167.857 102.826 173.518 82.8239 185.161C82.2538 185.493 82.0609 186.224 82.3923 186.794C82.6142 187.175 83.0145 187.387 83.4259 187.387C83.6298 187.387 83.8367 187.335 84.0255 187.224C103.653 175.799 126.703 170.245 154.492 170.245C163.599 170.245 173.42 170.869 183.684 172.1C184.338 172.187 184.933 171.712 185.012 171.057C185.09 170.402 184.623 169.807 183.968 169.729C173.611 168.487 163.693 167.857 154.491 167.857Z" fill="#31343B"/>
<path d="M98.6734 206.658C98.1502 207.06 98.0511 207.809 98.4521 208.333C98.6873 208.64 99.0419 208.801 99.4005 208.801C99.6542 208.801 99.9092 208.721 100.126 208.555C126.058 188.68 156.092 178.165 184.703 178.931C184.715 178.932 184.726 178.932 184.737 178.932C185.381 178.932 185.912 178.418 185.929 177.77C185.947 177.111 185.427 176.561 184.768 176.544C155.628 175.757 125.039 186.451 98.6734 206.658Z" fill="#31343B"/>
<path d="M322.244 150.157C299.133 150.157 275.257 154.158 251.28 162.05C250.653 162.256 250.312 162.931 250.519 163.557C250.684 164.06 251.151 164.378 251.653 164.378C251.777 164.378 251.902 164.359 252.026 164.319C275.762 156.507 299.387 152.546 322.244 152.546C336.412 152.546 350.291 154.097 363.495 157.157C364.137 157.304 364.779 156.905 364.928 156.263C365.077 155.62 364.677 154.979 364.034 154.83C350.654 151.73 336.593 150.157 322.244 150.157Z" fill="#31343B"/>
<path d="M280.987 167.857C271.785 167.857 261.868 168.487 251.51 169.73C250.855 169.808 250.388 170.403 250.467 171.058C250.545 171.713 251.139 172.179 251.795 172.102C262.058 170.87 271.88 170.246 280.987 170.246C308.776 170.246 331.825 175.8 351.454 187.225C351.643 187.336 351.849 187.388 352.053 187.388C352.465 187.388 352.865 187.176 353.087 186.795C353.418 186.225 353.226 185.493 352.655 185.162C332.652 173.518 309.21 167.857 280.987 167.857Z" fill="#31343B"/>
<path d="M250.71 176.544C250.051 176.562 249.531 177.11 249.549 177.77C249.567 178.429 250.107 178.976 250.775 178.931C279.382 178.166 309.419 188.679 335.352 208.554C335.568 208.721 335.824 208.801 336.078 208.801C336.436 208.801 336.791 208.64 337.026 208.333C337.428 207.809 337.328 207.06 336.805 206.658C310.44 186.451 279.856 175.747 250.71 176.544Z" fill="#31343B"/>
</svg>
