<svg width="237" height="284" viewBox="0 0 237 284" fill="none" xmlns="http://www.w3.org/2000/svg">
<path d="M87.795 283.174C95.2695 283.174 101.362 271.085 105.582 259.422C109.493 259.457 113.402 259.366 117.307 259.137C123.666 267.051 134.145 266.381 137.948 256.572C171.79 249.977 203.853 229.522 211.958 194.114C220.224 158 204.103 118.737 179.238 92.7102C164.461 77.2427 145.476 65.4078 124.346 61.1769C124.352 61.1759 124.359 61.1739 124.365 61.1729C129.229 51.0531 136.412 42.2259 141.232 32.144C142.313 29.8816 144.003 26.2985 141.825 24.1681C137.901 20.3296 129.613 25.0239 126.422 27.5317C128.734 23.6357 138.568 10.1073 130.43 7.50693C123.028 5.14155 116.012 13.1165 112.383 18.3646C113.283 14.5861 115.433 -4.92733 105.607 1.17158C101.391 3.7884 98.4857 8.95355 96.1348 13.136C91.348 21.6507 87.8465 30.9078 84.7838 40.1589C84.7678 36.7333 85.881 24.519 82.179 22.0746C79.5571 20.3436 77.7261 25.0963 76.9128 26.9509C71.5997 39.0697 70.2101 53.7258 72.1686 66.7005C13.4699 91.451 -29.9073 184.054 25.7767 233.214C39.5826 245.403 57.168 252.63 75.0593 256.3C74.8863 263.178 77.8866 283.174 87.795 283.174Z" fill="#D3D1D0"/>
<path d="M23 175.018C23 230.239 70.8395 259.438 129.852 259.438C188.865 259.438 236.704 230.239 236.704 175.018C236.704 119.795 188.865 59.4627 129.852 59.4627C70.839 59.4622 23 119.795 23 175.018Z" fill="#EDEDED"/>
<path d="M129.852 250.08C72.5156 250.08 25.7323 222.514 23.12 170.3C23.0435 171.875 23 173.448 23 175.018C23 230.239 70.8395 259.438 129.852 259.438C188.865 259.438 236.704 230.239 236.704 175.018C236.704 173.448 236.661 171.875 236.584 170.3C233.972 222.514 187.188 250.08 129.852 250.08Z" fill="#D2D1D1"/>
<path d="M107.444 40.1622C107.257 0.180178 93.9915 33.9074 93.9915 55.3678C93.9915 75.2726 101.319 89.6648 109.43 100.001C118.108 79.495 125.441 65.4107 147.027 61.1763C155.28 44.0017 165.524 33.0151 165.524 26.7417C165.524 24.7632 164.638 23.0862 159.881 23.0862C156.034 23.0862 152.409 24.9212 149.083 27.5355C152.667 21.4956 156.271 15.2947 156.271 11.3932C156.271 8.24205 153.743 7.23834 150.578 7.23834C144.906 7.23834 139.463 11.9781 135.043 18.3684C135.724 15.5142 136.158 12.6679 136.158 9.86864C136.158 -8.46108 121.679 -2.84003 107.444 40.1622Z" fill="#F15D4F"/>
<path d="M89.5596 157.278C99.6006 157.278 107.74 149.138 107.74 139.097C107.74 129.056 99.6006 120.916 89.5596 120.916C79.5187 120.916 71.3789 129.056 71.3789 139.097C71.3789 149.138 79.5187 157.278 89.5596 157.278Z" fill="white"/>
<path d="M89.5595 151.342C96.3221 151.342 101.804 145.86 101.804 139.097C101.804 132.334 96.3221 126.852 89.5595 126.852C82.7969 126.852 77.3147 132.334 77.3147 139.097C77.3147 145.86 82.7969 151.342 89.5595 151.342Z" fill="#31343B"/>
<path d="M85.0003 139.956C87.2478 139.956 89.0698 138.134 89.0698 135.887C89.0698 133.639 87.2478 131.817 85.0003 131.817C82.7529 131.817 80.9309 133.639 80.9309 135.887C80.9309 138.134 82.7529 139.956 85.0003 139.956Z" fill="white"/>
<path d="M169.94 157.278C179.981 157.278 188.121 149.138 188.121 139.097C188.121 129.056 179.981 120.916 169.94 120.916C159.899 120.916 151.759 129.056 151.759 139.097C151.759 149.138 159.899 157.278 169.94 157.278Z" fill="white"/>
<path d="M169.94 151.342C176.703 151.342 182.185 145.86 182.185 139.097C182.185 132.334 176.703 126.852 169.94 126.852C163.178 126.852 157.695 132.334 157.695 139.097C157.695 145.86 163.178 151.342 169.94 151.342Z" fill="#31343B"/>
<path d="M165.381 139.956C167.628 139.956 169.45 138.134 169.45 135.887C169.45 133.639 167.628 131.817 165.381 131.817C163.133 131.817 161.311 133.639 161.311 135.887C161.311 138.134 163.133 139.956 165.381 139.956Z" fill="white"/>
<path d="M78.2389 111.783C77.7506 112.271 77.7346 113.077 78.2225 113.565C78.4704 113.813 78.7928 113.939 79.1132 113.939C79.4236 113.939 79.7335 113.821 79.9735 113.581C80.0819 113.484 91.2126 104.071 105.356 111.423C105.97 111.741 106.723 111.502 107.041 110.89C107.36 110.278 107.121 109.524 106.509 109.205C90.5952 100.934 78.3529 111.669 78.2389 111.783Z" fill="#31343B"/>
<path d="M152.99 109.205C152.378 109.524 152.14 110.277 152.458 110.89C152.776 111.503 153.531 111.741 154.144 111.423C168.181 104.124 179.254 113.347 179.522 113.578C179.762 113.803 180.07 113.916 180.377 113.916C180.697 113.916 181.017 113.794 181.261 113.55C181.749 113.062 181.749 112.271 181.261 111.783C181.147 111.669 168.905 100.933 152.99 109.205Z" fill="#31343B"/>
<path d="M97.6975 257.4C97.6975 268.207 103.686 283.178 110.456 283.178C121.019 283.178 128.822 259.038 132.479 246.071C132.72 245.216 132.929 244.362 133.112 243.509C135.844 255.423 141.833 264.873 150.543 264.873C157.781 264.873 162.006 256.537 162.006 249.103C162.006 241.445 157.479 222.399 140.387 202.572L117.759 201.967C110.183 218.937 97.6975 238.475 97.6975 257.4Z" fill="#F15D4F"/>
<path d="M129.75 173.593C120.477 173.917 110.98 177.484 106.294 184.969C99.877 186.62 92.4595 188.925 92.4595 194.978C92.4595 199.407 99.5741 200.188 103.821 201.518C114.765 204.942 120.182 216.541 129.75 216.997C139.317 216.541 144.735 204.942 155.678 201.518C159.926 200.188 167.04 199.407 167.04 194.978C167.04 188.925 159.622 186.62 153.205 184.969C148.52 177.484 139.023 173.918 129.75 173.593Z" fill="#FFCE4B"/>
<path d="M121.724 183.85C123.318 183.85 124.61 182.558 124.61 180.964C124.61 179.371 123.318 178.079 121.724 178.079C120.13 178.079 118.838 179.371 118.838 180.964C118.838 182.558 120.13 183.85 121.724 183.85Z" fill="#CAA43C"/>
<path d="M137.776 183.85C139.369 183.85 140.661 182.558 140.661 180.964C140.661 179.371 139.369 178.079 137.776 178.079C136.182 178.079 134.89 179.371 134.89 180.964C134.89 182.558 136.182 183.85 137.776 183.85Z" fill="#CAA43C"/>
<path d="M129.852 200.757C122.67 195.209 109.283 193.754 101.836 193.382C101.411 193.366 101.071 193.68 101.05 194.094C101.03 194.507 101.348 194.859 101.761 194.88C119.716 195.776 127.052 200.363 129.373 202.294C129.511 202.409 129.682 202.467 129.852 202.467C130.022 202.467 130.193 202.41 130.331 202.294C132.652 200.363 139.988 195.776 157.943 194.88C158.356 194.859 158.674 194.507 158.654 194.094C158.633 193.68 158.279 193.367 157.868 193.382C150.421 193.754 137.034 195.209 129.852 200.757Z" fill="#CAA43C"/>
<path d="M89.5595 171.967C96.3221 171.967 101.804 169.406 101.804 166.247C101.804 163.088 96.3221 160.527 89.5595 160.527C82.7969 160.527 77.3147 163.088 77.3147 166.247C77.3147 169.406 82.7969 171.967 89.5595 171.967Z" fill="#E68075"/>
<path d="M169.94 171.155C176.703 171.155 182.185 168.594 182.185 165.435C182.185 162.276 176.703 159.715 169.94 159.715C163.178 159.715 157.695 162.276 157.695 165.435C157.695 168.594 163.178 171.155 169.94 171.155Z" fill="#E68075"/>
</svg>
