<svg width="290" height="254" viewBox="0 0 290 254" fill="none" xmlns="http://www.w3.org/2000/svg">
<path d="M0.101656 157.734C-0.666471 175.812 2.82686 193.071 13.7127 207.921C19.8156 216.247 27.5948 223.222 36.1746 228.918C39.9959 231.455 43.9766 233.747 48.0672 235.821C52.0194 237.824 57.3827 239.048 60.9443 241.526C66.66 243.219 72.1701 245.484 77.9529 247.026C77.9535 247.026 77.9541 247.026 77.9547 247.027C85.3803 248.968 92.8902 250.515 100.485 251.624C100.485 251.624 100.487 251.624 100.487 251.624C100.488 251.624 100.488 251.624 100.489 251.624C111.485 253.23 122.604 253.998 133.715 254C138.627 254.001 143.54 253.847 148.443 253.543C154.439 253.171 160.622 251.685 166.596 251.685C166.597 251.685 166.598 251.685 166.599 251.684C166.74 251.66 166.881 251.64 167.023 251.624C171.34 250.345 176.243 250.123 180.676 249.165C188.736 247.422 199.514 245.866 206.568 241.525C230.951 233.398 254.457 214.677 263.31 190.103C271.351 167.784 267.623 140.982 260.959 118.808C255.36 100.181 245.899 82.6365 232.399 68.5397C243.351 61.5156 254.045 51.8231 256.123 38.3123C258.048 25.7996 248.796 17.812 238.339 12.8474C228.57 8.20958 215.843 5.11829 205.891 10.9194C195.558 16.9431 192.039 30.0411 190.464 41.0813C184.539 38.8327 178.21 36.9486 171.473 35.4613C163.16 33.9148 154.951 32.5419 146.494 31.9959C138.018 31.4413 129.491 31.4413 121.014 31.9959C112.626 32.5379 104.245 33.6369 96.0361 35.4613C89.2984 36.9486 82.97 38.8327 77.0442 41.0813C75.4971 30.2347 72.0961 17.414 62.1611 11.236C52.1595 5.01634 39.1105 8.12813 29.1704 12.8468C19.101 17.6269 9.72972 25.3857 11.2836 37.506C13.0647 51.4023 23.9125 61.3578 35.1109 68.5391C12.3182 92.3391 1.48305 125.266 0.102247 157.73L0.101656 157.734Z" fill="#D3D1D0"/>
<path d="M33.1306 25.597C33.1306 49.6555 58.6519 62.421 77.3198 71.7547L100.433 53.8788C100.433 29.0197 96.2377 0 71.2323 0C57.0114 0.000569405 33.1306 11.2821 33.1306 25.597Z" fill="#E89D23"/>
<path d="M71.2322 14.4652C67.7685 14.4652 61.6394 15.8705 55.7552 19.0102C49.9228 22.1231 47.9139 25.0112 47.5962 25.7992C47.7311 37.7288 59.8213 46.2693 75.7362 54.693L85.8323 46.8849C85.42 36.6754 84.066 28.669 81.7918 23.0234C78.6111 15.1257 74.8314 14.4652 71.2322 14.4652Z" fill="#FCC187"/>
<path d="M211.311 53.8793L234.423 71.7552C253.091 62.421 278.612 49.6561 278.612 25.5976C278.612 11.2828 254.732 0.00109864 240.511 0.00109864C215.506 0.000529236 211.311 29.0202 211.311 53.8793Z" fill="#E89D23"/>
<path d="M240.511 14.4652C236.912 14.4652 233.132 15.1257 229.951 23.0228C227.677 28.6684 226.323 36.6754 225.911 46.8842L236.007 54.6925C251.921 46.2693 264.012 37.7282 264.147 25.7986C263.829 25.01 261.821 22.122 255.988 19.0096C250.103 15.8705 243.975 14.4652 240.511 14.4652Z" fill="#FCC187"/>
<path d="M22.0596 157.143C22.0596 218.562 89.3666 246.229 155.871 246.229C222.376 246.229 289.683 218.562 289.683 157.143C289.683 95.7249 256.259 23.8125 155.871 23.8125C55.4842 23.8125 22.0596 95.7249 22.0596 157.143Z" fill="#E89D23"/>
<path d="M73.3633 209.42C73.3633 219.434 76.8736 227.451 83.0585 233.754C104.912 242.18 130.448 246.229 155.871 246.229C181.295 246.229 206.831 242.18 228.684 233.754C234.869 227.451 238.379 219.434 238.379 209.42C238.379 176.917 201.439 135.706 155.871 135.706C110.303 135.706 73.3633 176.917 73.3633 209.42Z" fill="#FDE196"/>
<path d="M22.2184 149.959C22.1159 152.366 22.0596 154.763 22.0596 157.143C22.0596 195.083 47.7466 220.138 83.0588 233.754C78.729 229.341 75.7163 224.086 74.2945 217.897C45.0635 204.34 24.1738 182.009 22.2184 149.959Z" fill="#D89328"/>
<path d="M237.448 217.898C236.027 224.087 233.014 229.342 228.684 233.754C263.996 220.138 289.683 195.083 289.683 157.144C289.683 154.764 289.627 152.366 289.524 149.96C287.569 182.009 266.68 204.34 237.448 217.898Z" fill="#D89328"/>
<path d="M202.8 229.244C202.771 229.25 202.743 229.257 202.715 229.263C201.229 229.583 199.735 229.886 198.232 230.174C198.204 230.18 198.175 230.185 198.147 230.19C196.686 230.469 195.217 230.733 193.743 230.981C193.68 230.992 193.617 231.002 193.554 231.013C192.087 231.259 190.615 231.489 189.137 231.705C188.997 231.726 188.858 231.745 188.718 231.764C187.323 231.965 185.924 232.154 184.519 232.329C184.425 232.341 184.332 232.353 184.238 232.364C182.798 232.542 181.352 232.703 179.905 232.852C179.669 232.876 179.434 232.9 179.198 232.923C177.853 233.057 176.506 233.182 175.156 233.293C175.042 233.302 174.928 233.313 174.814 233.322C173.398 233.436 171.98 233.535 170.56 233.623C170.255 233.642 169.951 233.659 169.647 233.677C168.311 233.755 166.974 233.823 165.636 233.879C165.537 233.883 165.439 233.888 165.341 233.892C163.939 233.948 162.536 233.987 161.133 234.019C160.789 234.026 160.446 234.032 160.103 234.039C158.704 234.063 157.306 234.08 155.908 234.08C155.897 234.08 155.885 234.081 155.873 234.081C155.861 234.081 155.85 234.08 155.838 234.08C154.44 234.08 153.042 234.063 151.643 234.039C151.3 234.032 150.956 234.026 150.613 234.019C149.209 233.988 147.806 233.948 146.405 233.892C146.306 233.888 146.208 233.883 146.11 233.879C144.772 233.824 143.435 233.755 142.099 233.677C141.794 233.659 141.489 233.642 141.185 233.623C139.765 233.535 138.346 233.436 136.931 233.322C136.816 233.313 136.703 233.302 136.589 233.293C135.239 233.182 133.891 233.057 132.546 232.923C132.311 232.9 132.076 232.876 131.84 232.852C130.392 232.703 128.948 232.542 127.507 232.364C127.413 232.352 127.319 232.34 127.225 232.329C125.821 232.154 124.421 231.965 123.026 231.764C122.886 231.744 122.747 231.726 122.607 231.705C121.129 231.489 119.657 231.259 118.191 231.013C118.127 231.002 118.064 230.991 118.001 230.981C116.526 230.732 115.058 230.469 113.597 230.19C113.569 230.184 113.54 230.179 113.511 230.174C112.009 229.886 110.516 229.582 109.029 229.263C109.001 229.257 108.972 229.25 108.944 229.244C105.953 228.599 102.998 227.888 100.085 227.111C100.081 227.111 100.077 227.109 100.074 227.108C94.2112 225.545 88.5206 223.712 83.0594 221.606C80.0661 220.451 77.1405 219.217 74.2952 217.898C75.717 224.087 78.7297 229.342 83.0594 233.754C83.06 233.754 83.0612 233.755 83.0617 233.755C88.5212 235.86 94.2101 237.692 100.07 239.256C100.076 239.258 100.082 239.259 100.087 239.261C102.998 240.037 105.952 240.747 108.94 241.392C108.971 241.399 109.002 241.405 109.032 241.412C110.516 241.732 112.009 242.035 113.509 242.323C113.54 242.328 113.571 242.334 113.602 242.34C115.059 242.618 116.524 242.881 117.996 243.129C118.061 243.14 118.127 243.152 118.193 243.163C119.658 243.409 121.129 243.638 122.605 243.854C122.747 243.874 122.889 243.894 123.032 243.915C124.423 244.115 125.819 244.303 127.219 244.477C127.316 244.489 127.413 244.502 127.51 244.514C128.948 244.691 130.391 244.853 131.838 245.002C132.075 245.026 132.314 245.049 132.552 245.073C133.893 245.207 135.236 245.331 136.582 245.442C136.7 245.452 136.817 245.463 136.934 245.472C138.348 245.586 139.765 245.685 141.183 245.772C141.49 245.792 141.798 245.809 142.104 245.827C143.436 245.904 144.768 245.973 146.101 246.028C146.204 246.032 146.306 246.038 146.407 246.042C147.807 246.097 149.208 246.137 150.61 246.168C150.956 246.175 151.302 246.182 151.648 246.188C153.041 246.213 154.434 246.23 155.827 246.23C155.842 246.23 155.857 246.231 155.873 246.231C155.889 246.231 155.904 246.23 155.919 246.23C157.313 246.23 158.705 246.214 160.099 246.188C160.444 246.183 160.791 246.176 161.137 246.168C162.538 246.137 163.939 246.097 165.339 246.042C165.441 246.038 165.543 246.032 165.645 246.028C166.979 245.973 168.312 245.905 169.643 245.827C169.95 245.809 170.257 245.792 170.564 245.772C171.982 245.685 173.399 245.586 174.813 245.472C174.93 245.463 175.047 245.452 175.165 245.442C176.511 245.331 177.854 245.207 179.195 245.073C179.433 245.049 179.671 245.026 179.909 245.002C181.356 244.853 182.798 244.691 184.236 244.514C184.333 244.502 184.43 244.489 184.527 244.477C185.927 244.303 187.323 244.115 188.715 243.915C188.857 243.894 188.999 243.874 189.141 243.854C190.618 243.639 192.089 243.409 193.552 243.163C193.618 243.152 193.684 243.14 193.75 243.129C195.221 242.881 196.686 242.618 198.144 242.34C198.174 242.334 198.206 242.328 198.237 242.323C199.737 242.035 201.23 241.732 202.714 241.412C202.744 241.406 202.775 241.399 202.806 241.392C205.794 240.748 208.748 240.038 211.659 239.261C211.664 239.259 211.669 239.258 211.674 239.257C217.535 237.693 223.225 235.861 228.685 233.755C228.686 233.755 228.686 233.755 228.686 233.755C233.016 229.343 236.029 224.088 237.451 217.899C229.415 221.626 220.748 224.689 211.671 227.109C211.669 227.11 211.666 227.111 211.663 227.112C208.746 227.888 205.791 228.599 202.8 229.244Z" fill="#FCD97B"/>
<path d="M138.68 155.676C138.68 161.946 146.377 171.985 155.871 171.985C165.366 171.985 173.062 161.946 173.062 155.676C173.062 149.406 165.366 149.281 155.871 149.281C146.377 149.28 138.68 149.406 138.68 155.676Z" fill="#31343B"/>
<path d="M154.448 155.057V182.247C154.021 183.23 151.859 187.49 146.452 187.49C140.522 187.49 139.01 182.086 138.95 181.862C138.754 181.1 137.978 180.642 137.216 180.838C136.455 181.034 135.996 181.81 136.193 182.571C136.884 185.257 139.917 190.337 146.452 190.337C152.91 190.337 156.315 185.535 157.213 182.996C157.267 182.844 157.295 182.683 157.295 182.522V155.057C157.295 154.271 156.658 153.634 155.871 153.634C155.085 153.634 154.448 154.272 154.448 155.057Z" fill="#31343B"/>
<path d="M155.872 153.634C155.085 153.634 154.448 154.271 154.448 155.057V182.522C154.448 182.683 154.476 182.844 154.53 182.996C155.428 185.535 158.833 190.337 165.29 190.337C171.825 190.337 174.859 185.257 175.55 182.571C175.747 181.81 175.288 181.034 174.526 180.838C173.766 180.642 172.989 181.1 172.793 181.862C172.734 182.091 171.276 187.49 165.29 187.49C159.863 187.49 157.724 183.249 157.295 182.249V155.057C157.295 154.272 156.658 153.634 155.872 153.634Z" fill="#31343B"/>
<path d="M89.2542 160.402C88.7799 160.365 88.3711 160.713 88.3324 161.183C88.2931 161.653 88.6421 162.066 89.1124 162.105C103.247 163.282 114.78 165.724 125.407 169.787C125.507 169.826 125.61 169.844 125.712 169.844C126.055 169.844 126.379 169.635 126.509 169.295C126.678 168.854 126.457 168.36 126.017 168.191C115.234 164.07 103.553 161.594 89.2542 160.402Z" fill="#31343B"/>
<path d="M89.0119 176.019C88.5456 176.092 88.2273 176.53 88.3002 176.995C88.3662 177.417 88.7295 177.718 89.1429 177.718C89.1867 177.718 89.2312 177.715 89.2756 177.708C100.791 175.908 112.684 175.758 122.929 175.758C123.401 175.758 123.783 175.375 123.783 174.903C123.783 174.432 123.401 174.049 122.929 174.049C112.62 174.049 100.648 174.201 89.0119 176.019Z" fill="#31343B"/>
<path d="M121.322 181.382C112.403 183.695 103.717 187.895 95.5051 193.868C95.1236 194.145 95.0393 194.68 95.3166 195.061C95.4835 195.291 95.7437 195.413 96.0079 195.413C96.1821 195.413 96.3576 195.36 96.5096 195.249C104.548 189.403 113.04 185.295 121.751 183.036C122.208 182.918 122.482 182.452 122.364 181.995C122.245 181.538 121.78 181.265 121.322 181.382Z" fill="#31343B"/>
<path d="M185.726 168.192C185.286 168.36 185.065 168.854 185.233 169.295C185.364 169.635 185.688 169.844 186.031 169.844C186.133 169.844 186.235 169.827 186.336 169.788C196.963 165.724 208.496 163.283 222.631 162.105C223.1 162.066 223.449 161.653 223.411 161.183C223.371 160.713 222.967 160.368 222.488 160.403C208.189 161.594 196.508 164.07 185.726 168.192Z" fill="#31343B"/>
<path d="M188.814 174.049C188.343 174.049 187.96 174.432 187.96 174.903C187.96 175.375 188.343 175.758 188.814 175.758C199.058 175.758 210.953 175.908 222.468 177.708C222.512 177.715 222.556 177.718 222.6 177.718C223.014 177.718 223.377 177.417 223.443 176.995C223.516 176.53 223.196 176.092 222.731 176.019C211.095 174.201 199.123 174.049 188.814 174.049Z" fill="#31343B"/>
<path d="M190.42 181.382C189.964 181.264 189.498 181.538 189.379 181.995C189.261 182.451 189.535 182.917 189.992 183.036C198.703 185.294 207.195 189.403 215.233 195.249C215.384 195.359 215.56 195.412 215.735 195.412C215.998 195.412 216.259 195.29 216.426 195.06C216.703 194.679 216.619 194.145 216.237 193.867C208.026 187.895 199.34 183.694 190.42 181.382Z" fill="#31343B"/>
<path d="M102.505 134.418C113.943 134.418 123.215 125.145 123.215 113.708C123.215 102.27 113.943 92.9979 102.505 92.9979C91.0673 92.9979 81.7952 102.27 81.7952 113.708C81.7952 125.145 91.0673 134.418 102.505 134.418Z" fill="white"/>
<path d="M102.505 127.656C110.208 127.656 116.453 121.411 116.453 113.708C116.453 106.004 110.208 99.7596 102.505 99.7596C94.8017 99.7596 88.5569 106.004 88.5569 113.708C88.5569 121.411 94.8017 127.656 102.505 127.656Z" fill="#31343B"/>
<path d="M97.3113 114.687C99.8714 114.687 101.947 112.612 101.947 110.052C101.947 107.492 99.8714 105.416 97.3113 105.416C94.7512 105.416 92.6758 107.492 92.6758 110.052C92.6758 112.612 94.7512 114.687 97.3113 114.687Z" fill="white"/>
<path d="M209.237 134.418C220.675 134.418 229.947 125.145 229.947 113.708C229.947 102.27 220.675 92.9979 209.237 92.9979C197.8 92.9979 188.528 102.27 188.528 113.708C188.528 125.145 197.8 134.418 209.237 134.418Z" fill="white"/>
<path d="M209.237 127.656C216.941 127.656 223.186 121.411 223.186 113.708C223.186 106.004 216.941 99.7596 209.237 99.7596C201.534 99.7596 195.289 106.004 195.289 113.708C195.289 121.411 201.534 127.656 209.237 127.656Z" fill="#31343B"/>
<path d="M204.045 114.687C206.605 114.687 208.68 112.612 208.68 110.052C208.68 107.492 206.605 105.416 204.045 105.416C201.485 105.416 199.409 107.492 199.409 110.052C199.409 112.612 201.485 114.687 204.045 114.687Z" fill="white"/>
<path d="M107.333 71.1659C106.56 71.3088 106.05 72.0519 106.192 72.8246C106.335 73.5973 107.075 74.1058 107.851 73.9651C113.686 72.8844 124.797 74.3506 129.774 82.882C130.039 83.3358 130.515 83.5881 131.005 83.5881C131.249 83.5881 131.495 83.526 131.721 83.3939C132.4 82.9981 132.629 82.1258 132.233 81.4471C126.481 71.5879 114.19 69.8984 107.333 71.1659Z" fill="#31343B"/>
<path d="M177.175 81.4475C176.779 82.1263 177.009 82.9986 177.687 83.3943C177.913 83.5258 178.159 83.5885 178.404 83.5885C178.893 83.5885 179.369 83.3357 179.634 82.8825C184.612 74.3505 195.724 72.8888 201.557 73.9656C202.331 74.1056 203.073 73.5983 203.216 72.8251C203.359 72.0524 202.848 71.3093 202.076 71.1664C195.219 69.8972 182.928 71.5877 177.175 81.4475Z" fill="#31343B"/>
<path d="M209.238 148.365C216.941 148.365 223.186 145.448 223.186 141.849C223.186 138.251 216.941 135.333 209.238 135.333C201.534 135.333 195.29 138.251 195.29 141.849C195.29 145.448 201.534 148.365 209.238 148.365Z" fill="#E68075"/>
<path d="M102.505 148.365C110.208 148.365 116.453 145.448 116.453 141.849C116.453 138.251 110.208 135.333 102.505 135.333C94.8017 135.333 88.5569 138.251 88.5569 141.849C88.5569 145.448 94.8017 148.365 102.505 148.365Z" fill="#E68075"/>
<path d="M26.0767 120.855C33.8547 124.334 43.2869 127.144 53.6438 127.144C57.4719 127.144 64.7996 125.832 64.7996 122.917C64.7996 119.015 47.5478 107.88 33.6839 97.0624C30.4292 104.782 27.9175 112.772 26.0767 120.855Z" fill="#A06638"/>
<path d="M22.1353 152.265C25.8102 152.628 29.997 152.855 34.7031 152.855C51.5085 152.855 58.2241 146.224 58.2241 142.519C58.2241 134.851 40.6859 133.794 24.5672 128.298C23.1494 136.309 22.3636 144.354 22.1353 152.265Z" fill="#A06638"/>
<path d="M22.2407 162.53C22.7515 170.229 24.3606 177.362 26.915 183.947C42.7194 181.466 59.9609 175.848 59.9609 165.743C59.9609 162.018 55.6978 159.464 51.0321 159.464C47.4078 159.464 34.0314 161.932 22.2407 162.53Z" fill="#A06638"/>
<path d="M246.944 122.917C246.944 125.832 254.271 127.145 258.099 127.145C268.456 127.145 277.888 124.335 285.667 120.855C283.825 112.773 281.314 104.783 278.059 97.0629C264.195 107.88 246.944 119.016 246.944 122.917Z" fill="#A06638"/>
<path d="M253.518 142.519C253.518 146.224 260.234 152.855 277.04 152.855C281.746 152.855 285.933 152.628 289.607 152.265C289.38 144.354 288.593 136.309 287.175 128.298C271.056 133.794 253.518 134.851 253.518 142.519Z" fill="#A06638"/>
<path d="M251.782 165.743C251.782 175.849 269.024 181.466 284.828 183.947C287.383 177.362 288.991 170.228 289.502 162.53C277.712 161.932 264.335 159.464 260.711 159.464C256.045 159.464 251.782 162.018 251.782 165.743Z" fill="#A06638"/>
<path d="M134.325 52.5185C138.583 52.5185 137.765 37.9019 135.901 24.8403C129.691 25.494 123.775 26.4489 118.153 27.6896C120.854 40.4728 125.033 52.5185 134.325 52.5185Z" fill="#A06638"/>
<path d="M177.418 52.5185C186.71 52.5185 190.89 40.4722 193.589 27.6896C187.967 26.4489 182.052 25.494 175.841 24.8403C173.977 37.9019 173.16 52.5185 177.418 52.5185Z" fill="#A06638"/>
<path d="M155.871 54.6207C164.059 54.6207 167.781 38.2127 168.611 24.2236C164.487 23.9571 160.247 23.8125 155.871 23.8125C151.495 23.8125 147.255 23.9571 143.131 24.2236C143.961 38.2127 147.684 54.6207 155.871 54.6207Z" fill="#A06638"/>
</svg>
