<svg width="349" height="114" viewBox="0 0 349 114" fill="none" xmlns="http://www.w3.org/2000/svg">
<g filter="url(#filter0_ii)">
<rect width="349" height="114" rx="56.668" fill="#FCFCFC"/>
</g>
<path d="M97.9248 75H109.131C111.165 75 113.005 74.7314 114.648 74.1943C116.309 73.6572 117.651 72.9411 118.677 72.0459C119.702 71.1344 120.483 70.1253 121.021 69.0186C121.574 67.8955 121.851 66.7236 121.851 65.5029C121.851 62.9964 121.134 60.9945 119.702 59.4971C118.286 57.9997 116.325 57.0719 113.818 56.7139V56.6162C115.967 56.2256 117.594 55.3141 118.701 53.8818C119.808 52.4495 120.361 50.651 120.361 48.4863C120.361 42.6921 116.178 39.7949 107.812 39.7949H97.9248C96.8994 39.7949 96.0286 40.1123 95.3125 40.7471C94.6126 41.3818 94.2627 42.2201 94.2627 43.2617V70.9473C94.2627 72.2982 94.5882 73.3154 95.2393 73.999C95.9066 74.6663 96.8018 75 97.9248 75ZM101.196 69.8486V59.3994H105.908C107.129 59.3994 108.154 59.4401 108.984 59.5215C109.814 59.5866 110.612 59.7249 111.377 59.9365C112.158 60.1481 112.769 60.4492 113.208 60.8398C113.664 61.2142 114.022 61.7188 114.282 62.3535C114.543 62.9883 114.673 63.7614 114.673 64.6729C114.673 65.7633 114.518 66.6585 114.209 67.3584C113.916 68.042 113.436 68.571 112.769 68.9453C112.101 69.3034 111.361 69.5475 110.547 69.6777C109.733 69.7917 108.683 69.8486 107.397 69.8486H101.196ZM101.196 54.5898V44.9219H107.251C108.097 44.9219 108.813 44.9544 109.399 45.0195C109.985 45.0684 110.563 45.1823 111.133 45.3613C111.702 45.5404 112.158 45.7926 112.5 46.1182C112.842 46.4274 113.11 46.8506 113.306 47.3877C113.517 47.9248 113.623 48.5758 113.623 49.3408C113.623 51.2939 113.086 52.6611 112.012 53.4424C110.938 54.2074 109.139 54.5898 106.616 54.5898H101.196ZM130.396 75C131.307 75 132.048 74.7152 132.617 74.1455C133.203 73.5758 133.496 72.762 133.496 71.7041V61.4014C133.496 60.2458 133.683 59.2692 134.058 58.4717C134.432 57.6742 134.961 57.0801 135.645 56.6895C136.328 56.2988 137.036 56.0303 137.769 55.8838C138.517 55.721 139.372 55.6396 140.332 55.6396C140.967 55.6396 141.471 55.3792 141.846 54.8584C142.22 54.3376 142.407 53.7354 142.407 53.0518C142.407 52.3356 142.204 51.7253 141.797 51.2207C141.39 50.7161 140.812 50.4639 140.063 50.4639C138.534 50.4639 137.15 50.9928 135.913 52.0508C134.692 53.0924 133.862 54.3457 133.423 55.8105L133.496 53.2959C133.512 52.4333 133.211 51.7578 132.593 51.2695C131.991 50.765 131.274 50.5127 130.444 50.5127C129.598 50.5127 128.866 50.7731 128.247 51.2939C127.645 51.7985 127.344 52.5146 127.344 53.4424V71.6553C127.344 72.7295 127.629 73.5596 128.198 74.1455C128.784 74.7152 129.517 75 130.396 75ZM153.223 75.293C155.111 75.293 156.632 74.9105 157.788 74.1455C158.96 73.3643 159.806 72.3551 160.327 71.1182V71.9238C160.327 72.9004 160.612 73.6572 161.182 74.1943C161.768 74.7314 162.459 75 163.257 75C164.054 75 164.738 74.7314 165.308 74.1943C165.877 73.6572 166.162 72.9004 166.162 71.9238V59.5215C166.162 57.8613 165.91 56.4209 165.405 55.2002C164.917 53.9795 164.217 53.0111 163.306 52.2949C162.394 51.5788 161.344 51.0498 160.156 50.708C158.968 50.3662 157.625 50.1953 156.128 50.1953C152.824 50.1953 149.821 50.8301 147.119 52.0996C146.403 52.4414 146.045 53.0111 146.045 53.8086C146.045 54.4108 146.24 54.9561 146.631 55.4443C147.038 55.9163 147.526 56.1523 148.096 56.1523C148.372 56.1523 148.6 56.1117 148.779 56.0303C148.796 56.0303 148.975 55.9652 149.316 55.835C149.658 55.6885 149.878 55.599 149.976 55.5664C150.073 55.5339 150.293 55.4606 150.635 55.3467C150.977 55.2165 151.237 55.127 151.416 55.0781C151.595 55.0293 151.855 54.9561 152.197 54.8584C152.539 54.7607 152.832 54.6956 153.076 54.6631C153.32 54.6143 153.605 54.5654 153.931 54.5166C154.256 54.4515 154.574 54.4108 154.883 54.3945C155.208 54.362 155.526 54.3457 155.835 54.3457C157.267 54.3457 158.341 54.7038 159.058 55.4199C159.79 56.1198 160.156 57.2347 160.156 58.7646V60.6445C158.496 60.6445 157.08 60.6689 155.908 60.7178C154.736 60.7503 153.573 60.8317 152.417 60.9619C151.278 61.0921 150.334 61.2793 149.585 61.5234C148.836 61.7513 148.128 62.0524 147.461 62.4268C146.794 62.8011 146.273 63.2568 145.898 63.7939C145.54 64.3311 145.256 64.974 145.044 65.7227C144.849 66.4551 144.751 67.3096 144.751 68.2861C144.751 70.4834 145.54 72.2005 147.119 73.4375C148.714 74.6582 150.749 75.2767 153.223 75.293ZM153.979 71.4355C152.889 71.4355 152.01 71.1426 151.343 70.5566C150.692 69.9544 150.366 69.0837 150.366 67.9443C150.366 67.1956 150.48 66.5853 150.708 66.1133C150.936 65.625 151.253 65.2344 151.66 64.9414C152.067 64.6322 152.694 64.4124 153.54 64.2822C154.403 64.1357 155.306 64.0381 156.25 63.9893C157.21 63.9404 158.504 63.916 160.132 63.916V64.624C160.132 66.5934 159.505 68.221 158.252 69.5068C156.999 70.7926 155.575 71.4355 153.979 71.4355ZM199.854 75C201.725 75 203.06 73.6328 203.857 70.8984L209.277 54.1992C209.375 53.8574 209.424 53.5238 209.424 53.1982C209.424 52.4007 209.147 51.766 208.594 51.2939C208.04 50.8057 207.397 50.5615 206.665 50.5615C206.063 50.5615 205.518 50.7406 205.029 51.0986C204.541 51.4567 204.199 51.9857 204.004 52.6855L199.219 68.7012L194.287 54.0527C193.913 52.8646 193.416 51.9775 192.798 51.3916C192.179 50.7894 191.382 50.4883 190.405 50.4883C189.429 50.4883 188.631 50.7894 188.013 51.3916C187.394 51.9775 186.898 52.8646 186.523 54.0527L181.592 68.7012L176.807 52.6855C176.611 51.9857 176.27 51.4567 175.781 51.0986C175.293 50.7406 174.748 50.5615 174.146 50.5615C173.413 50.5615 172.77 50.8057 172.217 51.2939C171.663 51.766 171.387 52.4007 171.387 53.1982C171.387 53.5238 171.436 53.8574 171.533 54.1992L176.953 70.8984C177.751 73.6328 179.085 75 180.957 75C182.064 75 182.967 74.6908 183.667 74.0723C184.383 73.4538 185.002 72.29 185.522 70.5811L190.405 56.2256L195.288 70.5811C195.809 72.29 196.419 73.4538 197.119 74.0723C197.835 74.6908 198.747 75 199.854 75ZM225.903 71.1182C223.804 71.1182 222.168 70.3857 220.996 68.9209C219.824 67.4561 219.238 65.4053 219.238 62.7686C219.238 60.0993 219.816 58.0322 220.972 56.5674C222.144 55.0863 223.787 54.3457 225.903 54.3457C228.019 54.3457 229.663 55.0863 230.835 56.5674C232.007 58.0485 232.593 60.1156 232.593 62.7686C232.593 65.4053 232.007 67.4561 230.835 68.9209C229.663 70.3857 228.019 71.1182 225.903 71.1182ZM225.903 75.293C227.629 75.293 229.207 75.057 230.64 74.585C232.072 74.113 233.276 73.4863 234.253 72.7051C235.246 71.9076 236.076 70.9717 236.743 69.8975C237.427 68.807 237.923 67.6676 238.232 66.4795C238.558 65.2913 238.721 64.0544 238.721 62.7686C238.721 61.4176 238.55 60.1237 238.208 58.8867C237.882 57.6497 237.37 56.5023 236.67 55.4443C235.97 54.3701 235.124 53.4505 234.131 52.6855C233.138 51.9043 231.934 51.2939 230.518 50.8545C229.118 50.3988 227.58 50.1709 225.903 50.1709C224.194 50.1709 222.624 50.4069 221.191 50.8789C219.775 51.3346 218.571 51.9613 217.578 52.7588C216.602 53.5563 215.771 54.4922 215.088 55.5664C214.404 56.6406 213.9 57.7881 213.574 59.0088C213.265 60.2132 213.11 61.4665 213.11 62.7686C213.11 64.4124 213.371 65.9668 213.892 67.4316C214.412 68.8965 215.169 70.223 216.162 71.4111C217.171 72.5993 218.514 73.5433 220.19 74.2432C221.867 74.943 223.771 75.293 225.903 75.293ZM248.73 62.0605C248.796 62.679 249.007 63.1592 249.365 63.501C249.723 63.8265 250.13 63.9893 250.586 63.9893C251.042 63.9893 251.449 63.8265 251.807 63.501C252.165 63.1592 252.376 62.679 252.441 62.0605L254.297 41.7725C254.313 41.6911 254.321 41.5609 254.321 41.3818C254.321 40.389 253.955 39.624 253.223 39.0869C252.49 38.5335 251.619 38.2568 250.61 38.2568C249.601 38.2568 248.722 38.5335 247.974 39.0869C247.241 39.624 246.875 40.389 246.875 41.3818C246.875 41.5609 246.883 41.6911 246.899 41.7725L248.73 62.0605ZM250.659 75.1221C251.668 75.1221 252.507 74.7884 253.174 74.1211C253.841 73.4375 254.175 72.6237 254.175 71.6797C254.175 70.7031 253.833 69.8893 253.149 69.2383C252.466 68.5872 251.636 68.2617 250.659 68.2617C249.634 68.2617 248.787 68.6035 248.12 69.2871C247.469 69.9544 247.144 70.752 247.144 71.6797C247.144 72.64 247.477 73.4538 248.145 74.1211C248.812 74.7884 249.65 75.1221 250.659 75.1221Z" fill="#31343B"/>
<defs>
<filter id="filter0_ii" x="-6.36719" y="-6.36719" width="361.734" height="126.734" filterUnits="userSpaceOnUse" color-interpolation-filters="sRGB">
<feFlood flood-opacity="0" result="BackgroundImageFix"/>
<feBlend mode="normal" in="SourceGraphic" in2="BackgroundImageFix" result="shape"/>
<feColorMatrix in="SourceAlpha" type="matrix" values="0 0 0 0 0 0 0 0 0 0 0 0 0 0 0 0 0 0 127 0" result="hardAlpha"/>
<feOffset dx="6.36719" dy="6.36719"/>
<feGaussianBlur stdDeviation="3.18359"/>
<feComposite in2="hardAlpha" operator="arithmetic" k2="-1" k3="1"/>
<feColorMatrix type="matrix" values="0 0 0 0 0.235328 0 0 0 0 0.235954 0 0 0 0 0.237413 0 0 0 0.4 0"/>
<feBlend mode="normal" in2="shape" result="effect1_innerShadow"/>
<feColorMatrix in="SourceAlpha" type="matrix" values="0 0 0 0 0 0 0 0 0 0 0 0 0 0 0 0 0 0 127 0" result="hardAlpha"/>
<feOffset dx="-6.36719" dy="-6.36719"/>
<feGaussianBlur stdDeviation="3.18359"/>
<feComposite in2="hardAlpha" operator="arithmetic" k2="-1" k3="1"/>
<feColorMatrix type="matrix" values="0 0 0 0 1 0 0 0 0 1 0 0 0 0 1 0 0 0 0.7 0"/>
<feBlend mode="normal" in2="effect1_innerShadow" result="effect2_innerShadow"/>
</filter>
</defs>
</svg>
