
<svg  width="108" height="116" viewBox="0 0 108 116" fill="none" xmlns="http://www.w3.org/2000/svg">
<g filter="url(#filterA_fill)">
<path d="M82.25 104.828C83.4479 108.422 85.2969 111.182 87.7969 113.109C90.349 115.036 92.901 115.922 95.4531 115.766C98.0052 115.557 100.427 114.776 102.719 113.422C105.062 112.016 106.599 109.802 107.328 106.781C108.057 103.708 107.849 100.297 106.703 96.5469L78.1875 22.7969C76.6771 18.3698 75.0104 14.6719 73.1875 11.7031C71.3646 8.68229 69.4115 6.39062 67.3281 4.82812C65.2448 3.26562 63.1615 2.19792 61.0781 1.625C59.0469 1 56.7292 0.6875 54.125 0.6875C51.5208 0.6875 49.1771 1 47.0938 1.625C45.0625 2.19792 43.0052 3.26562 40.9219 4.82812C38.8385 6.39062 36.8854 8.68229 35.0625 11.7031C33.2396 14.6719 31.5729 18.3698 30.0625 22.7969L1.54688 96.5469C0.401042 100.297 0.192708 103.708 0.921875 106.781C1.65104 109.802 3.16146 112.016 5.45312 113.422C7.79688 114.776 10.2448 115.557 12.7969 115.766C15.349 115.922 17.875 115.036 20.375 113.109C22.9271 111.182 24.8021 108.422 26 104.828L31.1562 90.1406H77.0938L82.25 104.828ZM71.3125 73.8125H36.9375L54.125 24.9844L71.3125 73.8125Z" fill="#D264B6"/>
</g>
<defs>
<filter id="filterA_fill" x="-9.50342" y="-9.3125" width="127.257" height="135.096" filterUnits="userSpaceOnUse" color-interpolation-filters="sRGB">
<feFlood flood-opacity="0" result="BackgroundImageFix"/>
<feBlend mode="normal" in="SourceGraphic" in2="BackgroundImageFix" result="shape"/>
<feColorMatrix in="SourceAlpha" type="matrix" values="0 0 0 0 0 0 0 0 0 0 0 0 0 0 0 0 0 0 127 0" result="hardAlpha"/>
<feOffset dx="-10" dy="-10"/>
<feGaussianBlur stdDeviation="5"/>
<feComposite in2="hardAlpha" operator="arithmetic" k2="-1" k3="1"/>
<feColorMatrix type="matrix" values="0 0 0 0 0.823529 0 0 0 0 0.392157 0 0 0 0 0.713726 0 0 0 0.8 0"/>
<feBlend mode="normal" in2="shape" result="effect1_innerShadow"/>
<feColorMatrix in="SourceAlpha" type="matrix" values="0 0 0 0 0 0 0 0 0 0 0 0 0 0 0 0 0 0 127 0" result="hardAlpha"/>
<feOffset dx="10" dy="10"/>
<feGaussianBlur stdDeviation="5"/>
<feComposite in2="hardAlpha" operator="arithmetic" k2="-1" k3="1"/>
<feColorMatrix type="matrix" values="0 0 0 0 1 0 0 0 0 1 0 0 0 0 1 0 0 0 0.5 0"/>
<feBlend mode="normal" in2="effect1_innerShadow" result="effect2_innerShadow"/>
</filter>
</defs>
</svg>

