<svg width="94" height="114" viewBox="0 0 94 114" fill="none" xmlns="http://www.w3.org/2000/svg">
<g filter="url(#filterB_empty)">
<path d="M28.2188 49.1562V18.1406H39.8594C43.1927 18.1406 46.0833 18.349 48.5312 18.7656C51.0312 19.1823 53.349 19.9375 55.4844 21.0312C57.6719 22.125 59.3125 23.7135 60.4062 25.7969C61.5521 27.8802 62.125 30.4583 62.125 33.5312C62.125 36.6042 61.5521 39.2083 60.4062 41.3438C59.2604 43.4271 57.5677 45.0417 55.3281 46.1875C53.0885 47.2812 50.6146 48.0625 47.9062 48.5312C45.1979 48.9479 41.9688 49.1562 38.2188 49.1562H28.2188ZM28.2188 96.1875V63.0625H38.7656C47.3594 63.0625 53.8958 64.2604 58.375 66.6562C62.8542 69.0521 65.0938 73.2188 65.0938 79.1562C65.0938 82.6458 64.5729 85.5365 63.5312 87.8281C62.4896 90.0677 60.8229 91.8125 58.5312 93.0625C56.2396 94.2604 53.6354 95.0938 50.7188 95.5625C47.8021 95.9792 44.1042 96.1875 39.625 96.1875H28.2188ZM18.6875 114H53.7656C60.3281 114 66.1875 113.115 71.3438 111.344C76.5521 109.573 80.6927 107.177 83.7656 104.156C86.8906 101.135 89.2604 97.776 90.875 94.0781C92.4896 90.3281 93.2969 86.3958 93.2969 82.2812C93.2969 75.25 90.9792 69.2083 86.3438 64.1562C81.7083 59.1042 75.5365 56.0052 67.8281 54.8594V54.5469C74.1302 53.4531 79.2604 50.4583 83.2188 45.5625C87.1771 40.6667 89.1562 35.1719 89.1562 29.0781C89.1562 25.9531 88.8177 23.1146 88.1406 20.5625C87.5156 17.9583 86.7344 15.7188 85.7969 13.8438C84.9115 11.9688 83.5833 10.3021 81.8125 8.84375C80.0417 7.33333 78.4271 6.10938 76.9688 5.17188C75.5625 4.23438 73.5573 3.45312 70.9531 2.82812C68.349 2.15104 66.2135 1.65625 64.5469 1.34375C62.8802 1.03125 60.4844 0.796875 57.3594 0.640625C54.2865 0.484375 51.9688 0.40625 50.4062 0.40625C48.8438 0.354167 46.4479 0.328125 43.2188 0.328125C42.2292 0.328125 41.5 0.328125 41.0312 0.328125H18.6875C13.4271 0.328125 9.10417 1.5 5.71875 3.84375C2.38542 6.1875 0.71875 9.85938 0.71875 14.8594V91.8906C0.71875 96.6823 1.08333 100.589 1.8125 103.609C2.54167 106.578 3.73958 108.818 5.40625 110.328C7.07292 111.839 8.89583 112.828 10.875 113.297C12.8542 113.766 15.4583 114 18.6875 114Z" fill="#F4F4F4"/>
</g>
<defs>
<filter id="filterB_empty" x="0.71875" y="0.328125" width="92.5781" height="118.842" filterUnits="userSpaceOnUse" color-interpolation-filters="sRGB">
<feFlood flood-opacity="0" result="BackgroundImageFix"/>
<feBlend mode="normal" in="SourceGraphic" in2="BackgroundImageFix" result="shape"/>
<feColorMatrix in="SourceAlpha" type="matrix" values="0 0 0 0 0 0 0 0 0 0 0 0 0 0 0 0 0 0 127 0" result="hardAlpha"/>
<feOffset dy="5.17021"/>
<feGaussianBlur stdDeviation="2.58511"/>
<feComposite in2="hardAlpha" operator="arithmetic" k2="-1" k3="1"/>
<feColorMatrix type="matrix" values="0 0 0 0 0.431786 0 0 0 0 0.437134 0 0 0 0 0.437457 0 0 0 0.75 0"/>
<feBlend mode="normal" in2="shape" result="effect1_innerShadow"/>
</filter>
</defs>
</svg>
