<svg width="98" height="120" viewBox="0 0 98 120" fill="none" xmlns="http://www.w3.org/2000/svg">
<g filter="url(#filterC_fill)">
<path d="M57.0625 119.969C71.1771 119.969 82.8958 116.401 92.2188 109.266C96.5938 105.828 98.4167 101.87 97.6875 97.3906C97.1667 94.2135 95.6042 91.8438 93 90.2812C90.6042 88.8229 88.2344 88.7188 85.8906 89.9688C81.9844 92.1562 77.5833 93.901 72.6875 95.2031C67.7917 96.5052 63.3646 97.1562 59.4062 97.1562C49.9271 97.1562 42.7917 94.0573 38 87.8594C33.2083 81.6094 30.8125 72.5208 30.8125 60.5938C30.8125 54.3438 31.3594 48.9531 32.4531 44.4219C33.5469 39.8385 34.9271 36.2448 36.5938 33.6406C38.3125 30.9844 40.526 28.901 43.2344 27.3906C45.9427 25.8281 48.599 24.8125 51.2031 24.3438C53.8594 23.875 56.9323 23.6406 60.4219 23.6406C66.8802 23.6406 74.0677 25.3594 81.9844 28.7969C83.8073 29.526 85.5521 29.8906 87.2188 29.8906C88.9375 29.8906 90.3958 29.5 91.5938 28.7188C92.7917 27.8854 93.8333 26.8958 94.7188 25.75C95.6562 24.5521 96.2552 23.1719 96.5156 21.6094C96.776 20.0469 96.8021 18.5104 96.5938 17C96.3854 15.4896 95.7865 13.9792 94.7969 12.4688C93.8073 10.9583 92.4792 9.65625 90.8125 8.5625C85.8646 6.01042 81.5677 4.21354 77.9219 3.17188C72.1927 1.60938 65.8125 0.828125 58.7812 0.828125C50.5521 0.828125 42.9219 2.20833 35.8906 4.96875C28.8594 7.72917 22.7396 11.6615 17.5312 16.7656C12.375 21.8177 8.3125 28.1719 5.34375 35.8281C2.42708 43.4844 0.96875 52 0.96875 61.375C0.96875 70.6458 2.42708 79.0312 5.34375 86.5312C8.3125 94.0312 12.349 100.203 17.4531 105.047C22.5573 109.839 28.4948 113.536 35.2656 116.141C42.0365 118.693 49.3021 119.969 57.0625 119.969Z" fill="#D264B6"/>
</g>
<defs>
<filter id="filterC_fill" x="-9.03125" y="-9.17188" width="116.875" height="139.141" filterUnits="userSpaceOnUse" color-interpolation-filters="sRGB">
<feFlood flood-opacity="0" result="BackgroundImageFix"/>
<feBlend mode="normal" in="SourceGraphic" in2="BackgroundImageFix" result="shape"/>
<feColorMatrix in="SourceAlpha" type="matrix" values="0 0 0 0 0 0 0 0 0 0 0 0 0 0 0 0 0 0 127 0" result="hardAlpha"/>
<feOffset dx="-10" dy="-10"/>
<feGaussianBlur stdDeviation="5"/>
<feComposite in2="hardAlpha" operator="arithmetic" k2="-1" k3="1"/>
<feColorMatrix type="matrix" values="0 0 0 0 0.823529 0 0 0 0 0.392157 0 0 0 0 0.713726 0 0 0 0.8 0"/>
<feBlend mode="normal" in2="shape" result="effect1_innerShadow"/>
<feColorMatrix in="SourceAlpha" type="matrix" values="0 0 0 0 0 0 0 0 0 0 0 0 0 0 0 0 0 0 127 0" result="hardAlpha"/>
<feOffset dx="10" dy="10"/>
<feGaussianBlur stdDeviation="5"/>
<feComposite in2="hardAlpha" operator="arithmetic" k2="-1" k3="1"/>
<feColorMatrix type="matrix" values="0 0 0 0 1 0 0 0 0 1 0 0 0 0 1 0 0 0 0.5 0"/>
<feBlend mode="normal" in2="effect1_innerShadow" result="effect2_innerShadow"/>
</filter>
</defs>
</svg>
