<svg width="82" height="114" viewBox="0 0 82 114" fill="none" xmlns="http://www.w3.org/2000/svg">
<g filter="url(#filterE_fill)">
<path d="M14.7031 114H70.9531C73.7656 114 76.1354 113.01 78.0625 111.031C80.0417 109 81.0312 106.5 81.0312 103.531C81.0312 100.562 80.0417 98.0625 78.0625 96.0312C76.1354 94 73.7656 92.9844 70.9531 92.9844H28.6875V66.8125H65.4844C68.5052 66.8125 71.0573 65.8229 73.1406 63.8438C75.276 61.8125 76.3438 59.3125 76.3438 56.3438C76.3438 53.375 75.276 50.875 73.1406 48.8438C71.0573 46.7604 68.5052 45.7188 65.4844 45.7188H28.6875V21.4219H69C72.0208 21.4219 74.5729 20.4323 76.6562 18.4531C78.7917 16.4219 79.8594 13.9219 79.8594 10.9531C79.8594 7.98438 78.7917 5.48438 76.6562 3.45312C74.5729 1.36979 72.0208 0.328125 69 0.328125H18.6875C15.5625 0.328125 12.8802 0.71875 10.6406 1.5C8.45312 2.22917 6.70833 3.21875 5.40625 4.46875C4.15625 5.71875 3.16667 7.38542 2.4375 9.46875C1.70833 11.5 1.23958 13.5312 1.03125 15.5625C0.822917 17.5938 0.71875 20.0938 0.71875 23.0625V94C0.71875 96.5 0.953125 98.8698 1.42188 101.109C1.94271 103.349 2.72396 105.484 3.76562 107.516C4.80729 109.495 6.26562 111.083 8.14062 112.281C10.0156 113.427 12.2031 114 14.7031 114Z" fill="#D264B6"/>
</g>
<defs>
<filter id="filterE_fill" x="-9.28125" y="-9.67188" width="100.312" height="133.672" filterUnits="userSpaceOnUse" color-interpolation-filters="sRGB">
<feFlood flood-opacity="0" result="BackgroundImageFix"/>
<feBlend mode="normal" in="SourceGraphic" in2="BackgroundImageFix" result="shape"/>
<feColorMatrix in="SourceAlpha" type="matrix" values="0 0 0 0 0 0 0 0 0 0 0 0 0 0 0 0 0 0 127 0" result="hardAlpha"/>
<feOffset dx="-10" dy="-10"/>
<feGaussianBlur stdDeviation="5"/>
<feComposite in2="hardAlpha" operator="arithmetic" k2="-1" k3="1"/>
<feColorMatrix type="matrix" values="0 0 0 0 0.823529 0 0 0 0 0.392157 0 0 0 0 0.713726 0 0 0 0.8 0"/>
<feBlend mode="normal" in2="shape" result="effect1_innerShadow"/>
<feColorMatrix in="SourceAlpha" type="matrix" values="0 0 0 0 0 0 0 0 0 0 0 0 0 0 0 0 0 0 127 0" result="hardAlpha"/>
<feOffset dx="10" dy="10"/>
<feGaussianBlur stdDeviation="5"/>
<feComposite in2="hardAlpha" operator="arithmetic" k2="-1" k3="1"/>
<feColorMatrix type="matrix" values="0 0 0 0 1 0 0 0 0 1 0 0 0 0 1 0 0 0 0.5 0"/>
<feBlend mode="normal" in2="effect1_innerShadow" result="effect2_innerShadow"/>
</filter>
</defs>
</svg>
