<svg width="106" height="120" viewBox="0 0 106 120" fill="none" xmlns="http://www.w3.org/2000/svg">
<g filter="url(#filterG_fill)">
<path d="M60.7344 119.969C65.0573 119.969 73.5208 119.188 86.125 117.625C89.6146 117 92.5052 116.219 94.7969 115.281C97.0885 114.344 98.9896 113.25 100.5 112C102.01 110.75 103.13 109.057 103.859 106.922C104.641 104.786 105.161 102.495 105.422 100.047C105.682 97.599 105.812 94.4219 105.812 90.5156V69.9688C105.812 64.8646 105.161 61.2448 103.859 59.1094C102.609 56.974 100.057 55.9062 96.2031 55.9062C92.8177 55.9062 87.8698 55.8802 81.3594 55.8281C74.901 55.776 70.0052 55.75 66.6719 55.75C60.2656 55.75 57.0625 58.4844 57.0625 63.9531C57.0625 67.1302 58.026 69.3438 59.9531 70.5938C61.8802 71.7917 64.6146 72.3906 68.1562 72.3906H78.7812V95.75C72.6354 97.1562 67.0625 97.8594 62.0625 97.8594C57.4271 97.8594 53.3125 97.2865 49.7188 96.1406C46.1771 94.9948 42.9479 93.1198 40.0312 90.5156C37.1146 87.8594 34.875 84.1354 33.3125 79.3438C31.8021 74.5521 31.0469 68.7448 31.0469 61.9219C31.0469 49.1615 33.6771 39.4219 38.9375 32.7031C44.1979 25.9323 51.9844 22.5469 62.2969 22.5469C66.6719 22.5469 71.3073 23.0938 76.2031 24.1875C81.099 25.2812 85.0833 26.7396 88.1562 28.5625C89.875 29.6562 91.5156 30.2031 93.0781 30.2031C95.6823 30.2031 97.8958 29.1875 99.7188 27.1562C101.542 25.0729 102.453 22.651 102.453 19.8906C102.453 18.3802 102.036 16.7917 101.203 15.125C100.37 13.4062 99.0938 11.9479 97.375 10.75C93.1042 7.78125 87.5573 5.38542 80.7344 3.5625C73.9635 1.73958 67.2448 0.828125 60.5781 0.828125C50.6302 0.828125 41.776 2.39062 34.0156 5.51562C26.3073 8.58854 20.0833 12.8854 15.3438 18.4062C10.6042 23.875 7.01042 30.151 4.5625 37.2344C2.16667 44.3177 0.96875 52.0521 0.96875 60.4375C0.96875 80.4896 6.20312 95.4375 16.6719 105.281C27.1406 115.073 41.8281 119.969 60.7344 119.969Z" fill="#D264B6"/>
</g>
<defs>
<filter id="filterG_fill" x="-9.03125" y="-9.17188" width="124.844" height="139.141" filterUnits="userSpaceOnUse" color-interpolation-filters="sRGB">
<feFlood flood-opacity="0" result="BackgroundImageFix"/>
<feBlend mode="normal" in="SourceGraphic" in2="BackgroundImageFix" result="shape"/>
<feColorMatrix in="SourceAlpha" type="matrix" values="0 0 0 0 0 0 0 0 0 0 0 0 0 0 0 0 0 0 127 0" result="hardAlpha"/>
<feOffset dx="-10" dy="-10"/>
<feGaussianBlur stdDeviation="5"/>
<feComposite in2="hardAlpha" operator="arithmetic" k2="-1" k3="1"/>
<feColorMatrix type="matrix" values="0 0 0 0 0.823529 0 0 0 0 0.392157 0 0 0 0 0.713726 0 0 0 0.8 0"/>
<feBlend mode="normal" in2="shape" result="effect1_innerShadow"/>
<feColorMatrix in="SourceAlpha" type="matrix" values="0 0 0 0 0 0 0 0 0 0 0 0 0 0 0 0 0 0 127 0" result="hardAlpha"/>
<feOffset dx="10" dy="10"/>
<feGaussianBlur stdDeviation="5"/>
<feComposite in2="hardAlpha" operator="arithmetic" k2="-1" k3="1"/>
<feColorMatrix type="matrix" values="0 0 0 0 1 0 0 0 0 1 0 0 0 0 1 0 0 0 0.5 0"/>
<feBlend mode="normal" in2="effect1_innerShadow" result="effect2_innerShadow"/>
</filter>
</defs>
</svg>
