<svg width="76" height="117" viewBox="0 0 76 117" fill="none" xmlns="http://www.w3.org/2000/svg">
<g filter="url(#filterJ_fill)">
<path d="M35 116.734C47.9688 116.734 57.9948 113.271 65.0781 106.344C72.2135 99.4167 75.8073 89.4688 75.8594 76.5L75.9375 16.5C75.9375 12.0729 74.5312 8.27083 71.7188 5.09375C68.9062 1.86458 65.4948 0.25 61.4844 0.25C57.526 0.25 54.1406 1.86458 51.3281 5.09375C48.5677 8.27083 47.1875 12.0729 47.1875 16.5V74.0781C47.1875 80.3281 46.0156 84.7292 43.6719 87.2812C41.3802 89.7812 37.6042 91.0312 32.3438 91.0312C28.0729 91.0312 23.776 89.3906 19.4531 86.1094C16.901 83.8698 14.3229 82.75 11.7188 82.75C8.59375 82.75 5.9375 84 3.75 86.5C1.61458 89 0.546875 91.9688 0.546875 95.4062C0.546875 95.9271 0.598958 96.7083 0.703125 97.75C1.22396 100.667 2.70833 103.349 5.15625 105.797C8.59375 109.443 12.9167 112.177 18.125 114C23.3333 115.823 28.9583 116.734 35 116.734Z" fill="#D264B6"/>
</g>
<defs>
<filter id="filterJ_fill" x="-9.45312" y="-9.75" width="95.3906" height="136.484" filterUnits="userSpaceOnUse" color-interpolation-filters="sRGB">
<feFlood flood-opacity="0" result="BackgroundImageFix"/>
<feBlend mode="normal" in="SourceGraphic" in2="BackgroundImageFix" result="shape"/>
<feColorMatrix in="SourceAlpha" type="matrix" values="0 0 0 0 0 0 0 0 0 0 0 0 0 0 0 0 0 0 127 0" result="hardAlpha"/>
<feOffset dx="-10" dy="-10"/>
<feGaussianBlur stdDeviation="5"/>
<feComposite in2="hardAlpha" operator="arithmetic" k2="-1" k3="1"/>
<feColorMatrix type="matrix" values="0 0 0 0 0.823529 0 0 0 0 0.392157 0 0 0 0 0.713726 0 0 0 0.8 0"/>
<feBlend mode="normal" in2="shape" result="effect1_innerShadow"/>
<feColorMatrix in="SourceAlpha" type="matrix" values="0 0 0 0 0 0 0 0 0 0 0 0 0 0 0 0 0 0 127 0" result="hardAlpha"/>
<feOffset dx="10" dy="10"/>
<feGaussianBlur stdDeviation="5"/>
<feComposite in2="hardAlpha" operator="arithmetic" k2="-1" k3="1"/>
<feColorMatrix type="matrix" values="0 0 0 0 1 0 0 0 0 1 0 0 0 0 1 0 0 0 0.5 0"/>
<feBlend mode="normal" in2="effect1_innerShadow" result="effect2_innerShadow"/>
</filter>
</defs>
</svg>
