<svg width="94" height="114" viewBox="0 0 94 114" fill="none" xmlns="http://www.w3.org/2000/svg">
<g filter="url(#filterK_fill)">
<path d="M15.0938 114C19.1042 114 22.5156 112.411 25.3281 109.234C28.1406 106.005 29.5469 102.151 29.5469 97.6719L29.3906 58.1406L63.5312 98.9219C63.8438 99.3385 64.4948 100.276 65.4844 101.734C66.474 103.141 67.2031 104.156 67.6719 104.781C68.1406 105.406 68.8438 106.318 69.7812 107.516C70.7188 108.661 71.526 109.547 72.2031 110.172C72.9323 110.745 73.7656 111.396 74.7031 112.125C75.6927 112.802 76.6562 113.297 77.5938 113.609C78.5833 113.87 79.599 114 80.6406 114C84.026 114 87.0729 112.776 89.7812 110.328C92.5417 107.88 93.9219 104.911 93.9219 101.422C93.9219 97.8281 91.4219 92.5417 86.4219 85.5625L59.625 54.5469L84.625 27.6719C89.5208 21.2135 91.9688 16.3177 91.9688 12.9844C91.9688 9.44271 90.6667 6.44792 88.0625 4C85.5104 1.55208 82.5677 0.328125 79.2344 0.328125C77.8802 0.328125 76.6042 0.588542 75.4062 1.10938C74.2604 1.57812 73.0365 2.46354 71.7344 3.76562C70.4844 5.01562 69.4688 6.10938 68.6875 7.04688C67.9062 7.98438 66.7083 9.52083 65.0938 11.6562L29.3906 51.8125L29.5469 16.5781C29.5469 12.151 28.1146 8.32292 25.25 5.09375C22.3854 1.86458 19 0.25 15.0938 0.25C11.1354 0.25 7.75 1.86458 4.9375 5.09375C2.17708 8.27083 0.796875 12.099 0.796875 16.5781V97.6719C0.796875 102.151 2.17708 106.005 4.9375 109.234C7.75 112.411 11.1354 114 15.0938 114Z" fill="#D264B6"/>
</g>
<defs>
<filter id="filterK_fill" x="-9.20312" y="-9.75" width="113.125" height="133.75" filterUnits="userSpaceOnUse" color-interpolation-filters="sRGB">
<feFlood flood-opacity="0" result="BackgroundImageFix"/>
<feBlend mode="normal" in="SourceGraphic" in2="BackgroundImageFix" result="shape"/>
<feColorMatrix in="SourceAlpha" type="matrix" values="0 0 0 0 0 0 0 0 0 0 0 0 0 0 0 0 0 0 127 0" result="hardAlpha"/>
<feOffset dx="-10" dy="-10"/>
<feGaussianBlur stdDeviation="5"/>
<feComposite in2="hardAlpha" operator="arithmetic" k2="-1" k3="1"/>
<feColorMatrix type="matrix" values="0 0 0 0 0.823529 0 0 0 0 0.392157 0 0 0 0 0.713726 0 0 0 0.8 0"/>
<feBlend mode="normal" in2="shape" result="effect1_innerShadow"/>
<feColorMatrix in="SourceAlpha" type="matrix" values="0 0 0 0 0 0 0 0 0 0 0 0 0 0 0 0 0 0 127 0" result="hardAlpha"/>
<feOffset dx="10" dy="10"/>
<feGaussianBlur stdDeviation="5"/>
<feComposite in2="hardAlpha" operator="arithmetic" k2="-1" k3="1"/>
<feColorMatrix type="matrix" values="0 0 0 0 1 0 0 0 0 1 0 0 0 0 1 0 0 0 0.5 0"/>
<feBlend mode="normal" in2="effect1_innerShadow" result="effect2_innerShadow"/>
</filter>
</defs>
</svg>
