<svg width="80" height="114" viewBox="0 0 80 114" fill="none" xmlns="http://www.w3.org/2000/svg">
<g filter="url(#filterL_empty)">
<path d="M15.1719 114H68.7656C71.6302 114 74.0521 112.958 76.0312 110.875C78.0625 108.74 79.0781 106.161 79.0781 103.141C79.0781 100.12 78.0625 97.5677 76.0312 95.4844C74.0521 93.401 71.6302 92.3594 68.7656 92.3594H29.625L29.5469 16.5C29.5469 12.0208 28.1406 8.19271 25.3281 5.01562C22.5156 1.83854 19.1042 0.25 15.0938 0.25C11.1354 0.25 7.75 1.83854 4.9375 5.01562C2.125 8.19271 0.71875 12.0208 0.71875 16.5V90.4844C0.71875 94.7031 1.10938 98.4792 1.89062 101.812C2.72396 105.146 4.26042 108.01 6.5 110.406C8.73958 112.802 11.6302 114 15.1719 114Z" fill="#F4F4F4"/>
</g>
<defs>
<filter id="filterL_empty" x="0.71875" y="0.25" width="78.3594" height="118.92" filterUnits="userSpaceOnUse" color-interpolation-filters="sRGB">
<feFlood flood-opacity="0" result="BackgroundImageFix"/>
<feBlend mode="normal" in="SourceGraphic" in2="BackgroundImageFix" result="shape"/>
<feColorMatrix in="SourceAlpha" type="matrix" values="0 0 0 0 0 0 0 0 0 0 0 0 0 0 0 0 0 0 127 0" result="hardAlpha"/>
<feOffset dy="5.17021"/>
<feGaussianBlur stdDeviation="2.58511"/>
<feComposite in2="hardAlpha" operator="arithmetic" k2="-1" k3="1"/>
<feColorMatrix type="matrix" values="0 0 0 0 0.431786 0 0 0 0 0.437134 0 0 0 0 0.437457 0 0 0 0.75 0"/>
<feBlend mode="normal" in2="shape" result="effect1_innerShadow"/>
</filter>
</defs>
</svg>
