<svg width="134" height="117" viewBox="0 0 134 117" fill="none" xmlns="http://www.w3.org/2000/svg">
<g filter="url(#filterM_empty)">
<path d="M67.3594 108.453C71.6823 108.453 75.0156 107.203 77.3594 104.703C79.7031 102.203 81.9427 98.0625 84.0781 92.2812L109.625 28.9219L109.547 104C109.547 106.604 110.146 108.87 111.344 110.797C112.542 112.724 114.052 114.104 115.875 114.938C117.698 115.771 119.651 116.188 121.734 116.188C123.818 116.188 125.771 115.745 127.594 114.859C129.417 113.974 130.927 112.594 132.125 110.719C133.323 108.792 133.922 106.552 133.922 104L134 20.5625C134 17.5938 133.375 14.8073 132.125 12.2031C130.927 9.54688 129.286 7.38542 127.203 5.71875C125.12 4 122.776 2.64583 120.172 1.65625C117.568 0.614583 114.833 0.223958 111.969 0.484375C109.104 0.744792 106.318 1.47396 103.609 2.67188C100.953 3.86979 98.4271 5.90104 96.0312 8.76562C93.6354 11.6302 91.6823 15.1198 90.1719 19.2344L67.3594 75.4062L44.5469 19.2344C43.0365 15.1198 41.0833 11.6302 38.6875 8.76562C36.2917 5.90104 33.7396 3.86979 31.0312 2.67188C28.375 1.47396 25.6146 0.744792 22.75 0.484375C19.8854 0.223958 17.151 0.614583 14.5469 1.65625C11.9427 2.64583 9.59896 4 7.51562 5.71875C5.43229 7.38542 3.76562 9.54688 2.51562 12.2031C1.31771 14.8073 0.71875 17.5938 0.71875 20.5625L0.796875 104C0.796875 106.188 1.23958 108.167 2.125 109.938C3.01042 111.656 4.15625 112.984 5.5625 113.922C7.02083 114.859 8.60938 115.536 10.3281 115.953C12.099 116.37 13.8438 116.37 15.5625 115.953C17.3333 115.589 18.9219 114.938 20.3281 114C21.7865 113.115 22.9583 111.786 23.8438 110.016C24.7292 108.245 25.1719 106.24 25.1719 104V28.9219L50.6406 92.2812C52.776 98.0625 54.9896 102.203 57.2812 104.703C59.625 107.203 62.9844 108.453 67.3594 108.453Z" fill="#F4F4F4"/>
</g>
<defs>
<filter id="filterM_empty" x="0.71875" y="0.40625" width="133.281" height="121.03" filterUnits="userSpaceOnUse" color-interpolation-filters="sRGB">
<feFlood flood-opacity="0" result="BackgroundImageFix"/>
<feBlend mode="normal" in="SourceGraphic" in2="BackgroundImageFix" result="shape"/>
<feColorMatrix in="SourceAlpha" type="matrix" values="0 0 0 0 0 0 0 0 0 0 0 0 0 0 0 0 0 0 127 0" result="hardAlpha"/>
<feOffset dy="5.17021"/>
<feGaussianBlur stdDeviation="2.58511"/>
<feComposite in2="hardAlpha" operator="arithmetic" k2="-1" k3="1"/>
<feColorMatrix type="matrix" values="0 0 0 0 0.431786 0 0 0 0 0.437134 0 0 0 0 0.437457 0 0 0 0.75 0"/>
<feBlend mode="normal" in2="shape" result="effect1_innerShadow"/>
</filter>
</defs>
</svg>
