<svg width="113" height="120" viewBox="0 0 113 120" fill="none" xmlns="http://www.w3.org/2000/svg">
<g filter="url(#filterO_fill)">
<path d="M56.8281 119.969C75.2135 119.969 89.0938 114.995 98.4688 105.047C107.896 95.099 112.609 80.2292 112.609 60.4375C112.609 40.5938 107.896 25.6979 98.4688 15.75C89.0938 5.80208 75.2135 0.828125 56.8281 0.828125C38.3906 0.828125 24.4583 5.80208 15.0312 15.75C5.65625 25.6979 0.96875 40.5938 0.96875 60.4375C0.96875 80.2292 5.65625 95.099 15.0312 105.047C24.4583 114.995 38.3906 119.969 56.8281 119.969ZM56.8281 98.9531C47.6094 98.9531 41.0208 96.0625 37.0625 90.2812C33.1562 84.5 31.2031 74.5521 31.2031 60.4375C31.2031 50.8021 32.0885 43.1719 33.8594 37.5469C35.6302 31.9219 38.3385 27.8854 41.9844 25.4375C45.6823 22.9896 50.6302 21.7656 56.8281 21.7656C66.099 21.7656 72.6875 24.6562 76.5938 30.4375C80.5521 36.2188 82.5312 46.2188 82.5312 60.4375C82.5312 74.5521 80.5521 84.5 76.5938 90.2812C72.6875 96.0625 66.099 98.9531 56.8281 98.9531Z" fill="#D264B6"/>
</g>
<defs>
<filter id="filterO_fill" x="-9.03125" y="-9.17188" width="131.641" height="139.141" filterUnits="userSpaceOnUse" color-interpolation-filters="sRGB">
<feFlood flood-opacity="0" result="BackgroundImageFix"/>
<feBlend mode="normal" in="SourceGraphic" in2="BackgroundImageFix" result="shape"/>
<feColorMatrix in="SourceAlpha" type="matrix" values="0 0 0 0 0 0 0 0 0 0 0 0 0 0 0 0 0 0 127 0" result="hardAlpha"/>
<feOffset dx="-10" dy="-10"/>
<feGaussianBlur stdDeviation="5"/>
<feComposite in2="hardAlpha" operator="arithmetic" k2="-1" k3="1"/>
<feColorMatrix type="matrix" values="0 0 0 0 0.823529 0 0 0 0 0.392157 0 0 0 0 0.713726 0 0 0 0.8 0"/>
<feBlend mode="normal" in2="shape" result="effect1_innerShadow"/>
<feColorMatrix in="SourceAlpha" type="matrix" values="0 0 0 0 0 0 0 0 0 0 0 0 0 0 0 0 0 0 127 0" result="hardAlpha"/>
<feOffset dx="10" dy="10"/>
<feGaussianBlur stdDeviation="5"/>
<feComposite in2="hardAlpha" operator="arithmetic" k2="-1" k3="1"/>
<feColorMatrix type="matrix" values="0 0 0 0 1 0 0 0 0 1 0 0 0 0 1 0 0 0 0.5 0"/>
<feBlend mode="normal" in2="effect1_innerShadow" result="effect2_innerShadow"/>
</filter>
</defs>
</svg>
