<svg width="94" height="114" viewBox="0 0 94 114" fill="none" xmlns="http://www.w3.org/2000/svg">
<g filter="url(#filterR_empty)">
<path d="M29.0781 49.1562V18.0625H41.1094C43.2969 18.0625 45.0677 18.0885 46.4219 18.1406C47.776 18.1927 49.3906 18.3229 51.2656 18.5312C53.1927 18.7396 54.7552 19.0521 55.9531 19.4688C57.151 19.8333 58.401 20.4062 59.7031 21.1875C61.0573 21.9688 62.099 22.9062 62.8281 24C63.6094 25.0938 64.2344 26.474 64.7031 28.1406C65.224 29.7552 65.4844 31.6302 65.4844 33.7656C65.4844 36.9427 64.8073 39.599 63.4531 41.7344C62.099 43.8698 60.1719 45.4583 57.6719 46.5C55.224 47.4896 52.75 48.1927 50.25 48.6094C47.8021 48.974 44.9635 49.1562 41.7344 49.1562H29.0781ZM15.0938 114C19.3125 114 22.776 112.62 25.4844 109.859C28.1927 107.047 29.5469 103.01 29.5469 97.75V67.75H45.5625C51.7083 67.75 56.1094 69.0781 58.7656 71.7344C61.474 74.3906 63.1146 78.6875 63.6875 84.625L64.8594 94.8594C65.3802 101.578 66.8385 106.448 69.2344 109.469C71.6302 112.49 75.1719 114 79.8594 114C85.3802 114 89.1562 112.203 91.1875 108.609C93.2708 105.016 93.8698 99.2083 92.9844 91.1875L91.5 80.7969C90.9792 76.3177 90.276 72.6979 89.3906 69.9375C88.5573 67.125 87.2552 64.7031 85.4844 62.6719C83.7656 60.5885 81.5781 59.0521 78.9219 58.0625C76.2656 57.0208 72.8281 56.2656 68.6094 55.7969V55.4844C85.3802 52.5677 93.7656 43.6615 93.7656 28.7656C93.7656 24.1302 92.9583 20.0938 91.3438 16.6562C89.7292 13.2188 87.6198 10.4844 85.0156 8.45312C82.4115 6.36979 79.1302 4.70312 75.1719 3.45312C71.2656 2.20312 67.3073 1.36979 63.2969 0.953125C59.3385 0.484375 54.8594 0.25 49.8594 0.25H18.4531C13.349 0.25 9.10417 1.55208 5.71875 4.15625C2.38542 6.70833 0.71875 10.4844 0.71875 15.4844V97.75C0.71875 102.802 2.07292 106.786 4.78125 109.703C7.48958 112.568 10.9271 114 15.0938 114Z" fill="#F4F4F4"/>
</g>
<defs>
<filter id="filterR_empty" x="0.71875" y="0.25" width="93.0469" height="118.92" filterUnits="userSpaceOnUse" color-interpolation-filters="sRGB">
<feFlood flood-opacity="0" result="BackgroundImageFix"/>
<feBlend mode="normal" in="SourceGraphic" in2="BackgroundImageFix" result="shape"/>
<feColorMatrix in="SourceAlpha" type="matrix" values="0 0 0 0 0 0 0 0 0 0 0 0 0 0 0 0 0 0 127 0" result="hardAlpha"/>
<feOffset dy="5.17021"/>
<feGaussianBlur stdDeviation="2.58511"/>
<feComposite in2="hardAlpha" operator="arithmetic" k2="-1" k3="1"/>
<feColorMatrix type="matrix" values="0 0 0 0 0.431786 0 0 0 0 0.437134 0 0 0 0 0.437457 0 0 0 0.75 0"/>
<feBlend mode="normal" in2="shape" result="effect1_innerShadow"/>
</filter>
</defs>
</svg>
