<svg width="94" height="120" viewBox="0 0 94 120" fill="none" xmlns="http://www.w3.org/2000/svg">
<g filter="url(#filterS_empty)">
<path d="M46.5 119.969C60.8229 119.969 72.1771 116.766 80.5625 110.359C88.9479 103.901 93.1406 95.151 93.1406 84.1094C93.1406 80.099 92.5417 76.5052 91.3438 73.3281C90.1979 70.099 88.6354 67.3385 86.6562 65.0469C84.7292 62.7552 82.151 60.6458 78.9219 58.7188C75.6927 56.7396 72.3594 55.0729 68.9219 53.7188C65.5365 52.3646 61.4479 50.9583 56.6562 49.5C55.3542 49.0312 53.3229 48.6406 50.5625 48.3281C47.8542 48.0156 45.875 47.625 44.625 47.1562C39.2083 45.3333 35.0938 43.4323 32.2812 41.4531C29.5208 39.4219 28.1406 36.7396 28.1406 33.4062C28.1406 30.8021 29.1562 28.5885 31.1875 26.7656C33.2188 24.9427 35.7188 23.6667 38.6875 22.9375C41.6562 22.1562 44.9115 21.7656 48.4531 21.7656C53.8177 21.7656 58.4271 22.2865 62.2812 23.3281C66.1875 24.3177 70.5365 26.1406 75.3281 28.7969C76.9427 29.474 78.5573 29.6562 80.1719 29.3438C81.7865 28.9792 83.1667 28.0938 84.3125 26.6875C85.5104 25.2812 86.4219 23.7448 87.0469 22.0781C87.6719 20.4115 87.776 18.5625 87.3594 16.5312C86.9427 14.5 85.9531 12.7292 84.3906 11.2188C80.6927 7.78125 75.276 5.20312 68.1406 3.48438C61.0573 1.71354 54.1302 0.828125 47.3594 0.828125C33.0885 0.828125 21.7604 3.97917 13.375 10.2812C4.98958 16.5833 0.796875 25.0208 0.796875 35.5938C0.796875 43.3021 2.80208 49.3698 6.8125 53.7969C10.8229 58.1719 17.6979 62.1823 27.4375 65.8281L53.375 74.4219C61.3958 77.0781 65.4062 81.1406 65.4062 86.6094C65.4062 90.776 63.5573 93.875 59.8594 95.9062C56.2135 97.9375 51.5 98.9531 45.7188 98.9531C36.9688 98.9531 28.1927 97.0781 19.3906 93.3281C17.2552 92.2344 15.3021 91.8177 13.5312 92.0781C11.8125 92.2865 10.224 92.8854 8.76562 93.875C7.35938 94.8125 6.26562 96.0885 5.48438 97.7031C4.75521 99.3177 4.28646 100.958 4.07812 102.625C3.92188 104.292 4.20833 105.958 4.9375 107.625C5.66667 109.24 6.8125 110.568 8.375 111.609C17.4896 117.182 30.1979 119.969 46.5 119.969Z" fill="#F4F4F4"/>
</g>
<defs>
<filter id="filterS_empty" x="0.796875" y="0.828125" width="92.3438" height="124.311" filterUnits="userSpaceOnUse" color-interpolation-filters="sRGB">
<feFlood flood-opacity="0" result="BackgroundImageFix"/>
<feBlend mode="normal" in="SourceGraphic" in2="BackgroundImageFix" result="shape"/>
<feColorMatrix in="SourceAlpha" type="matrix" values="0 0 0 0 0 0 0 0 0 0 0 0 0 0 0 0 0 0 127 0" result="hardAlpha"/>
<feOffset dy="5.17021"/>
<feGaussianBlur stdDeviation="2.58511"/>
<feComposite in2="hardAlpha" operator="arithmetic" k2="-1" k3="1"/>
<feColorMatrix type="matrix" values="0 0 0 0 0.431786 0 0 0 0 0.437134 0 0 0 0 0.437457 0 0 0 0.75 0"/>
<feBlend mode="normal" in2="shape" result="effect1_innerShadow"/>
</filter>
</defs>
</svg>
