<svg width="99" height="117" viewBox="0 0 99 117" fill="none" xmlns="http://www.w3.org/2000/svg">
<g filter="url(#filterU_fill)">
<path d="M49.6094 116.969C59.2448 116.969 67.6823 115.458 74.9219 112.438C82.1615 109.417 87.8906 104.781 92.1094 98.5312C96.3802 92.2292 98.5156 84.625 98.5156 75.7188V16.6562C98.5156 12.1771 97.0833 8.34896 94.2188 5.17188C91.4062 1.99479 88.0208 0.40625 84.0625 0.40625C80.1042 0.40625 76.7188 1.99479 73.9062 5.17188C71.0938 8.34896 69.6875 12.1771 69.6875 16.6562V75.25C69.6875 82.0208 67.7083 87.1771 63.75 90.7188C59.7917 94.2083 55.0781 95.9531 49.6094 95.9531C44.1927 95.9531 39.5052 94.2083 35.5469 90.7188C31.6406 87.1771 29.6875 82.0208 29.6875 75.25V16.6562C29.6875 12.1771 28.2552 8.34896 25.3906 5.17188C22.5781 1.99479 19.1927 0.40625 15.2344 0.40625C11.224 0.40625 7.8125 1.99479 5 5.17188C2.23958 8.34896 0.859375 12.1771 0.859375 16.6562V75.7188C0.859375 82.5417 2.05729 88.6094 4.45312 93.9219C6.90104 99.1823 10.3125 103.479 14.6875 106.812C19.1146 110.146 24.2708 112.672 30.1562 114.391C36.0417 116.109 42.526 116.969 49.6094 116.969Z" fill="#D264B6"/>
</g>
<defs>
<filter id="filterU_fill" x="-9.14062" y="-9.59375" width="117.656" height="136.562" filterUnits="userSpaceOnUse" color-interpolation-filters="sRGB">
<feFlood flood-opacity="0" result="BackgroundImageFix"/>
<feBlend mode="normal" in="SourceGraphic" in2="BackgroundImageFix" result="shape"/>
<feColorMatrix in="SourceAlpha" type="matrix" values="0 0 0 0 0 0 0 0 0 0 0 0 0 0 0 0 0 0 127 0" result="hardAlpha"/>
<feOffset dx="-10" dy="-10"/>
<feGaussianBlur stdDeviation="5"/>
<feComposite in2="hardAlpha" operator="arithmetic" k2="-1" k3="1"/>
<feColorMatrix type="matrix" values="0 0 0 0 0.823529 0 0 0 0 0.392157 0 0 0 0 0.713726 0 0 0 0.8 0"/>
<feBlend mode="normal" in2="shape" result="effect1_innerShadow"/>
<feColorMatrix in="SourceAlpha" type="matrix" values="0 0 0 0 0 0 0 0 0 0 0 0 0 0 0 0 0 0 127 0" result="hardAlpha"/>
<feOffset dx="10" dy="10"/>
<feGaussianBlur stdDeviation="5"/>
<feComposite in2="hardAlpha" operator="arithmetic" k2="-1" k3="1"/>
<feColorMatrix type="matrix" values="0 0 0 0 1 0 0 0 0 1 0 0 0 0 1 0 0 0 0.5 0"/>
<feBlend mode="normal" in2="effect1_innerShadow" result="effect2_innerShadow"/>
</filter>
</defs>
</svg>
