<svg width="104" height="114" viewBox="0 0 104 114" fill="none" xmlns="http://www.w3.org/2000/svg">
<g filter="url(#filterV_empty)">
<path d="M51.9375 113.766C53.5 113.766 54.9323 113.688 56.2344 113.531C57.5885 113.375 58.8385 113.089 59.9844 112.672C61.1823 112.203 62.224 111.734 63.1094 111.266C64.0469 110.797 64.9583 110.094 65.8438 109.156C66.7812 108.167 67.5625 107.281 68.1875 106.5C68.8646 105.667 69.5938 104.469 70.375 102.906C71.1562 101.344 71.8073 99.9635 72.3281 98.7656C72.901 97.5677 73.5781 95.875 74.3594 93.6875C75.1406 91.4479 75.7917 89.5208 76.3125 87.9062C76.8854 86.2396 77.6406 83.974 78.5781 81.1094L101.859 20.875C103.995 14.5729 103.552 9.33854 100.531 5.17188C98.1875 1.94271 95.0365 0.328125 91.0781 0.328125C86.4948 0.328125 82.6406 2.54167 79.5156 6.96875C77.9531 9.15625 76.7292 11.7344 75.8438 14.7031L51.9375 83.375L28.1094 14.7031C26.026 7.82812 22.5365 3.375 17.6406 1.34375C13.6823 -0.322917 9.98438 -0.0364583 6.54688 2.20312C2.95312 4.54688 1.05208 8.14062 0.84375 12.9844C0.739583 15.4844 1.15625 18.1146 2.09375 20.875L25.375 81.1094C26.4167 84.2865 27.224 86.7865 27.7969 88.6094C28.4219 90.3802 29.151 92.4635 29.9844 94.8594C30.8698 97.2031 31.625 99 32.25 100.25C32.875 101.5 33.6042 102.932 34.4375 104.547C35.3229 106.109 36.1562 107.281 36.9375 108.062C37.7708 108.844 38.7083 109.677 39.75 110.562C40.8438 111.448 41.9896 112.073 43.1875 112.438C44.3854 112.802 45.6875 113.115 47.0938 113.375C48.5521 113.635 50.1667 113.766 51.9375 113.766Z" fill="#F4F4F4"/>
</g>
<defs>
<filter id="filterV_empty" x="0.828125" y="0.2771" width="102.358" height="118.659" filterUnits="userSpaceOnUse" color-interpolation-filters="sRGB">
<feFlood flood-opacity="0" result="BackgroundImageFix"/>
<feBlend mode="normal" in="SourceGraphic" in2="BackgroundImageFix" result="shape"/>
<feColorMatrix in="SourceAlpha" type="matrix" values="0 0 0 0 0 0 0 0 0 0 0 0 0 0 0 0 0 0 127 0" result="hardAlpha"/>
<feOffset dy="5.17021"/>
<feGaussianBlur stdDeviation="2.58511"/>
<feComposite in2="hardAlpha" operator="arithmetic" k2="-1" k3="1"/>
<feColorMatrix type="matrix" values="0 0 0 0 0.431786 0 0 0 0 0.437134 0 0 0 0 0.437457 0 0 0 0.75 0"/>
<feBlend mode="normal" in2="shape" result="effect1_innerShadow"/>
</filter>
</defs>
</svg>
