<svg width="163" height="118" viewBox="0 0 163 118" fill="none" xmlns="http://www.w3.org/2000/svg">
<g filter="url(#filterW_empty)">
<path d="M141.859 103.344L161.859 18.4219C163.057 12.901 161.859 8.34375 158.266 4.75C154.672 1.15625 150.531 0.140625 145.844 1.70312C141.208 3.26562 138.214 7.51042 136.859 14.4375L120.922 86.7031L102.562 26.3906C101.521 22.4844 100.479 19.2292 99.4375 16.625C98.4479 14.0208 97.1458 11.5469 95.5312 9.20312C93.9688 6.85938 92.0156 5.14062 89.6719 4.04688C87.3802 2.90104 84.6719 2.32812 81.5469 2.32812C78.4219 2.32812 75.6875 2.90104 73.3438 4.04688C71.0521 5.14062 69.099 6.85938 67.4844 9.20312C65.9219 11.4948 64.6198 13.9688 63.5781 16.625C62.5365 19.2292 61.5208 22.4844 60.5312 26.3906L42.0938 86.7031L26.2344 14.4375C24.8802 7.51042 21.8594 3.26562 17.1719 1.70312C12.5365 0.140625 8.39583 1.15625 4.75 4.75C1.15625 8.34375 -0.0416667 12.901 1.15625 18.4219L21.1562 103.344C21.7812 106.156 23.0573 108.63 24.9844 110.766C26.9115 112.901 29.151 114.516 31.7031 115.609C34.2552 116.703 36.9896 117.224 39.9062 117.172C42.875 117.172 45.6875 116.625 48.3438 115.531C51 114.385 53.4219 112.484 55.6094 109.828C57.849 107.172 59.4896 103.917 60.5312 100.062L81.5469 28.7344L102.484 100.062C103.526 103.917 105.141 107.172 107.328 109.828C109.568 112.484 112.016 114.385 114.672 115.531C117.328 116.625 120.141 117.172 123.109 117.172C126.078 117.224 128.812 116.703 131.312 115.609C133.865 114.516 136.104 112.901 138.031 110.766C139.958 108.63 141.234 106.156 141.859 103.344Z" fill="#F4F4F4"/>
</g>
<defs>
<filter id="filterW_empty" x="0.707031" y="0.99292" width="161.602" height="121.353" filterUnits="userSpaceOnUse" color-interpolation-filters="sRGB">
<feFlood flood-opacity="0" result="BackgroundImageFix"/>
<feBlend mode="normal" in="SourceGraphic" in2="BackgroundImageFix" result="shape"/>
<feColorMatrix in="SourceAlpha" type="matrix" values="0 0 0 0 0 0 0 0 0 0 0 0 0 0 0 0 0 0 127 0" result="hardAlpha"/>
<feOffset dy="5.17021"/>
<feGaussianBlur stdDeviation="2.58511"/>
<feComposite in2="hardAlpha" operator="arithmetic" k2="-1" k3="1"/>
<feColorMatrix type="matrix" values="0 0 0 0 0.431786 0 0 0 0 0.437134 0 0 0 0 0.437457 0 0 0 0.75 0"/>
<feBlend mode="normal" in2="shape" result="effect1_innerShadow"/>
</filter>
</defs>
</svg>
