<svg width="97" height="117" viewBox="0 0 97 117" fill="none" xmlns="http://www.w3.org/2000/svg">
<g filter="url(#filterX_empty)">
<path d="M71.7188 108.125C75.5729 113.698 80.026 116.328 85.0781 116.016C88.8802 115.807 91.9792 114.062 94.375 110.781C96.9792 107.135 97.5781 103.203 96.1719 98.9844C95.651 97.526 94.8958 96.1198 93.9062 94.7656L64.9219 56.875L93.5938 21.4844C96.25 17.9948 96.7969 14.1667 95.2344 10C93.9844 6.61458 91.7969 4.24479 88.6719 2.89062C84.401 1.01562 80.2604 1.875 76.25 5.46875C74.7917 6.71875 73.4375 8.28125 72.1875 10.1562L50.7812 38.4375L27.7344 8.28125C25.4948 5.05208 22.8906 2.86458 19.9219 1.71875C16.9531 0.572917 14.2708 0.494792 11.875 1.48438C9.47917 2.42188 7.42188 3.90625 5.70312 5.9375C3.98438 7.91667 3.15104 10.5208 3.20312 13.75C3.25521 16.9792 4.375 20.2083 6.5625 23.4375L33.0469 57.8906L5.15625 90.8594C0.9375 96.3802 -0.286458 101.615 1.48438 106.562C2.63021 109.948 4.84375 112.266 8.125 113.516C12.1875 115.026 16.0938 114.323 19.8438 111.406C21.25 110.365 22.526 109.036 23.6719 107.422L47.6562 76.875L71.7188 108.125Z" fill="#F4F4F4"/>
</g>
<defs>
<filter id="filterX_empty" x="0.698975" y="0.796387" width="96.2125" height="120.414" filterUnits="userSpaceOnUse" color-interpolation-filters="sRGB">
<feFlood flood-opacity="0" result="BackgroundImageFix"/>
<feBlend mode="normal" in="SourceGraphic" in2="BackgroundImageFix" result="shape"/>
<feColorMatrix in="SourceAlpha" type="matrix" values="0 0 0 0 0 0 0 0 0 0 0 0 0 0 0 0 0 0 127 0" result="hardAlpha"/>
<feOffset dy="5.17021"/>
<feGaussianBlur stdDeviation="2.58511"/>
<feComposite in2="hardAlpha" operator="arithmetic" k2="-1" k3="1"/>
<feColorMatrix type="matrix" values="0 0 0 0 0.431786 0 0 0 0 0.437134 0 0 0 0 0.437457 0 0 0 0.75 0"/>
<feBlend mode="normal" in2="shape" result="effect1_innerShadow"/>
</filter>
</defs>
</svg>
