<svg width="113" height="168" viewBox="0 0 113 168" fill="none" xmlns="http://www.w3.org/2000/svg">
<g filter="url(#filterOo_fill)">
<path d="M57.6875 39.1406C59.25 39.1406 60.6302 38.6198 61.8281 37.5781L84.875 17.8906C87.2708 15.651 88.4688 13.3594 88.4688 11.0156C88.4688 8.20312 87.3229 5.78125 85.0312 3.75C82.7917 1.71875 80.3698 0.703125 77.7656 0.703125C74.901 0.703125 72.1927 2.78646 69.6406 6.95312L54.0156 29.2969C52.7656 31.224 52.1406 32.6823 52.1406 33.6719C52.1406 35.3906 52.6875 36.7448 53.7812 37.7344C54.9271 38.6719 56.2292 39.1406 57.6875 39.1406ZM56.8281 167.969C75.2135 167.969 89.0938 162.995 98.4688 153.047C107.896 143.099 112.609 128.229 112.609 108.438C112.609 88.5938 107.896 73.6979 98.4688 63.75C89.0938 53.8021 75.2135 48.8281 56.8281 48.8281C38.3906 48.8281 24.4583 53.8021 15.0312 63.75C5.65625 73.6979 0.96875 88.5938 0.96875 108.438C0.96875 128.229 5.65625 143.099 15.0312 153.047C24.4583 162.995 38.3906 167.969 56.8281 167.969ZM56.8281 146.953C47.6094 146.953 41.0208 144.062 37.0625 138.281C33.1562 132.5 31.2031 122.552 31.2031 108.438C31.2031 98.8021 32.0885 91.1719 33.8594 85.5469C35.6302 79.9219 38.3385 75.8854 41.9844 73.4375C45.6823 70.9896 50.6302 69.7656 56.8281 69.7656C66.099 69.7656 72.6875 72.6562 76.5938 78.4375C80.5521 84.2188 82.5312 94.2188 82.5312 108.438C82.5312 122.552 80.5521 132.5 76.5938 138.281C72.6875 144.062 66.099 146.953 56.8281 146.953Z" fill="#D264B6"/>
</g>
<defs>
<filter id="filterOo_fill" x="-9.03125" y="-9.29688" width="131.641" height="187.266" filterUnits="userSpaceOnUse" color-interpolation-filters="sRGB">
<feFlood flood-opacity="0" result="BackgroundImageFix"/>
<feBlend mode="normal" in="SourceGraphic" in2="BackgroundImageFix" result="shape"/>
<feColorMatrix in="SourceAlpha" type="matrix" values="0 0 0 0 0 0 0 0 0 0 0 0 0 0 0 0 0 0 127 0" result="hardAlpha"/>
<feOffset dx="-10" dy="-10"/>
<feGaussianBlur stdDeviation="5"/>
<feComposite in2="hardAlpha" operator="arithmetic" k2="-1" k3="1"/>
<feColorMatrix type="matrix" values="0 0 0 0 0.823529 0 0 0 0 0.392157 0 0 0 0 0.713726 0 0 0 0.8 0"/>
<feBlend mode="normal" in2="shape" result="effect1_innerShadow"/>
<feColorMatrix in="SourceAlpha" type="matrix" values="0 0 0 0 0 0 0 0 0 0 0 0 0 0 0 0 0 0 127 0" result="hardAlpha"/>
<feOffset dx="10" dy="10"/>
<feGaussianBlur stdDeviation="5"/>
<feComposite in2="hardAlpha" operator="arithmetic" k2="-1" k3="1"/>
<feColorMatrix type="matrix" values="0 0 0 0 1 0 0 0 0 1 0 0 0 0 1 0 0 0 0.5 0"/>
<feBlend mode="normal" in2="effect1_innerShadow" result="effect2_innerShadow"/>
</filter>
</defs>
</svg>
