<svg width="112" height="156" viewBox="0 0 112 156" fill="none" xmlns="http://www.w3.org/2000/svg">
<g filter="url(#filterAa_empty)">
<path d="M111.625 152.875V141.703C109.698 141.703 107.797 141.443 105.922 140.922C104.099 140.453 102.328 139.542 100.609 138.188C98.8906 136.885 97.6146 135.245 96.7812 133.266C95.9479 131.339 95.7917 128.734 96.3125 125.453C96.8333 122.224 98.1875 118.578 100.375 114.516H88.5781C85.1406 118.526 82.6667 122.589 81.1562 126.703C79.6458 130.87 79.0729 134.62 79.4375 137.953C79.8542 141.339 80.974 144.359 82.7969 147.016C84.6198 149.724 86.9635 151.781 89.8281 153.188C92.6927 154.646 96.026 155.375 99.8281 155.375C103.682 155.427 107.615 154.594 111.625 152.875ZM82.25 104.828C83.4479 108.422 85.2969 111.182 87.7969 113.109C90.349 115.036 92.901 115.922 95.4531 115.766C98.0052 115.557 100.427 114.776 102.719 113.422C105.062 112.016 106.599 109.802 107.328 106.781C108.057 103.708 107.849 100.297 106.703 96.5469L78.1875 22.7969C76.6771 18.3698 75.0104 14.6719 73.1875 11.7031C71.3646 8.68229 69.4115 6.39062 67.3281 4.82812C65.2448 3.26562 63.1615 2.19792 61.0781 1.625C59.0469 1 56.7292 0.6875 54.125 0.6875C51.5208 0.6875 49.1771 1 47.0938 1.625C45.0625 2.19792 43.0052 3.26562 40.9219 4.82812C38.8385 6.39062 36.8854 8.68229 35.0625 11.7031C33.2396 14.6719 31.5729 18.3698 30.0625 22.7969L1.54688 96.5469C0.401042 100.297 0.192708 103.708 0.921875 106.781C1.65104 109.802 3.16146 112.016 5.45312 113.422C7.79688 114.776 10.2448 115.557 12.7969 115.766C15.349 115.922 17.875 115.036 20.375 113.109C22.9271 111.182 24.8021 108.422 26 104.828L31.1562 90.1406H77.0938L82.25 104.828ZM71.3125 73.8125H36.9375L54.125 24.9844L71.3125 73.8125Z" fill="#F4F4F4"/>
</g>
<defs>
<filter id="filterAa_empty" x="0.496582" y="0.6875" width="111.128" height="159.86" filterUnits="userSpaceOnUse" color-interpolation-filters="sRGB">
<feFlood flood-opacity="0" result="BackgroundImageFix"/>
<feBlend mode="normal" in="SourceGraphic" in2="BackgroundImageFix" result="shape"/>
<feColorMatrix in="SourceAlpha" type="matrix" values="0 0 0 0 0 0 0 0 0 0 0 0 0 0 0 0 0 0 127 0" result="hardAlpha"/>
<feOffset dy="5.17021"/>
<feGaussianBlur stdDeviation="2.58511"/>
<feComposite in2="hardAlpha" operator="arithmetic" k2="-1" k3="1"/>
<feColorMatrix type="matrix" values="0 0 0 0 0.431786 0 0 0 0 0.437134 0 0 0 0 0.437457 0 0 0 0.75 0"/>
<feBlend mode="normal" in2="shape" result="effect1_innerShadow"/>
</filter>
</defs>
</svg>
