<svg width="98" height="167" viewBox="0 0 98 167" fill="none" xmlns="http://www.w3.org/2000/svg">
<g filter="url(#filterĆ_empty)">
<path d="M58.4688 39.2344C60.0312 39.2344 61.4115 38.7135 62.6094 37.6719L85.6562 17.9844C88.0521 15.7448 89.25 13.4531 89.25 11.1094C89.25 8.29688 88.1042 5.875 85.8125 3.84375C83.5729 1.8125 81.151 0.796875 78.5469 0.796875C75.6823 0.796875 72.974 2.88021 70.4219 7.04688L54.7969 29.3906C53.5469 31.3177 52.9219 32.776 52.9219 33.7656C52.9219 35.4844 53.4688 36.8385 54.5625 37.8281C55.7083 38.7656 57.0104 39.2344 58.4688 39.2344ZM57.0625 166.969C71.1771 166.969 82.8958 163.401 92.2188 156.266C96.5938 152.828 98.4167 148.87 97.6875 144.391C97.1667 141.214 95.6042 138.844 93 137.281C90.6042 135.823 88.2344 135.719 85.8906 136.969C81.9844 139.156 77.5833 140.901 72.6875 142.203C67.7917 143.505 63.3646 144.156 59.4062 144.156C49.9271 144.156 42.7917 141.057 38 134.859C33.2083 128.609 30.8125 119.521 30.8125 107.594C30.8125 101.344 31.3594 95.9531 32.4531 91.4219C33.5469 86.8385 34.9271 83.2448 36.5938 80.6406C38.3125 77.9844 40.526 75.901 43.2344 74.3906C45.9427 72.8281 48.599 71.8125 51.2031 71.3438C53.8594 70.875 56.9323 70.6406 60.4219 70.6406C66.8802 70.6406 74.0677 72.3594 81.9844 75.7969C83.8073 76.526 85.5521 76.8906 87.2188 76.8906C88.9375 76.8906 90.3958 76.5 91.5938 75.7188C92.7917 74.8854 93.8333 73.8958 94.7188 72.75C95.6562 71.5521 96.2552 70.1719 96.5156 68.6094C96.776 67.0469 96.8021 65.5104 96.5938 64C96.3854 62.4896 95.7865 60.9792 94.7969 59.4688C93.8073 57.9583 92.4792 56.6562 90.8125 55.5625C85.8646 53.0104 81.5677 51.2135 77.9219 50.1719C72.1927 48.6094 65.8125 47.8281 58.7812 47.8281C50.5521 47.8281 42.9219 49.2083 35.8906 51.9688C28.8594 54.7292 22.7396 58.6615 17.5312 63.7656C12.375 68.8177 8.3125 75.1719 5.34375 82.8281C2.42708 90.4844 0.96875 99 0.96875 108.375C0.96875 117.646 2.42708 126.031 5.34375 133.531C8.3125 141.031 12.349 147.203 17.4531 152.047C22.5573 156.839 28.4948 160.536 35.2656 163.141C42.0365 165.693 49.3021 166.969 57.0625 166.969Z" fill="#F4F4F4"/>
</g>
<defs>
<filter id="filterĆ_empty" x="0.96875" y="0.796875" width="96.875" height="171.342" filterUnits="userSpaceOnUse" color-interpolation-filters="sRGB">
<feFlood flood-opacity="0" result="BackgroundImageFix"/>
<feBlend mode="normal" in="SourceGraphic" in2="BackgroundImageFix" result="shape"/>
<feColorMatrix in="SourceAlpha" type="matrix" values="0 0 0 0 0 0 0 0 0 0 0 0 0 0 0 0 0 0 127 0" result="hardAlpha"/>
<feOffset dy="5.17021"/>
<feGaussianBlur stdDeviation="2.58511"/>
<feComposite in2="hardAlpha" operator="arithmetic" k2="-1" k3="1"/>
<feColorMatrix type="matrix" values="0 0 0 0 0.431786 0 0 0 0 0.437134 0 0 0 0 0.437457 0 0 0 0.75 0"/>
<feBlend mode="normal" in2="shape" result="effect1_innerShadow"/>
</filter>
</defs>
</svg>
