<svg width="103" height="165" viewBox="0 0 103 165" fill="none" xmlns="http://www.w3.org/2000/svg">
<g filter="url(#filterNn_empty)">
<path d="M58.1406 39.1406C59.7031 39.1406 61.0833 38.6198 62.2812 37.5781L85.3281 17.8906C87.724 15.651 88.9219 13.3594 88.9219 11.0156C88.9219 8.20312 87.776 5.78125 85.4844 3.75C83.2448 1.71875 80.8229 0.703125 78.2188 0.703125C75.3542 0.703125 72.6458 2.78646 70.0938 6.95312L54.4688 29.2969C53.2188 31.224 52.5938 32.6823 52.5938 33.6719C52.5938 35.3906 53.1406 36.7448 54.2344 37.7344C55.3802 38.6719 56.6823 39.1406 58.1406 39.1406ZM12.9062 165C16.2396 165 19.1042 163.724 21.5 161.172C23.9479 158.62 25.1719 155.573 25.1719 152.031V90.5469L71.8125 151.719C74.7812 155.938 77.6458 159.219 80.4062 161.562C83.1667 163.854 86.0573 165 89.0781 165C91.9427 165 94.3385 164.375 96.2656 163.125C98.1927 161.875 99.625 160.078 100.562 157.734C101.5 155.339 102.125 152.891 102.438 150.391C102.802 147.839 102.984 144.844 102.984 141.406V64.2188C102.984 60.6771 101.786 57.6302 99.3906 55.0781C96.9948 52.526 94.1042 51.25 90.7188 51.25C87.3333 51.25 84.4688 52.526 82.125 55.0781C79.7812 57.6302 78.6094 60.6771 78.6094 64.2188V124.688L32.3594 64.6875C26.4219 55.7812 20.6146 51.3021 14.9375 51.25C10.875 51.25 7.48958 52.7344 4.78125 55.7031C2.07292 58.6719 0.71875 62.7344 0.71875 67.8906V152.031C0.71875 155.573 1.89062 158.62 4.23438 161.172C6.63021 163.724 9.52083 165 12.9062 165Z" fill="#F4F4F4"/>
</g>
<defs>
<filter id="filterNn_empty" x="0.71875" y="0.703125" width="102.266" height="169.467" filterUnits="userSpaceOnUse" color-interpolation-filters="sRGB">
<feFlood flood-opacity="0" result="BackgroundImageFix"/>
<feBlend mode="normal" in="SourceGraphic" in2="BackgroundImageFix" result="shape"/>
<feColorMatrix in="SourceAlpha" type="matrix" values="0 0 0 0 0 0 0 0 0 0 0 0 0 0 0 0 0 0 127 0" result="hardAlpha"/>
<feOffset dy="5.17021"/>
<feGaussianBlur stdDeviation="2.58511"/>
<feComposite in2="hardAlpha" operator="arithmetic" k2="-1" k3="1"/>
<feColorMatrix type="matrix" values="0 0 0 0 0.431786 0 0 0 0 0.437134 0 0 0 0 0.437457 0 0 0 0.75 0"/>
<feBlend mode="normal" in2="shape" result="effect1_innerShadow"/>
</filter>
</defs>
</svg>
