<svg width="94" height="167" viewBox="0 0 94 167" fill="none" xmlns="http://www.w3.org/2000/svg">
<g filter="url(#filterSs_empty)">
<path d="M47.5156 39.2344C49.0781 39.2344 50.4583 38.7135 51.6562 37.6719L74.7031 17.9844C77.099 15.7448 78.2969 13.4531 78.2969 11.1094C78.2969 8.29688 77.151 5.875 74.8594 3.84375C72.6198 1.8125 70.1979 0.796875 67.5938 0.796875C64.7292 0.796875 62.0208 2.88021 59.4688 7.04688L43.8438 29.3906C42.5938 31.3177 41.9688 32.776 41.9688 33.7656C41.9688 35.4844 42.5156 36.8385 43.6094 37.8281C44.7552 38.7656 46.0573 39.2344 47.5156 39.2344ZM46.5 166.969C60.8229 166.969 72.1771 163.766 80.5625 157.359C88.9479 150.901 93.1406 142.151 93.1406 131.109C93.1406 127.099 92.5417 123.505 91.3438 120.328C90.1979 117.099 88.6354 114.339 86.6562 112.047C84.7292 109.755 82.151 107.646 78.9219 105.719C75.6927 103.74 72.3594 102.073 68.9219 100.719C65.5365 99.3646 61.4479 97.9583 56.6562 96.5C55.3542 96.0312 53.3229 95.6406 50.5625 95.3281C47.8542 95.0156 45.875 94.625 44.625 94.1562C39.2083 92.3333 35.0938 90.4323 32.2812 88.4531C29.5208 86.4219 28.1406 83.7396 28.1406 80.4062C28.1406 77.8021 29.1562 75.5885 31.1875 73.7656C33.2188 71.9427 35.7188 70.6667 38.6875 69.9375C41.6562 69.1562 44.9115 68.7656 48.4531 68.7656C53.8177 68.7656 58.4271 69.2865 62.2812 70.3281C66.1875 71.3177 70.5365 73.1406 75.3281 75.7969C76.9427 76.474 78.5573 76.6562 80.1719 76.3438C81.7865 75.9792 83.1667 75.0938 84.3125 73.6875C85.5104 72.2812 86.4219 70.7448 87.0469 69.0781C87.6719 67.4115 87.776 65.5625 87.3594 63.5312C86.9427 61.5 85.9531 59.7292 84.3906 58.2188C80.6927 54.7812 75.276 52.2031 68.1406 50.4844C61.0573 48.7135 54.1302 47.8281 47.3594 47.8281C33.0885 47.8281 21.7604 50.9792 13.375 57.2812C4.98958 63.5833 0.796875 72.0208 0.796875 82.5938C0.796875 90.3021 2.80208 96.3698 6.8125 100.797C10.8229 105.172 17.6979 109.182 27.4375 112.828L53.375 121.422C61.3958 124.078 65.4062 128.141 65.4062 133.609C65.4062 137.776 63.5573 140.875 59.8594 142.906C56.2135 144.938 51.5 145.953 45.7188 145.953C36.9688 145.953 28.1927 144.078 19.3906 140.328C17.2552 139.234 15.3021 138.818 13.5312 139.078C11.8125 139.286 10.224 139.885 8.76562 140.875C7.35938 141.812 6.26562 143.089 5.48438 144.703C4.75521 146.318 4.28646 147.958 4.07812 149.625C3.92188 151.292 4.20833 152.958 4.9375 154.625C5.66667 156.24 6.8125 157.568 8.375 158.609C17.4896 164.182 30.1979 166.969 46.5 166.969Z" fill="#F4F4F4"/>
</g>
<defs>
<filter id="filterSs_empty" x="0.796875" y="0.796875" width="92.3438" height="171.342" filterUnits="userSpaceOnUse" color-interpolation-filters="sRGB">
<feFlood flood-opacity="0" result="BackgroundImageFix"/>
<feBlend mode="normal" in="SourceGraphic" in2="BackgroundImageFix" result="shape"/>
<feColorMatrix in="SourceAlpha" type="matrix" values="0 0 0 0 0 0 0 0 0 0 0 0 0 0 0 0 0 0 127 0" result="hardAlpha"/>
<feOffset dy="5.17021"/>
<feGaussianBlur stdDeviation="2.58511"/>
<feComposite in2="hardAlpha" operator="arithmetic" k2="-1" k3="1"/>
<feColorMatrix type="matrix" values="0 0 0 0 0.431786 0 0 0 0 0.437134 0 0 0 0 0.437457 0 0 0 0.75 0"/>
<feBlend mode="normal" in2="shape" result="effect1_innerShadow"/>
</filter>
</defs>
</svg>
